solid OpenSCAD_Model
  facet normal 0 0 -1
    outer loop
      vertex -49 -13.5 -10
      vertex -48 13.5 -10
      vertex -48 -13.5 -10
    endloop
  endfacet
  facet normal -0 0 -1
    outer loop
      vertex -48 13.5 -10
      vertex -49 -13.5 -10
      vertex -49 13.5 -10
    endloop
  endfacet
  facet normal -0 0 1
    outer loop
      vertex -49 13.5 -30
      vertex -48 -13.5 -30
      vertex -48 13.5 -30
    endloop
  endfacet
  facet normal 0 0 1
    outer loop
      vertex -48 -13.5 -30
      vertex -49 13.5 -30
      vertex -49 -13.5 -30
    endloop
  endfacet
  facet normal 0 1 0
    outer loop
      vertex -47 -13.5 -8
      vertex -48 -13.5 -10
      vertex -48 -13.5 -8
    endloop
  endfacet
  facet normal 0 1 0
    outer loop
      vertex -48 -13.5 -10
      vertex -48 -13.5 -30
      vertex -49 -13.5 -10
    endloop
  endfacet
  facet normal 0 1 0
    outer loop
      vertex -47 -13.5 -8
      vertex -48 -13.5 -30
      vertex -48 -13.5 -10
    endloop
  endfacet
  facet normal 0 1 -0
    outer loop
      vertex -47 -13.5 -32
      vertex -48 -13.5 -30
      vertex -47 -13.5 -8
    endloop
  endfacet
  facet normal 0 1 0
    outer loop
      vertex -48 -13.5 -30
      vertex -47 -13.5 -32
      vertex -48 -13.5 -32
    endloop
  endfacet
  facet normal 0 1 0
    outer loop
      vertex -49 -13.5 -10
      vertex -48 -13.5 -30
      vertex -49 -13.5 -30
    endloop
  endfacet
  facet normal 0 -1 0
    outer loop
      vertex -49 13.5 -10
      vertex -49 13.5 -30
      vertex -48 13.5 -10
    endloop
  endfacet
  facet normal 0 -1 0
    outer loop
      vertex -48 13.5 -10
      vertex -47 13.5 -8
      vertex -48 13.5 -8
    endloop
  endfacet
  facet normal 0 -1 0
    outer loop
      vertex -48 13.5 -30
      vertex -48 13.5 -10
      vertex -49 13.5 -30
    endloop
  endfacet
  facet normal 0 -1 0
    outer loop
      vertex -48 13.5 -10
      vertex -48 13.5 -30
      vertex -47 13.5 -8
    endloop
  endfacet
  facet normal 0 -1 0
    outer loop
      vertex -47 13.5 -32
      vertex -48 13.5 -30
      vertex -48 13.5 -32
    endloop
  endfacet
  facet normal 0 -1 0
    outer loop
      vertex -48 13.5 -30
      vertex -47 13.5 -32
      vertex -47 13.5 -8
    endloop
  endfacet
  facet normal 1 -0 0
    outer loop
      vertex -48 -13.5 -8
      vertex -48 13.5 -10
      vertex -48 13.5 -8
    endloop
  endfacet
  facet normal 1 0 0
    outer loop
      vertex -48 13.5 -10
      vertex -48 -13.5 -8
      vertex -48 -13.5 -10
    endloop
  endfacet
  facet normal 1 -0 0
    outer loop
      vertex -48 -13.5 -30
      vertex -48 13.5 -32
      vertex -48 13.5 -30
    endloop
  endfacet
  facet normal 1 0 0
    outer loop
      vertex -48 13.5 -32
      vertex -48 -13.5 -30
      vertex -48 -13.5 -32
    endloop
  endfacet
  facet normal 0 0 -1
    outer loop
      vertex -48 -13.5 -8
      vertex -47 13.5 -8
      vertex -47 -13.5 -8
    endloop
  endfacet
  facet normal -0 0 -1
    outer loop
      vertex -47 13.5 -8
      vertex -48 -13.5 -8
      vertex -48 13.5 -8
    endloop
  endfacet
  facet normal -0 0 1
    outer loop
      vertex -48 13.5 -32
      vertex -47 -13.5 -32
      vertex -47 13.5 -32
    endloop
  endfacet
  facet normal 0 0 1
    outer loop
      vertex -47 -13.5 -32
      vertex -48 13.5 -32
      vertex -48 -13.5 -32
    endloop
  endfacet
  facet normal 1 -0 0
    outer loop
      vertex 20.5 -20 -13.5
      vertex 20.5 -19 -26.5
      vertex 20.5 -19 -13.5
    endloop
  endfacet
  facet normal 1 0 0
    outer loop
      vertex 20.5 -19 -26.5
      vertex 20.5 -20 -13.5
      vertex 20.5 -20 -26.5
    endloop
  endfacet
  facet normal 1 -0 0
    outer loop
      vertex 20.5 19 -13.5
      vertex 20.5 20 -26.5
      vertex 20.5 20 -13.5
    endloop
  endfacet
  facet normal 1 0 0
    outer loop
      vertex 20.5 20 -26.5
      vertex 20.5 19 -13.5
      vertex 20.5 19 -26.5
    endloop
  endfacet
  facet normal 0 0 -1
    outer loop
      vertex 39.5 -20 -13.5
      vertex 20.5 -20 -13.5
      vertex 39.5 -19 -13.5
    endloop
  endfacet
  facet normal 0 0 -1
    outer loop
      vertex 39.5 -19 -13.5
      vertex 41.5 -18 -13.5
      vertex 41.5 -19 -13.5
    endloop
  endfacet
  facet normal 0 0 -1
    outer loop
      vertex 20.5 -19 -13.5
      vertex 39.5 -19 -13.5
      vertex 20.5 -20 -13.5
    endloop
  endfacet
  facet normal 0 0 -1
    outer loop
      vertex 39.5 -19 -13.5
      vertex 20.5 -19 -13.5
      vertex 41.5 -18 -13.5
    endloop
  endfacet
  facet normal 0 0 -1
    outer loop
      vertex 18.5 -18 -13.5
      vertex 20.5 -19 -13.5
      vertex 18.5 -19 -13.5
    endloop
  endfacet
  facet normal 0 0 -1
    outer loop
      vertex 20.5 -19 -13.5
      vertex 18.5 -18 -13.5
      vertex 41.5 -18 -13.5
    endloop
  endfacet
  facet normal 0 0 -1
    outer loop
      vertex 41.5 18 -13.5
      vertex 39.5 19 -13.5
      vertex 41.5 19 -13.5
    endloop
  endfacet
  facet normal 0 0 -1
    outer loop
      vertex 39.5 19 -13.5
      vertex 20.5 19 -13.5
      vertex 39.5 20 -13.5
    endloop
  endfacet
  facet normal 0 0 -1
    outer loop
      vertex 41.5 18 -13.5
      vertex 20.5 19 -13.5
      vertex 39.5 19 -13.5
    endloop
  endfacet
  facet normal 0 0 -1
    outer loop
      vertex 18.5 18 -13.5
      vertex 20.5 19 -13.5
      vertex 41.5 18 -13.5
    endloop
  endfacet
  facet normal -0 0 -1
    outer loop
      vertex 20.5 19 -13.5
      vertex 18.5 18 -13.5
      vertex 18.5 19 -13.5
    endloop
  endfacet
  facet normal -0 0 -1
    outer loop
      vertex 39.5 20 -13.5
      vertex 20.5 19 -13.5
      vertex 20.5 20 -13.5
    endloop
  endfacet
  facet normal -1 0 0
    outer loop
      vertex 39.5 -20 -26.5
      vertex 39.5 -19 -13.5
      vertex 39.5 -19 -26.5
    endloop
  endfacet
  facet normal -1 -0 0
    outer loop
      vertex 39.5 -19 -13.5
      vertex 39.5 -20 -26.5
      vertex 39.5 -20 -13.5
    endloop
  endfacet
  facet normal -1 0 0
    outer loop
      vertex 39.5 19 -26.5
      vertex 39.5 20 -13.5
      vertex 39.5 20 -26.5
    endloop
  endfacet
  facet normal -1 -0 0
    outer loop
      vertex 39.5 20 -13.5
      vertex 39.5 19 -26.5
      vertex 39.5 19 -13.5
    endloop
  endfacet
  facet normal 0 0 1
    outer loop
      vertex 39.5 20 -26.5
      vertex 20.5 20 -26.5
      vertex 39.5 19 -26.5
    endloop
  endfacet
  facet normal -0 0 1
    outer loop
      vertex 39.5 19 -26.5
      vertex 41.5 18 -26.5
      vertex 41.5 19 -26.5
    endloop
  endfacet
  facet normal 0 0 1
    outer loop
      vertex 20.5 19 -26.5
      vertex 39.5 19 -26.5
      vertex 20.5 20 -26.5
    endloop
  endfacet
  facet normal 0 0 1
    outer loop
      vertex 39.5 19 -26.5
      vertex 20.5 19 -26.5
      vertex 41.5 18 -26.5
    endloop
  endfacet
  facet normal 0 0 1
    outer loop
      vertex 18.5 18 -26.5
      vertex 20.5 19 -26.5
      vertex 18.5 19 -26.5
    endloop
  endfacet
  facet normal 0 0 1
    outer loop
      vertex 20.5 19 -26.5
      vertex 18.5 18 -26.5
      vertex 41.5 18 -26.5
    endloop
  endfacet
  facet normal 0 0 1
    outer loop
      vertex 41.5 -18 -26.5
      vertex 39.5 -19 -26.5
      vertex 41.5 -19 -26.5
    endloop
  endfacet
  facet normal 0 0 1
    outer loop
      vertex 39.5 -19 -26.5
      vertex 20.5 -19 -26.5
      vertex 39.5 -20 -26.5
    endloop
  endfacet
  facet normal 0 0 1
    outer loop
      vertex 41.5 -18 -26.5
      vertex 20.5 -19 -26.5
      vertex 39.5 -19 -26.5
    endloop
  endfacet
  facet normal -0 0 1
    outer loop
      vertex 18.5 -18 -26.5
      vertex 20.5 -19 -26.5
      vertex 41.5 -18 -26.5
    endloop
  endfacet
  facet normal 0 0 1
    outer loop
      vertex 20.5 -19 -26.5
      vertex 18.5 -18 -26.5
      vertex 18.5 -19 -26.5
    endloop
  endfacet
  facet normal 0 0 1
    outer loop
      vertex 39.5 -20 -26.5
      vertex 20.5 -19 -26.5
      vertex 20.5 -20 -26.5
    endloop
  endfacet
  facet normal 1 -0 0
    outer loop
      vertex 18.5 -19 -13.5
      vertex 18.5 -18 -26.5
      vertex 18.5 -18 -13.5
    endloop
  endfacet
  facet normal 1 0 0
    outer loop
      vertex 18.5 -18 -26.5
      vertex 18.5 -19 -13.5
      vertex 18.5 -19 -26.5
    endloop
  endfacet
  facet normal 1 -0 0
    outer loop
      vertex 18.5 18 -13.5
      vertex 18.5 19 -26.5
      vertex 18.5 19 -13.5
    endloop
  endfacet
  facet normal 1 0 0
    outer loop
      vertex 18.5 19 -26.5
      vertex 18.5 18 -13.5
      vertex 18.5 18 -26.5
    endloop
  endfacet
  facet normal -1 0 0
    outer loop
      vertex 41.5 -19 -26.5
      vertex 41.5 -18 -13.5
      vertex 41.5 -18 -26.5
    endloop
  endfacet
  facet normal -1 -0 0
    outer loop
      vertex 41.5 -18 -13.5
      vertex 41.5 -19 -26.5
      vertex 41.5 -19 -13.5
    endloop
  endfacet
  facet normal -1 0 0
    outer loop
      vertex 41.5 18 -26.5
      vertex 41.5 19 -13.5
      vertex 41.5 19 -26.5
    endloop
  endfacet
  facet normal -1 -0 0
    outer loop
      vertex 41.5 19 -13.5
      vertex 41.5 18 -26.5
      vertex 41.5 18 -13.5
    endloop
  endfacet
  facet normal 0 1 -0
    outer loop
      vertex 20.5 -19 -26.5
      vertex 18.5 -19 -13.5
      vertex 20.5 -19 -13.5
    endloop
  endfacet
  facet normal 0 1 0
    outer loop
      vertex 18.5 -19 -13.5
      vertex 20.5 -19 -26.5
      vertex 18.5 -19 -26.5
    endloop
  endfacet
  facet normal 0 1 -0
    outer loop
      vertex 41.5 -19 -26.5
      vertex 39.5 -19 -13.5
      vertex 41.5 -19 -13.5
    endloop
  endfacet
  facet normal 0 1 0
    outer loop
      vertex 39.5 -19 -13.5
      vertex 41.5 -19 -26.5
      vertex 39.5 -19 -26.5
    endloop
  endfacet
  facet normal 0 -1 0
    outer loop
      vertex 39.5 19 -26.5
      vertex 41.5 19 -13.5
      vertex 39.5 19 -13.5
    endloop
  endfacet
  facet normal 0 -1 -0
    outer loop
      vertex 41.5 19 -13.5
      vertex 39.5 19 -26.5
      vertex 41.5 19 -26.5
    endloop
  endfacet
  facet normal 0 -1 0
    outer loop
      vertex 18.5 19 -26.5
      vertex 20.5 19 -13.5
      vertex 18.5 19 -13.5
    endloop
  endfacet
  facet normal 0 -1 -0
    outer loop
      vertex 20.5 19 -13.5
      vertex 18.5 19 -26.5
      vertex 20.5 19 -26.5
    endloop
  endfacet
  facet normal -1 0 0
    outer loop
      vertex -49 13.5 -10
      vertex -49 20 -35
      vertex -49 13.5 -30
    endloop
  endfacet
  facet normal -1 0 0
    outer loop
      vertex -49 20 -35
      vertex -49 -13.5 -30
      vertex -49 13.5 -30
    endloop
  endfacet
  facet normal -1 -0 0
    outer loop
      vertex -49 -13.5 -30
      vertex -49 -20 -35
      vertex -49 -13.5 -10
    endloop
  endfacet
  facet normal -1 0 0
    outer loop
      vertex -49 -20 -35
      vertex -49 -13.5 -30
      vertex -49 20 -35
    endloop
  endfacet
  facet normal -1 0 0
    outer loop
      vertex -49 20 -35
      vertex -49 13.5 -10
      vertex -49 20 35
    endloop
  endfacet
  facet normal -1 0 0
    outer loop
      vertex -49 -13.5 -10
      vertex -49 20 35
      vertex -49 13.5 -10
    endloop
  endfacet
  facet normal -1 0 0
    outer loop
      vertex -49 -13.5 -10
      vertex -49 -20 35
      vertex -49 20 35
    endloop
  endfacet
  facet normal -1 0 0
    outer loop
      vertex -49 -20 35
      vertex -49 -13.5 -10
      vertex -49 -20 -35
    endloop
  endfacet
  facet normal 0 0 1
    outer loop
      vertex -47 20 35
      vertex -49 20 35
      vertex -47 -18 35
    endloop
  endfacet
  facet normal 0 0 1
    outer loop
      vertex 47 -18 35
      vertex 49 15 35
      vertex 47 15 35
    endloop
  endfacet
  facet normal 0 0 1
    outer loop
      vertex 49 15 35
      vertex 47 -18 35
      vertex 49 -20 35
    endloop
  endfacet
  facet normal -0 0 1
    outer loop
      vertex -47 -18 35
      vertex 49 -20 35
      vertex 47 -18 35
    endloop
  endfacet
  facet normal 0 0 1
    outer loop
      vertex -47 -18 35
      vertex -49 -20 35
      vertex 49 -20 35
    endloop
  endfacet
  facet normal 0 0 1
    outer loop
      vertex -49 -20 35
      vertex -47 -18 35
      vertex -49 20 35
    endloop
  endfacet
  facet normal -0 0 1
    outer loop
      vertex -39 20 35
      vertex 49 18 35
      vertex 49 20 35
    endloop
  endfacet
  facet normal 0 0 1
    outer loop
      vertex 49 18 35
      vertex -39 20 35
      vertex -39 18 35
    endloop
  endfacet
  facet normal 1 0 0
    outer loop
      vertex 49 15 35
      vertex 49 -20 35
      vertex 49 15 25
    endloop
  endfacet
  facet normal 1 0 0
    outer loop
      vertex 49 18 25
      vertex 49 20 35
      vertex 49 18 35
    endloop
  endfacet
  facet normal 1 0 0
    outer loop
      vertex 49 20 35
      vertex 49 18 25
      vertex 49 20 -35
    endloop
  endfacet
  facet normal 1 -0 0
    outer loop
      vertex 49 15 25
      vertex 49 20 -35
      vertex 49 18 25
    endloop
  endfacet
  facet normal 1 0 0
    outer loop
      vertex 49 -20 -35
      vertex 49 15 25
      vertex 49 -20 35
    endloop
  endfacet
  facet normal 1 0 0
    outer loop
      vertex 49 15 25
      vertex 49 -20 -35
      vertex 49 20 -35
    endloop
  endfacet
  facet normal 0 1 0
    outer loop
      vertex 49 20 35
      vertex -39 20 25
      vertex -39 20 35
    endloop
  endfacet
  facet normal 0 1 0
    outer loop
      vertex 49 20 35
      vertex 20.5 20 -13.5
      vertex -39 20 25
    endloop
  endfacet
  facet normal 0 1 0
    outer loop
      vertex 20.5 20 -13.5
      vertex 49 20 35
      vertex 39.5 20 -13.5
    endloop
  endfacet
  facet normal 0 1 -0
    outer loop
      vertex 49 20 -35
      vertex 39.5 20 -13.5
      vertex 49 20 35
    endloop
  endfacet
  facet normal 0 1 0
    outer loop
      vertex 39.5 20 -26.5
      vertex 49 20 -35
      vertex 20.5 20 -26.5
    endloop
  endfacet
  facet normal 0 1 0
    outer loop
      vertex 39.5 20 -13.5
      vertex 49 20 -35
      vertex 39.5 20 -26.5
    endloop
  endfacet
  facet normal 0 1 -0
    outer loop
      vertex -47 20 25
      vertex -49 20 35
      vertex -47 20 35
    endloop
  endfacet
  facet normal 0 1 0
    outer loop
      vertex -49 20 -35
      vertex -39 20 25
      vertex 20.5 20 -13.5
    endloop
  endfacet
  facet normal 0 1 0
    outer loop
      vertex -49 20 -35
      vertex 20.5 20 -13.5
      vertex 20.5 20 -26.5
    endloop
  endfacet
  facet normal 0 1 0
    outer loop
      vertex -47 20 25
      vertex -49 20 -35
      vertex -49 20 35
    endloop
  endfacet
  facet normal 0 1 0
    outer loop
      vertex -39 20 25
      vertex -49 20 -35
      vertex -47 20 25
    endloop
  endfacet
  facet normal 0 1 0
    outer loop
      vertex -49 20 -35
      vertex 20.5 20 -26.5
      vertex 49 20 -35
    endloop
  endfacet
  facet normal 0 0 -1
    outer loop
      vertex 49 -20 -35
      vertex 47 -18 -35
      vertex 49 20 -35
    endloop
  endfacet
  facet normal 0 0 -1
    outer loop
      vertex 49 -20 -35
      vertex -47 -18 -35
      vertex 47 -18 -35
    endloop
  endfacet
  facet normal -0 0 -1
    outer loop
      vertex -47 -18 -35
      vertex -49 -20 -35
      vertex -47 18 -35
    endloop
  endfacet
  facet normal 0 0 -1
    outer loop
      vertex -49 -20 -35
      vertex -47 -18 -35
      vertex 49 -20 -35
    endloop
  endfacet
  facet normal 0 0 -1
    outer loop
      vertex 47 18 -35
      vertex 49 20 -35
      vertex 47 -18 -35
    endloop
  endfacet
  facet normal 0 0 -1
    outer loop
      vertex -47 18 -35
      vertex 49 20 -35
      vertex 47 18 -35
    endloop
  endfacet
  facet normal 0 0 -1
    outer loop
      vertex -47 18 -35
      vertex -49 20 -35
      vertex 49 20 -35
    endloop
  endfacet
  facet normal 0 0 -1
    outer loop
      vertex -49 20 -35
      vertex -47 18 -35
      vertex -49 -20 -35
    endloop
  endfacet
  facet normal 0 -1 0
    outer loop
      vertex -49 -20 35
      vertex 20.5 -20 -13.5
      vertex 49 -20 35
    endloop
  endfacet
  facet normal 0 -1 0
    outer loop
      vertex -49 -20 -35
      vertex 20.5 -20 -13.5
      vertex -49 -20 35
    endloop
  endfacet
  facet normal 0 -1 0
    outer loop
      vertex 49 -20 -35
      vertex 20.5 -20 -26.5
      vertex -49 -20 -35
    endloop
  endfacet
  facet normal 0 -1 -0
    outer loop
      vertex 20.5 -20 -13.5
      vertex -49 -20 -35
      vertex 20.5 -20 -26.5
    endloop
  endfacet
  facet normal 0 -1 0
    outer loop
      vertex 39.5 -20 -13.5
      vertex 49 -20 35
      vertex 20.5 -20 -13.5
    endloop
  endfacet
  facet normal 0 -1 0
    outer loop
      vertex 49 -20 -35
      vertex 39.5 -20 -13.5
      vertex 39.5 -20 -26.5
    endloop
  endfacet
  facet normal 0 -1 0
    outer loop
      vertex 39.5 -20 -13.5
      vertex 49 -20 -35
      vertex 49 -20 35
    endloop
  endfacet
  facet normal 0 -1 0
    outer loop
      vertex 20.5 -20 -26.5
      vertex 49 -20 -35
      vertex 39.5 -20 -26.5
    endloop
  endfacet
  facet normal 1 0 0
    outer loop
      vertex -47 20 35
      vertex -47 18 25
      vertex -47 20 25
    endloop
  endfacet
  facet normal 1 0 0
    outer loop
      vertex -47 18 25
      vertex -47 13.5 -8
      vertex -47 18 -35
    endloop
  endfacet
  facet normal 1 0 0
    outer loop
      vertex -47 18 25
      vertex -47 -13.5 -8
      vertex -47 13.5 -8
    endloop
  endfacet
  facet normal 1 -0 0
    outer loop
      vertex -47 -18 35
      vertex -47 18 25
      vertex -47 20 35
    endloop
  endfacet
  facet normal 1 0 0
    outer loop
      vertex -47 -18 -35
      vertex -47 -13.5 -8
      vertex -47 -18 35
    endloop
  endfacet
  facet normal 1 0 0
    outer loop
      vertex -47 18 25
      vertex -47 -18 35
      vertex -47 -13.5 -8
    endloop
  endfacet
  facet normal 1 -0 0
    outer loop
      vertex -47 13.5 -32
      vertex -47 18 -35
      vertex -47 13.5 -8
    endloop
  endfacet
  facet normal 1 -0 0
    outer loop
      vertex -47 -13.5 -32
      vertex -47 18 -35
      vertex -47 13.5 -32
    endloop
  endfacet
  facet normal 1 0 0
    outer loop
      vertex -47 -13.5 -32
      vertex -47 -18 -35
      vertex -47 18 -35
    endloop
  endfacet
  facet normal 1 0 0
    outer loop
      vertex -47 -13.5 -8
      vertex -47 -18 -35
      vertex -47 -13.5 -32
    endloop
  endfacet
  facet normal -1 0 0
    outer loop
      vertex 47 18 -35
      vertex 47 15 25
      vertex 47 18 25
    endloop
  endfacet
  facet normal -1 0 0
    outer loop
      vertex 47 -18 -35
      vertex 47 15 25
      vertex 47 18 -35
    endloop
  endfacet
  facet normal -1 0 0
    outer loop
      vertex 47 -18 35
      vertex 47 15 25
      vertex 47 -18 -35
    endloop
  endfacet
  facet normal -1 0 0
    outer loop
      vertex 47 15 25
      vertex 47 -18 35
      vertex 47 15 35
    endloop
  endfacet
  facet normal 0 -1 0
    outer loop
      vertex 47 18 25
      vertex -39 18 35
      vertex -39 18 25
    endloop
  endfacet
  facet normal 0 -1 0
    outer loop
      vertex -39 18 35
      vertex 47 18 25
      vertex 49 18 35
    endloop
  endfacet
  facet normal 0 -1 -0
    outer loop
      vertex 49 18 35
      vertex 47 18 25
      vertex 49 18 25
    endloop
  endfacet
  facet normal 0 -1 0
    outer loop
      vertex -47 18 -35
      vertex -39 18 25
      vertex -47 18 25
    endloop
  endfacet
  facet normal 0 -1 0
    outer loop
      vertex -39 18 25
      vertex 18.5 18 -13.5
      vertex 47 18 25
    endloop
  endfacet
  facet normal 0 -1 -0
    outer loop
      vertex -39 18 25
      vertex -47 18 -35
      vertex 18.5 18 -13.5
    endloop
  endfacet
  facet normal 0 -1 0
    outer loop
      vertex 47 18 -35
      vertex 18.5 18 -26.5
      vertex -47 18 -35
    endloop
  endfacet
  facet normal 0 -1 -0
    outer loop
      vertex 18.5 18 -13.5
      vertex -47 18 -35
      vertex 18.5 18 -26.5
    endloop
  endfacet
  facet normal 0 -1 0
    outer loop
      vertex 41.5 18 -13.5
      vertex 47 18 25
      vertex 18.5 18 -13.5
    endloop
  endfacet
  facet normal 0 -1 0
    outer loop
      vertex 47 18 -35
      vertex 41.5 18 -13.5
      vertex 41.5 18 -26.5
    endloop
  endfacet
  facet normal 0 -1 0
    outer loop
      vertex 41.5 18 -13.5
      vertex 47 18 -35
      vertex 47 18 25
    endloop
  endfacet
  facet normal 0 -1 0
    outer loop
      vertex 18.5 18 -26.5
      vertex 47 18 -35
      vertex 41.5 18 -26.5
    endloop
  endfacet
  facet normal 0 1 0
    outer loop
      vertex 18.5 -18 -13.5
      vertex 47 -18 35
      vertex 41.5 -18 -13.5
    endloop
  endfacet
  facet normal 0 1 -0
    outer loop
      vertex 47 -18 -35
      vertex 41.5 -18 -13.5
      vertex 47 -18 35
    endloop
  endfacet
  facet normal 0 1 0
    outer loop
      vertex 41.5 -18 -26.5
      vertex 47 -18 -35
      vertex 18.5 -18 -26.5
    endloop
  endfacet
  facet normal 0 1 0
    outer loop
      vertex 41.5 -18 -13.5
      vertex 47 -18 -35
      vertex 41.5 -18 -26.5
    endloop
  endfacet
  facet normal 0 1 0
    outer loop
      vertex 47 -18 35
      vertex 18.5 -18 -13.5
      vertex -47 -18 35
    endloop
  endfacet
  facet normal 0 1 0
    outer loop
      vertex -47 -18 -35
      vertex 18.5 -18 -13.5
      vertex 18.5 -18 -26.5
    endloop
  endfacet
  facet normal 0 1 0
    outer loop
      vertex 18.5 -18 -13.5
      vertex -47 -18 -35
      vertex -47 -18 35
    endloop
  endfacet
  facet normal 0 1 0
    outer loop
      vertex -47 -18 -35
      vertex 18.5 -18 -26.5
      vertex 47 -18 -35
    endloop
  endfacet
  facet normal -1 0 0
    outer loop
      vertex -39 18 25
      vertex -39 20 35
      vertex -39 20 25
    endloop
  endfacet
  facet normal -1 -0 0
    outer loop
      vertex -39 20 35
      vertex -39 18 25
      vertex -39 18 35
    endloop
  endfacet
  facet normal -0 0 1
    outer loop
      vertex -47 20 25
      vertex -39 18 25
      vertex -39 20 25
    endloop
  endfacet
  facet normal 0 0 1
    outer loop
      vertex -39 18 25
      vertex -47 20 25
      vertex -47 18 25
    endloop
  endfacet
  facet normal -0 0 1
    outer loop
      vertex 47 18 25
      vertex 49 15 25
      vertex 49 18 25
    endloop
  endfacet
  facet normal 0 0 1
    outer loop
      vertex 49 15 25
      vertex 47 18 25
      vertex 47 15 25
    endloop
  endfacet
  facet normal 0 1 -0
    outer loop
      vertex 49 15 25
      vertex 47 15 35
      vertex 49 15 35
    endloop
  endfacet
  facet normal 0 1 0
    outer loop
      vertex 47 15 35
      vertex 49 15 25
      vertex 47 15 25
    endloop
  endfacet
endsolid OpenSCAD_Model
