solid OpenSCAD_Model
  facet normal -0.866027 -0.499998 0
    outer loop
      vertex 1.46167 7.65078 0
      vertex 1.29443 7.94046 2
      vertex 1.29443 7.94046 0
    endloop
  endfacet
  facet normal -0.866027 -0.499998 0
    outer loop
      vertex 1.29443 7.94046 2
      vertex 1.46167 7.65078 0
      vertex 1.46167 7.65078 2
    endloop
  endfacet
  facet normal 0.994522 -0.104528 0
    outer loop
      vertex -1.6 7 2
      vertex -1.56504 7.33266 0
      vertex -1.56504 7.33266 2
    endloop
  endfacet
  facet normal 0.994522 -0.104528 0
    outer loop
      vertex -1.56504 7.33266 0
      vertex -1.6 7 2
      vertex -1.6 7 0
    endloop
  endfacet
  facet normal 0.866027 0.499998 0
    outer loop
      vertex -1.29443 6.05954 2
      vertex -1.46167 6.34922 0
      vertex -1.46167 6.34922 2
    endloop
  endfacet
  facet normal 0.866027 0.499998 0
    outer loop
      vertex -1.46167 6.34922 0
      vertex -1.29443 6.05954 2
      vertex -1.29443 6.05954 0
    endloop
  endfacet
  facet normal -0.743144 -0.669132 0
    outer loop
      vertex 1.29443 7.94046 0
      vertex 1.07061 8.18903 2
      vertex 1.07061 8.18903 0
    endloop
  endfacet
  facet normal -0.743144 -0.669132 0
    outer loop
      vertex 1.07061 8.18903 2
      vertex 1.29443 7.94046 0
      vertex 1.29443 7.94046 2
    endloop
  endfacet
  facet normal -0.207909 -0.978148 0
    outer loop
      vertex 0.167245 8.59123 0
      vertex 0.494427 8.52169 2
      vertex 0.167245 8.59123 2
    endloop
  endfacet
  facet normal -0.207909 -0.978148 -0
    outer loop
      vertex 0.494427 8.52169 2
      vertex 0.167245 8.59123 0
      vertex 0.494427 8.52169 0
    endloop
  endfacet
  facet normal -0.406738 -0.913545 0
    outer loop
      vertex 0.494427 8.52169 0
      vertex 0.799999 8.38564 2
      vertex 0.494427 8.52169 2
    endloop
  endfacet
  facet normal -0.406738 -0.913545 -0
    outer loop
      vertex 0.799999 8.38564 2
      vertex 0.494427 8.52169 0
      vertex 0.799999 8.38564 0
    endloop
  endfacet
  facet normal 0.406738 -0.913545 0
    outer loop
      vertex -0.799999 8.38564 0
      vertex -0.494427 8.52169 2
      vertex -0.799999 8.38564 2
    endloop
  endfacet
  facet normal 0.406738 -0.913545 0
    outer loop
      vertex -0.494427 8.52169 2
      vertex -0.799999 8.38564 0
      vertex -0.494427 8.52169 0
    endloop
  endfacet
  facet normal 0.951056 -0.309018 0
    outer loop
      vertex -1.56504 7.33266 2
      vertex -1.46167 7.65078 0
      vertex -1.46167 7.65078 2
    endloop
  endfacet
  facet normal 0.951056 -0.309018 0
    outer loop
      vertex -1.46167 7.65078 0
      vertex -1.56504 7.33266 2
      vertex -1.56504 7.33266 0
    endloop
  endfacet
  facet normal -0.994522 0.104528 0
    outer loop
      vertex 1.56504 6.66734 0
      vertex 1.6 7 2
      vertex 1.6 7 0
    endloop
  endfacet
  facet normal -0.994522 0.104528 0
    outer loop
      vertex 1.6 7 2
      vertex 1.56504 6.66734 0
      vertex 1.56504 6.66734 2
    endloop
  endfacet
  facet normal 0 -1 0
    outer loop
      vertex -0.167245 8.59123 0
      vertex 0.167245 8.59123 2
      vertex -0.167245 8.59123 2
    endloop
  endfacet
  facet normal 0 -1 -0
    outer loop
      vertex 0.167245 8.59123 2
      vertex -0.167245 8.59123 0
      vertex 0.167245 8.59123 0
    endloop
  endfacet
  facet normal -0.587785 -0.809017 0
    outer loop
      vertex 0.799999 8.38564 0
      vertex 1.07061 8.18903 2
      vertex 0.799999 8.38564 2
    endloop
  endfacet
  facet normal -0.587785 -0.809017 -0
    outer loop
      vertex 1.07061 8.18903 2
      vertex 0.799999 8.38564 0
      vertex 1.07061 8.18903 0
    endloop
  endfacet
  facet normal 0.866027 -0.499998 0
    outer loop
      vertex -1.46167 7.65078 2
      vertex -1.29443 7.94046 0
      vertex -1.29443 7.94046 2
    endloop
  endfacet
  facet normal 0.866027 -0.499998 0
    outer loop
      vertex -1.29443 7.94046 0
      vertex -1.46167 7.65078 2
      vertex -1.46167 7.65078 0
    endloop
  endfacet
  facet normal 0.587785 -0.809017 0
    outer loop
      vertex -1.07061 8.18903 0
      vertex -0.799999 8.38564 2
      vertex -1.07061 8.18903 2
    endloop
  endfacet
  facet normal 0.587785 -0.809017 0
    outer loop
      vertex -0.799999 8.38564 2
      vertex -1.07061 8.18903 0
      vertex -0.799999 8.38564 0
    endloop
  endfacet
  facet normal 0.207909 -0.978148 0
    outer loop
      vertex -0.494427 8.52169 0
      vertex -0.167245 8.59123 2
      vertex -0.494427 8.52169 2
    endloop
  endfacet
  facet normal 0.207909 -0.978148 0
    outer loop
      vertex -0.167245 8.59123 2
      vertex -0.494427 8.52169 0
      vertex -0.167245 8.59123 0
    endloop
  endfacet
  facet normal 0.743144 -0.669132 0
    outer loop
      vertex -1.29443 7.94046 2
      vertex -1.07061 8.18903 0
      vertex -1.07061 8.18903 2
    endloop
  endfacet
  facet normal 0.743144 -0.669132 0
    outer loop
      vertex -1.07061 8.18903 0
      vertex -1.29443 7.94046 2
      vertex -1.29443 7.94046 0
    endloop
  endfacet
  facet normal -0.994522 -0.104528 0
    outer loop
      vertex 1.6 7 0
      vertex 1.56504 7.33266 2
      vertex 1.56504 7.33266 0
    endloop
  endfacet
  facet normal -0.994522 -0.104528 0
    outer loop
      vertex 1.56504 7.33266 2
      vertex 1.6 7 0
      vertex 1.6 7 2
    endloop
  endfacet
  facet normal 0.207909 0.978148 -0
    outer loop
      vertex -0.167245 5.40877 0
      vertex -0.494427 5.47831 2
      vertex -0.167245 5.40877 2
    endloop
  endfacet
  facet normal 0.207909 0.978148 0
    outer loop
      vertex -0.494427 5.47831 2
      vertex -0.167245 5.40877 0
      vertex -0.494427 5.47831 0
    endloop
  endfacet
  facet normal 0.994522 0.104528 0
    outer loop
      vertex -1.56504 6.66734 2
      vertex -1.6 7 0
      vertex -1.6 7 2
    endloop
  endfacet
  facet normal 0.994522 0.104528 0
    outer loop
      vertex -1.6 7 0
      vertex -1.56504 6.66734 2
      vertex -1.56504 6.66734 0
    endloop
  endfacet
  facet normal 0.951056 0.309018 0
    outer loop
      vertex -1.46167 6.34922 2
      vertex -1.56504 6.66734 0
      vertex -1.56504 6.66734 2
    endloop
  endfacet
  facet normal 0.951056 0.309018 0
    outer loop
      vertex -1.56504 6.66734 0
      vertex -1.46167 6.34922 2
      vertex -1.46167 6.34922 0
    endloop
  endfacet
  facet normal -0.587785 0.809017 0
    outer loop
      vertex 1.07061 5.81097 0
      vertex 0.799999 5.61436 2
      vertex 1.07061 5.81097 2
    endloop
  endfacet
  facet normal -0.587785 0.809017 0
    outer loop
      vertex 0.799999 5.61436 2
      vertex 1.07061 5.81097 0
      vertex 0.799999 5.61436 0
    endloop
  endfacet
  facet normal -0.951056 -0.309018 0
    outer loop
      vertex 1.56504 7.33266 0
      vertex 1.46167 7.65078 2
      vertex 1.46167 7.65078 0
    endloop
  endfacet
  facet normal -0.951056 -0.309018 0
    outer loop
      vertex 1.46167 7.65078 2
      vertex 1.56504 7.33266 0
      vertex 1.56504 7.33266 2
    endloop
  endfacet
  facet normal -0.951056 0.309018 0
    outer loop
      vertex 1.46167 6.34922 0
      vertex 1.56504 6.66734 2
      vertex 1.56504 6.66734 0
    endloop
  endfacet
  facet normal -0.951056 0.309018 0
    outer loop
      vertex 1.56504 6.66734 2
      vertex 1.46167 6.34922 0
      vertex 1.46167 6.34922 2
    endloop
  endfacet
  facet normal -0.866027 0.499998 0
    outer loop
      vertex 1.29443 6.05954 0
      vertex 1.46167 6.34922 2
      vertex 1.46167 6.34922 0
    endloop
  endfacet
  facet normal -0.866027 0.499998 0
    outer loop
      vertex 1.46167 6.34922 2
      vertex 1.29443 6.05954 0
      vertex 1.29443 6.05954 2
    endloop
  endfacet
  facet normal -0.207909 0.978148 0
    outer loop
      vertex 0.494427 5.47831 0
      vertex 0.167245 5.40877 2
      vertex 0.494427 5.47831 2
    endloop
  endfacet
  facet normal -0.207909 0.978148 0
    outer loop
      vertex 0.167245 5.40877 2
      vertex 0.494427 5.47831 0
      vertex 0.167245 5.40877 0
    endloop
  endfacet
  facet normal -0.406738 0.913545 0
    outer loop
      vertex 0.799999 5.61436 0
      vertex 0.494427 5.47831 2
      vertex 0.799999 5.61436 2
    endloop
  endfacet
  facet normal -0.406738 0.913545 0
    outer loop
      vertex 0.494427 5.47831 2
      vertex 0.799999 5.61436 0
      vertex 0.494427 5.47831 0
    endloop
  endfacet
  facet normal -0.743144 0.669132 0
    outer loop
      vertex 1.07061 5.81097 0
      vertex 1.29443 6.05954 2
      vertex 1.29443 6.05954 0
    endloop
  endfacet
  facet normal -0.743144 0.669132 0
    outer loop
      vertex 1.29443 6.05954 2
      vertex 1.07061 5.81097 0
      vertex 1.07061 5.81097 2
    endloop
  endfacet
  facet normal 0.743144 0.669132 0
    outer loop
      vertex -1.07061 5.81097 2
      vertex -1.29443 6.05954 0
      vertex -1.29443 6.05954 2
    endloop
  endfacet
  facet normal 0.743144 0.669132 0
    outer loop
      vertex -1.29443 6.05954 0
      vertex -1.07061 5.81097 2
      vertex -1.07061 5.81097 0
    endloop
  endfacet
  facet normal 0.406738 0.913545 -0
    outer loop
      vertex -0.494427 5.47831 0
      vertex -0.799999 5.61436 2
      vertex -0.494427 5.47831 2
    endloop
  endfacet
  facet normal 0.406738 0.913545 0
    outer loop
      vertex -0.799999 5.61436 2
      vertex -0.494427 5.47831 0
      vertex -0.799999 5.61436 0
    endloop
  endfacet
  facet normal 0 1 -0
    outer loop
      vertex 0.167245 5.40877 0
      vertex -0.167245 5.40877 2
      vertex 0.167245 5.40877 2
    endloop
  endfacet
  facet normal 0 1 0
    outer loop
      vertex -0.167245 5.40877 2
      vertex 0.167245 5.40877 0
      vertex -0.167245 5.40877 0
    endloop
  endfacet
  facet normal 0.587785 0.809017 -0
    outer loop
      vertex -0.799999 5.61436 0
      vertex -1.07061 5.81097 2
      vertex -0.799999 5.61436 2
    endloop
  endfacet
  facet normal 0.587785 0.809017 0
    outer loop
      vertex -1.07061 5.81097 2
      vertex -0.799999 5.61436 0
      vertex -1.07061 5.81097 0
    endloop
  endfacet
  facet normal -0.866026 -0.5 0
    outer loop
      vertex 21.4617 7.65078 0
      vertex 21.2944 7.94046 2
      vertex 21.2944 7.94046 0
    endloop
  endfacet
  facet normal -0.866026 -0.5 0
    outer loop
      vertex 21.2944 7.94046 2
      vertex 21.4617 7.65078 0
      vertex 21.4617 7.65078 2
    endloop
  endfacet
  facet normal 0.994522 -0.104528 0
    outer loop
      vertex 18.4 7 2
      vertex 18.435 7.33266 0
      vertex 18.435 7.33266 2
    endloop
  endfacet
  facet normal 0.994522 -0.104528 0
    outer loop
      vertex 18.435 7.33266 0
      vertex 18.4 7 2
      vertex 18.4 7 0
    endloop
  endfacet
  facet normal -0.743145 -0.66913 0
    outer loop
      vertex 21.2944 7.94046 0
      vertex 21.0706 8.18903 2
      vertex 21.0706 8.18903 0
    endloop
  endfacet
  facet normal -0.743145 -0.66913 0
    outer loop
      vertex 21.0706 8.18903 2
      vertex 21.2944 7.94046 0
      vertex 21.2944 7.94046 2
    endloop
  endfacet
  facet normal -0.207909 -0.978148 0
    outer loop
      vertex 20.1672 8.59123 0
      vertex 20.4944 8.52169 2
      vertex 20.1672 8.59123 2
    endloop
  endfacet
  facet normal -0.207909 -0.978148 -0
    outer loop
      vertex 20.4944 8.52169 2
      vertex 20.1672 8.59123 0
      vertex 20.4944 8.52169 0
    endloop
  endfacet
  facet normal -0.406738 -0.913545 0
    outer loop
      vertex 20.4944 8.52169 0
      vertex 20.8 8.38564 2
      vertex 20.4944 8.52169 2
    endloop
  endfacet
  facet normal -0.406738 -0.913545 -0
    outer loop
      vertex 20.8 8.38564 2
      vertex 20.4944 8.52169 0
      vertex 20.8 8.38564 0
    endloop
  endfacet
  facet normal 0.406738 -0.913545 0
    outer loop
      vertex 19.2 8.38564 0
      vertex 19.5056 8.52169 2
      vertex 19.2 8.38564 2
    endloop
  endfacet
  facet normal 0.406738 -0.913545 0
    outer loop
      vertex 19.5056 8.52169 2
      vertex 19.2 8.38564 0
      vertex 19.5056 8.52169 0
    endloop
  endfacet
  facet normal 0.951057 -0.309016 0
    outer loop
      vertex 18.435 7.33266 2
      vertex 18.5383 7.65078 0
      vertex 18.5383 7.65078 2
    endloop
  endfacet
  facet normal 0.951057 -0.309016 0
    outer loop
      vertex 18.5383 7.65078 0
      vertex 18.435 7.33266 2
      vertex 18.435 7.33266 0
    endloop
  endfacet
  facet normal -0.994523 0.104522 0
    outer loop
      vertex 21.565 6.66734 0
      vertex 21.6 7 2
      vertex 21.6 7 0
    endloop
  endfacet
  facet normal -0.994523 0.104522 0
    outer loop
      vertex 21.6 7 2
      vertex 21.565 6.66734 0
      vertex 21.565 6.66734 2
    endloop
  endfacet
  facet normal -0.951055 -0.309021 0
    outer loop
      vertex 21.565 7.33266 0
      vertex 21.4617 7.65078 2
      vertex 21.4617 7.65078 0
    endloop
  endfacet
  facet normal -0.951055 -0.309021 0
    outer loop
      vertex 21.4617 7.65078 2
      vertex 21.565 7.33266 0
      vertex 21.565 7.33266 2
    endloop
  endfacet
  facet normal 0 -1 0
    outer loop
      vertex 19.8328 8.59123 0
      vertex 20.1672 8.59123 2
      vertex 19.8328 8.59123 2
    endloop
  endfacet
  facet normal 0 -1 -0
    outer loop
      vertex 20.1672 8.59123 2
      vertex 19.8328 8.59123 0
      vertex 20.1672 8.59123 0
    endloop
  endfacet
  facet normal -0.587785 -0.809017 0
    outer loop
      vertex 20.8 8.38564 0
      vertex 21.0706 8.18903 2
      vertex 20.8 8.38564 2
    endloop
  endfacet
  facet normal -0.587785 -0.809017 -0
    outer loop
      vertex 21.0706 8.18903 2
      vertex 20.8 8.38564 0
      vertex 21.0706 8.18903 0
    endloop
  endfacet
  facet normal 0.866026 -0.5 0
    outer loop
      vertex 18.5383 7.65078 2
      vertex 18.7056 7.94046 0
      vertex 18.7056 7.94046 2
    endloop
  endfacet
  facet normal 0.866026 -0.5 0
    outer loop
      vertex 18.7056 7.94046 0
      vertex 18.5383 7.65078 2
      vertex 18.5383 7.65078 0
    endloop
  endfacet
  facet normal 0.587782 -0.809019 0
    outer loop
      vertex 18.9294 8.18903 0
      vertex 19.2 8.38564 2
      vertex 18.9294 8.18903 2
    endloop
  endfacet
  facet normal 0.587782 -0.809019 0
    outer loop
      vertex 19.2 8.38564 2
      vertex 18.9294 8.18903 0
      vertex 19.2 8.38564 0
    endloop
  endfacet
  facet normal 0.20791 -0.978148 0
    outer loop
      vertex 19.5056 8.52169 0
      vertex 19.8328 8.59123 2
      vertex 19.5056 8.52169 2
    endloop
  endfacet
  facet normal 0.20791 -0.978148 0
    outer loop
      vertex 19.8328 8.59123 2
      vertex 19.5056 8.52169 0
      vertex 19.8328 8.59123 0
    endloop
  endfacet
  facet normal 0.743145 -0.66913 0
    outer loop
      vertex 18.7056 7.94046 2
      vertex 18.9294 8.18903 0
      vertex 18.9294 8.18903 2
    endloop
  endfacet
  facet normal 0.743145 -0.66913 0
    outer loop
      vertex 18.9294 8.18903 0
      vertex 18.7056 7.94046 2
      vertex 18.7056 7.94046 0
    endloop
  endfacet
  facet normal -0.994523 -0.104522 0
    outer loop
      vertex 21.6 7 0
      vertex 21.565 7.33266 2
      vertex 21.565 7.33266 0
    endloop
  endfacet
  facet normal -0.994523 -0.104522 0
    outer loop
      vertex 21.565 7.33266 2
      vertex 21.6 7 0
      vertex 21.6 7 2
    endloop
  endfacet
  facet normal 0.994522 0.104528 0
    outer loop
      vertex 18.435 6.66734 2
      vertex 18.4 7 0
      vertex 18.4 7 2
    endloop
  endfacet
  facet normal 0.994522 0.104528 0
    outer loop
      vertex 18.4 7 0
      vertex 18.435 6.66734 2
      vertex 18.435 6.66734 0
    endloop
  endfacet
  facet normal -0.587785 0.809017 0
    outer loop
      vertex 21.0706 5.81097 0
      vertex 20.8 5.61436 2
      vertex 21.0706 5.81097 2
    endloop
  endfacet
  facet normal -0.587785 0.809017 0
    outer loop
      vertex 20.8 5.61436 2
      vertex 21.0706 5.81097 0
      vertex 20.8 5.61436 0
    endloop
  endfacet
  facet normal -0.866026 0.5 0
    outer loop
      vertex 21.2944 6.05954 0
      vertex 21.4617 6.34922 2
      vertex 21.4617 6.34922 0
    endloop
  endfacet
  facet normal -0.866026 0.5 0
    outer loop
      vertex 21.4617 6.34922 2
      vertex 21.2944 6.05954 0
      vertex 21.2944 6.05954 2
    endloop
  endfacet
  facet normal 0 1 -0
    outer loop
      vertex 20.1672 5.40877 0
      vertex 19.8328 5.40877 2
      vertex 20.1672 5.40877 2
    endloop
  endfacet
  facet normal 0 1 0
    outer loop
      vertex 19.8328 5.40877 2
      vertex 20.1672 5.40877 0
      vertex 19.8328 5.40877 0
    endloop
  endfacet
  facet normal -0.207909 0.978148 0
    outer loop
      vertex 20.4944 5.47831 0
      vertex 20.1672 5.40877 2
      vertex 20.4944 5.47831 2
    endloop
  endfacet
  facet normal -0.207909 0.978148 0
    outer loop
      vertex 20.1672 5.40877 2
      vertex 20.4944 5.47831 0
      vertex 20.1672 5.40877 0
    endloop
  endfacet
  facet normal -0.406738 0.913545 0
    outer loop
      vertex 20.8 5.61436 0
      vertex 20.4944 5.47831 2
      vertex 20.8 5.61436 2
    endloop
  endfacet
  facet normal -0.406738 0.913545 0
    outer loop
      vertex 20.4944 5.47831 2
      vertex 20.8 5.61436 0
      vertex 20.4944 5.47831 0
    endloop
  endfacet
  facet normal -0.951055 0.309021 0
    outer loop
      vertex 21.4617 6.34922 0
      vertex 21.565 6.66734 2
      vertex 21.565 6.66734 0
    endloop
  endfacet
  facet normal -0.951055 0.309021 0
    outer loop
      vertex 21.565 6.66734 2
      vertex 21.4617 6.34922 0
      vertex 21.4617 6.34922 2
    endloop
  endfacet
  facet normal 0.866026 0.5 0
    outer loop
      vertex 18.7056 6.05954 2
      vertex 18.5383 6.34922 0
      vertex 18.5383 6.34922 2
    endloop
  endfacet
  facet normal 0.866026 0.5 0
    outer loop
      vertex 18.5383 6.34922 0
      vertex 18.7056 6.05954 2
      vertex 18.7056 6.05954 0
    endloop
  endfacet
  facet normal 0.951057 0.309016 0
    outer loop
      vertex 18.5383 6.34922 2
      vertex 18.435 6.66734 0
      vertex 18.435 6.66734 2
    endloop
  endfacet
  facet normal 0.951057 0.309016 0
    outer loop
      vertex 18.435 6.66734 0
      vertex 18.5383 6.34922 2
      vertex 18.5383 6.34922 0
    endloop
  endfacet
  facet normal 0.743145 0.66913 0
    outer loop
      vertex 18.9294 5.81097 2
      vertex 18.7056 6.05954 0
      vertex 18.7056 6.05954 2
    endloop
  endfacet
  facet normal 0.743145 0.66913 0
    outer loop
      vertex 18.7056 6.05954 0
      vertex 18.9294 5.81097 2
      vertex 18.9294 5.81097 0
    endloop
  endfacet
  facet normal -0.743145 0.66913 0
    outer loop
      vertex 21.0706 5.81097 0
      vertex 21.2944 6.05954 2
      vertex 21.2944 6.05954 0
    endloop
  endfacet
  facet normal -0.743145 0.66913 0
    outer loop
      vertex 21.2944 6.05954 2
      vertex 21.0706 5.81097 0
      vertex 21.0706 5.81097 2
    endloop
  endfacet
  facet normal 0.587782 0.809019 -0
    outer loop
      vertex 19.2 5.61436 0
      vertex 18.9294 5.81097 2
      vertex 19.2 5.61436 2
    endloop
  endfacet
  facet normal 0.587782 0.809019 0
    outer loop
      vertex 18.9294 5.81097 2
      vertex 19.2 5.61436 0
      vertex 18.9294 5.81097 0
    endloop
  endfacet
  facet normal 0.406738 0.913545 -0
    outer loop
      vertex 19.5056 5.47831 0
      vertex 19.2 5.61436 2
      vertex 19.5056 5.47831 2
    endloop
  endfacet
  facet normal 0.406738 0.913545 0
    outer loop
      vertex 19.2 5.61436 2
      vertex 19.5056 5.47831 0
      vertex 19.2 5.61436 0
    endloop
  endfacet
  facet normal 0.20791 0.978148 -0
    outer loop
      vertex 19.8328 5.40877 0
      vertex 19.5056 5.47831 2
      vertex 19.8328 5.40877 2
    endloop
  endfacet
  facet normal 0.20791 0.978148 0
    outer loop
      vertex 19.5056 5.47831 2
      vertex 19.8328 5.40877 0
      vertex 19.5056 5.47831 0
    endloop
  endfacet
  facet normal 1 -0 0
    outer loop
      vertex 23 0 0.699437
      vertex 23 14 0
      vertex 23 14 0.699437
    endloop
  endfacet
  facet normal 1 0 0
    outer loop
      vertex 23 14 0
      vertex 23 0 0.699437
      vertex 23 0 0
    endloop
  endfacet
  facet normal 0.994522 -0.104529 0
    outer loop
      vertex 22.9344 -0.623734 0
      vertex 23 0 0.699437
      vertex 22.9344 -0.623734 0.840025
    endloop
  endfacet
  facet normal 0.994522 -0.104529 0
    outer loop
      vertex 23 0 0.699437
      vertex 22.9344 -0.623734 0
      vertex 23 0 0
    endloop
  endfacet
  facet normal -0.406737 -0.913545 0
    outer loop
      vertex -0.927051 -2.85317 0
      vertex -1.5 -2.59808 4.22138
      vertex -1.5 -2.59808 0
    endloop
  endfacet
  facet normal -0.406737 -0.913545 0
    outer loop
      vertex -1.5 -2.59808 4.22138
      vertex -0.927051 -2.85317 0
      vertex -0.927051 -2.85317 5.45007
    endloop
  endfacet
  facet normal 0.207911 -0.978148 0
    outer loop
      vertex 20.3136 -2.98357 0
      vertex 20.9271 -2.85317 5.14489
      vertex 20.3136 -2.98357 6.46047
    endloop
  endfacet
  facet normal 0.207911 -0.978148 0
    outer loop
      vertex 20.9271 -2.85317 5.14489
      vertex 20.3136 -2.98357 0
      vertex 20.9271 -2.85317 0
    endloop
  endfacet
  facet normal 0.994522 0.104529 0
    outer loop
      vertex 23 14 0.699437
      vertex 22.9344 14.6237 0
      vertex 22.9344 14.6237 0.840025
    endloop
  endfacet
  facet normal 0.994522 0.104529 0
    outer loop
      vertex 22.9344 14.6237 0
      vertex 23 14 0.699437
      vertex 23 14 0
    endloop
  endfacet
  facet normal 0 0 1
    outer loop
      vertex 17.2642 16.9836 13
      vertex 17 15 13
      vertex 17.2642 15 13
    endloop
  endfacet
  facet normal 0 0 1
    outer loop
      vertex 17 15 13
      vertex 2.8 15 13
      vertex 17 -1 13
    endloop
  endfacet
  facet normal -0 0 1
    outer loop
      vertex 2.59354 16.9836 13
      vertex 17 15 13
      vertex 17.2642 16.9836 13
    endloop
  endfacet
  facet normal 0 0 1
    outer loop
      vertex 17 15 13
      vertex 2.59354 16.9836 13
      vertex 2.8 15 13
    endloop
  endfacet
  facet normal 0 0 1
    outer loop
      vertex 2.8 15 13
      vertex 2.59354 16.9836 13
      vertex 2.59354 15 13
    endloop
  endfacet
  facet normal -0 0 1
    outer loop
      vertex 17 -1 13
      vertex 17.2642 -2.98357 13
      vertex 17.2642 -1 13
    endloop
  endfacet
  facet normal 0 0 1
    outer loop
      vertex 2.8 -1 13
      vertex 17 -1 13
      vertex 2.8 15 13
    endloop
  endfacet
  facet normal 0 0 1
    outer loop
      vertex 2.59354 -2.98357 13
      vertex 17 -1 13
      vertex 2.8 -1 13
    endloop
  endfacet
  facet normal 0 0 1
    outer loop
      vertex 2.59354 -2.98357 13
      vertex 2.8 -1 13
      vertex 2.59354 -1 13
    endloop
  endfacet
  facet normal 0 0 1
    outer loop
      vertex 17 -1 13
      vertex 2.59354 -2.98357 13
      vertex 17.2642 -2.98357 13
    endloop
  endfacet
  facet normal 0.866027 -0.499997 0
    outer loop
      vertex 22.4271 -1.76336 0
      vertex 22.7406 -1.22021 1.25565
      vertex 22.4271 -1.76336 1.92813
    endloop
  endfacet
  facet normal 0.866027 -0.499997 0
    outer loop
      vertex 22.7406 -1.22021 1.25565
      vertex 22.4271 -1.76336 0
      vertex 22.7406 -1.22021 0
    endloop
  endfacet
  facet normal 0.866027 0.499997 0
    outer loop
      vertex 22.7406 15.2202 1.25565
      vertex 22.4271 15.7634 0
      vertex 22.4271 15.7634 1.92813
    endloop
  endfacet
  facet normal 0.866027 0.499997 0
    outer loop
      vertex 22.4271 15.7634 0
      vertex 22.7406 15.2202 1.25565
      vertex 22.7406 15.2202 0
    endloop
  endfacet
  facet normal 0.587785 0.809017 0
    outer loop
      vertex 21.5 16.5981 0
      vertex 22.0074 16.2294 2.82809
      vertex 22.0074 16.2294 0
    endloop
  endfacet
  facet normal 0.587785 0.809017 0
    outer loop
      vertex 22.0074 16.2294 2.82809
      vertex 21.5 16.5981 0
      vertex 21.5 16.5981 3.9162
    endloop
  endfacet
  facet normal -0.994522 0.104529 0
    outer loop
      vertex -3 14 1.00462
      vertex -2.93444 14.6237 0
      vertex -3 14 0
    endloop
  endfacet
  facet normal -0.994522 0.104529 0
    outer loop
      vertex -2.93444 14.6237 0
      vertex -3 14 1.00462
      vertex -2.93444 14.6237 1.14521
    endloop
  endfacet
  facet normal -1 0 0
    outer loop
      vertex -3 0 0
      vertex -3 14 1.00462
      vertex -3 14 0
    endloop
  endfacet
  facet normal -1 -0 0
    outer loop
      vertex -3 14 1.00462
      vertex -3 0 0
      vertex -3 0 1.00462
    endloop
  endfacet
  facet normal -0.743145 0.66913 0
    outer loop
      vertex -2.42705 15.7634 2.23331
      vertex -2.00739 16.2294 0
      vertex -2.42705 15.7634 0
    endloop
  endfacet
  facet normal -0.743145 0.66913 0
    outer loop
      vertex -2.00739 16.2294 0
      vertex -2.42705 15.7634 2.23331
      vertex -2.00739 16.2294 3.13328
    endloop
  endfacet
  facet normal 0 -1 0
    outer loop
      vertex 2.59354 -2.98357 13
      vertex 9.85366 -2.98357 7.39233
      vertex 17.2642 -2.98357 13
    endloop
  endfacet
  facet normal 0 -1 0
    outer loop
      vertex 2.59354 -2.98357 13
      vertex 9.56738 -2.98357 7.33148
      vertex 9.85366 -2.98357 7.39233
    endloop
  endfacet
  facet normal 0 -1 0
    outer loop
      vertex 2.59354 -2.98357 13
      vertex 9.3 -2.98357 7.21243
      vertex 9.56738 -2.98357 7.33148
    endloop
  endfacet
  facet normal 0 -1 0
    outer loop
      vertex 2.59354 -2.98357 13
      vertex 9.06322 -2.98357 7.0404
      vertex 9.3 -2.98357 7.21243
    endloop
  endfacet
  facet normal 0 -1 0
    outer loop
      vertex 2.59354 -2.98357 13
      vertex 8.86738 -2.98357 6.8229
      vertex 9.06322 -2.98357 7.0404
    endloop
  endfacet
  facet normal 0 -1 0
    outer loop
      vertex 8.72104 -2.98357 6.56943
      vertex 2.59354 -2.98357 13
      vertex -0.313585 -2.98357 6.76565
    endloop
  endfacet
  facet normal 0 -1 0
    outer loop
      vertex 2.59354 -2.98357 13
      vertex 8.72104 -2.98357 6.56943
      vertex 8.86738 -2.98357 6.8229
    endloop
  endfacet
  facet normal 0 -1 0
    outer loop
      vertex -0.313585 -2.98357 6.76565
      vertex 8.63059 -2.98357 6.29108
      vertex 8.72104 -2.98357 6.56943
    endloop
  endfacet
  facet normal 0 -1 0
    outer loop
      vertex -0.313585 -2.98357 6.76565
      vertex 8.62854 -2.98357 6.27151
      vertex 8.63059 -2.98357 6.29108
    endloop
  endfacet
  facet normal 0 -1 0
    outer loop
      vertex -0.313585 -2.98357 6.76565
      vertex 8.6 -2.98357 6
      vertex 8.62854 -2.98357 6.27151
    endloop
  endfacet
  facet normal 0 -1 0
    outer loop
      vertex -0.313585 -2.98357 6.76565
      vertex 8.60206 -2.98357 5.98043
      vertex 8.6 -2.98357 6
    endloop
  endfacet
  facet normal 0 -1 0
    outer loop
      vertex -0.313585 -2.98357 6.76565
      vertex 8.63059 -2.98357 5.70892
      vertex 8.60206 -2.98357 5.98043
    endloop
  endfacet
  facet normal 0 -1 0
    outer loop
      vertex -0.313585 -2.98357 6.76565
      vertex 8.72104 -2.98357 5.43057
      vertex 8.63059 -2.98357 5.70892
    endloop
  endfacet
  facet normal 0 -1 0
    outer loop
      vertex -0.313585 -2.98357 0
      vertex 8.72104 -2.98357 5.43057
      vertex -0.313585 -2.98357 6.76565
    endloop
  endfacet
  facet normal 0 -1 -0
    outer loop
      vertex 8.72104 -2.98357 5.43057
      vertex -0.313585 -2.98357 0
      vertex 8.86738 -2.98357 5.1771
    endloop
  endfacet
  facet normal 0 -1 -0
    outer loop
      vertex 8.86738 -2.98357 5.1771
      vertex -0.313585 -2.98357 0
      vertex 9.06322 -2.98357 4.9596
    endloop
  endfacet
  facet normal 0 -1 -0
    outer loop
      vertex 9.06322 -2.98357 4.9596
      vertex -0.313585 -2.98357 0
      vertex 9.3 -2.98357 4.78756
    endloop
  endfacet
  facet normal 0 -1 -0
    outer loop
      vertex 9.3 -2.98357 4.78756
      vertex -0.313585 -2.98357 0
      vertex 9.56738 -2.98357 4.66852
    endloop
  endfacet
  facet normal 0 -1 -0
    outer loop
      vertex 9.85366 -2.98357 4.60767
      vertex -0.313585 -2.98357 0
      vertex 10.1463 -2.98357 4.60767
    endloop
  endfacet
  facet normal 0 -1 -0
    outer loop
      vertex 9.56738 -2.98357 4.66852
      vertex -0.313585 -2.98357 0
      vertex 9.85366 -2.98357 4.60767
    endloop
  endfacet
  facet normal 0 -1 0
    outer loop
      vertex 10.1463 -2.98357 7.39233
      vertex 17.2642 -2.98357 13
      vertex 9.85366 -2.98357 7.39233
    endloop
  endfacet
  facet normal 0 -1 0
    outer loop
      vertex 10.4326 -2.98357 7.33148
      vertex 17.2642 -2.98357 13
      vertex 10.1463 -2.98357 7.39233
    endloop
  endfacet
  facet normal 0 -1 0
    outer loop
      vertex 10.7 -2.98357 7.21243
      vertex 17.2642 -2.98357 13
      vertex 10.4326 -2.98357 7.33148
    endloop
  endfacet
  facet normal 0 -1 0
    outer loop
      vertex 10.9368 -2.98357 7.0404
      vertex 17.2642 -2.98357 13
      vertex 10.7 -2.98357 7.21243
    endloop
  endfacet
  facet normal 0 -1 0
    outer loop
      vertex 11.1326 -2.98357 6.8229
      vertex 17.2642 -2.98357 13
      vertex 10.9368 -2.98357 7.0404
    endloop
  endfacet
  facet normal 0 -1 0
    outer loop
      vertex 11.279 -2.98357 6.56943
      vertex 17.2642 -2.98357 13
      vertex 11.1326 -2.98357 6.8229
    endloop
  endfacet
  facet normal 0 -1 0
    outer loop
      vertex 11.279 -2.98357 6.56943
      vertex 20.3136 -2.98357 6.46047
      vertex 17.2642 -2.98357 13
    endloop
  endfacet
  facet normal 0 -1 0
    outer loop
      vertex 11.3694 -2.98357 6.29108
      vertex 20.3136 -2.98357 6.46047
      vertex 11.279 -2.98357 6.56943
    endloop
  endfacet
  facet normal 0 -1 0
    outer loop
      vertex 11.4 -2.98357 6
      vertex 20.3136 -2.98357 6.46047
      vertex 11.3694 -2.98357 6.29108
    endloop
  endfacet
  facet normal 0 -1 0
    outer loop
      vertex 11.3694 -2.98357 5.70892
      vertex 20.3136 -2.98357 6.46047
      vertex 11.4 -2.98357 6
    endloop
  endfacet
  facet normal 0 -1 0
    outer loop
      vertex 11.279 -2.98357 5.43057
      vertex 20.3136 -2.98357 6.46047
      vertex 11.3694 -2.98357 5.70892
    endloop
  endfacet
  facet normal 0 -1 0
    outer loop
      vertex 20.3136 -2.98357 0
      vertex 11.279 -2.98357 5.43057
      vertex 11.1326 -2.98357 5.1771
    endloop
  endfacet
  facet normal 0 -1 0
    outer loop
      vertex 20.3136 -2.98357 0
      vertex 11.1326 -2.98357 5.1771
      vertex 10.9368 -2.98357 4.9596
    endloop
  endfacet
  facet normal 0 -1 0
    outer loop
      vertex 20.3136 -2.98357 0
      vertex 10.9368 -2.98357 4.9596
      vertex 10.7 -2.98357 4.78756
    endloop
  endfacet
  facet normal 0 -1 0
    outer loop
      vertex 20.3136 -2.98357 0
      vertex 10.7 -2.98357 4.78756
      vertex 10.4326 -2.98357 4.66852
    endloop
  endfacet
  facet normal 0 -1 0
    outer loop
      vertex 20.3136 -2.98357 0
      vertex 10.4326 -2.98357 4.66852
      vertex 10.1463 -2.98357 4.60767
    endloop
  endfacet
  facet normal 0 -1 0
    outer loop
      vertex 20.3136 -2.98357 0
      vertex 10.1463 -2.98357 4.60767
      vertex -0.313585 -2.98357 0
    endloop
  endfacet
  facet normal 0 -1 0
    outer loop
      vertex 11.279 -2.98357 5.43057
      vertex 20.3136 -2.98357 0
      vertex 20.3136 -2.98357 6.46047
    endloop
  endfacet
  facet normal -0.406736 0.913546 0
    outer loop
      vertex -0.927051 16.8532 0
      vertex -1.5 16.5981 4.22138
      vertex -0.927051 16.8532 5.45007
    endloop
  endfacet
  facet normal -0.406736 0.913546 0
    outer loop
      vertex -1.5 16.5981 4.22138
      vertex -0.927051 16.8532 0
      vertex -1.5 16.5981 0
    endloop
  endfacet
  facet normal 0.406736 0.913546 0
    outer loop
      vertex 20.9271 16.8532 0
      vertex 21.5 16.5981 3.9162
      vertex 21.5 16.5981 0
    endloop
  endfacet
  facet normal 0.406736 0.913546 0
    outer loop
      vertex 21.5 16.5981 3.9162
      vertex 20.9271 16.8532 0
      vertex 20.9271 16.8532 5.14489
    endloop
  endfacet
  facet normal -0.587784 0.809018 0
    outer loop
      vertex -1.5 16.5981 0
      vertex -2.00739 16.2294 3.13328
      vertex -1.5 16.5981 4.22138
    endloop
  endfacet
  facet normal -0.587784 0.809018 0
    outer loop
      vertex -2.00739 16.2294 3.13328
      vertex -1.5 16.5981 0
      vertex -2.00739 16.2294 0
    endloop
  endfacet
  facet normal 0 0 -1
    outer loop
      vertex 20.3136 -2.98357 0
      vertex 23 0 0
      vertex 22.9344 -0.623734 0
    endloop
  endfacet
  facet normal 0 0 -1
    outer loop
      vertex 23 0 0
      vertex 21.6 7 0
      vertex 23 14 0
    endloop
  endfacet
  facet normal 0 0 -1
    outer loop
      vertex 20.3136 -2.98357 0
      vertex 22.9344 -0.623734 0
      vertex 22.7406 -1.22021 0
    endloop
  endfacet
  facet normal 0 0 -1
    outer loop
      vertex 21.565 7.33266 0
      vertex 23 14 0
      vertex 21.6 7 0
    endloop
  endfacet
  facet normal 0 0 -1
    outer loop
      vertex 20.3136 -2.98357 0
      vertex 22.7406 -1.22021 0
      vertex 22.4271 -1.76336 0
    endloop
  endfacet
  facet normal 0 0 -1
    outer loop
      vertex 21.4617 7.65078 0
      vertex 23 14 0
      vertex 21.565 7.33266 0
    endloop
  endfacet
  facet normal 0 0 -1
    outer loop
      vertex 20.3136 -2.98357 0
      vertex 22.4271 -1.76336 0
      vertex 22.0074 -2.22943 0
    endloop
  endfacet
  facet normal 0 0 -1
    outer loop
      vertex 21.2944 7.94046 0
      vertex 23 14 0
      vertex 21.4617 7.65078 0
    endloop
  endfacet
  facet normal 0 0 -1
    outer loop
      vertex 21.0706 8.18903 0
      vertex 23 14 0
      vertex 21.2944 7.94046 0
    endloop
  endfacet
  facet normal 0 0 -1
    outer loop
      vertex 23 0 0
      vertex 21.565 6.66734 0
      vertex 21.6 7 0
    endloop
  endfacet
  facet normal 0 0 -1
    outer loop
      vertex 20.3136 -2.98357 0
      vertex 22.0074 -2.22943 0
      vertex 21.5 -2.59808 0
    endloop
  endfacet
  facet normal 0 0 -1
    outer loop
      vertex 23 0 0
      vertex 21.4617 6.34922 0
      vertex 21.565 6.66734 0
    endloop
  endfacet
  facet normal 0 0 -1
    outer loop
      vertex 23 0 0
      vertex 21.2944 6.05954 0
      vertex 21.4617 6.34922 0
    endloop
  endfacet
  facet normal 0 0 -1
    outer loop
      vertex 23 0 0
      vertex 21.0706 5.81097 0
      vertex 21.2944 6.05954 0
    endloop
  endfacet
  facet normal 0 0 -1
    outer loop
      vertex 20.3136 -2.98357 0
      vertex 21.5 -2.59808 0
      vertex 20.9271 -2.85317 0
    endloop
  endfacet
  facet normal 0 0 -1
    outer loop
      vertex 23 0 0
      vertex 20.8 5.61436 0
      vertex 21.0706 5.81097 0
    endloop
  endfacet
  facet normal 0 0 -1
    outer loop
      vertex 23 0 0
      vertex 20.4944 5.47831 0
      vertex 20.8 5.61436 0
    endloop
  endfacet
  facet normal -0 0 -1
    outer loop
      vertex 23 0 0
      vertex 20.3136 -2.98357 0
      vertex 19.8328 5.40877 0
    endloop
  endfacet
  facet normal 0 0 -1
    outer loop
      vertex 23 0 0
      vertex 20.1672 5.40877 0
      vertex 20.4944 5.47831 0
    endloop
  endfacet
  facet normal 0 0 -1
    outer loop
      vertex 23 0 0
      vertex 19.8328 5.40877 0
      vertex 20.1672 5.40877 0
    endloop
  endfacet
  facet normal 0 0 -1
    outer loop
      vertex 20.3136 -2.98357 0
      vertex 19.5056 5.47831 0
      vertex 19.8328 5.40877 0
    endloop
  endfacet
  facet normal 0 0 -1
    outer loop
      vertex 20.3136 -2.98357 0
      vertex 19.2 5.61436 0
      vertex 19.5056 5.47831 0
    endloop
  endfacet
  facet normal 0 0 -1
    outer loop
      vertex 20.3136 -2.98357 0
      vertex 18.9294 5.81097 0
      vertex 19.2 5.61436 0
    endloop
  endfacet
  facet normal 0 0 -1
    outer loop
      vertex 20.3136 -2.98357 0
      vertex 18.7056 6.05954 0
      vertex 18.9294 5.81097 0
    endloop
  endfacet
  facet normal 0 0 -1
    outer loop
      vertex 1.29443 6.05954 0
      vertex 18.7056 6.05954 0
      vertex 20.3136 -2.98357 0
    endloop
  endfacet
  facet normal 0 0 -1
    outer loop
      vertex 18.7056 6.05954 0
      vertex 1.29443 6.05954 0
      vertex 18.5383 6.34922 0
    endloop
  endfacet
  facet normal 0 0 -1
    outer loop
      vertex 18.435 6.66734 0
      vertex 1.6 7 0
      vertex 18.4 7 0
    endloop
  endfacet
  facet normal 0 -0 -1
    outer loop
      vertex 1.46167 6.34922 0
      vertex 18.5383 6.34922 0
      vertex 1.29443 6.05954 0
    endloop
  endfacet
  facet normal 0 0 -1
    outer loop
      vertex 18.435 6.66734 0
      vertex 1.56504 6.66734 0
      vertex 1.6 7 0
    endloop
  endfacet
  facet normal -0 0 -1
    outer loop
      vertex 18.435 6.66734 0
      vertex 1.46167 6.34922 0
      vertex 1.56504 6.66734 0
    endloop
  endfacet
  facet normal 0 0 -1
    outer loop
      vertex 18.5383 6.34922 0
      vertex 1.46167 6.34922 0
      vertex 18.435 6.66734 0
    endloop
  endfacet
  facet normal 0 0 -1
    outer loop
      vertex -0.313585 -2.98357 0
      vertex 1.29443 6.05954 0
      vertex 20.3136 -2.98357 0
    endloop
  endfacet
  facet normal 0 0 -1
    outer loop
      vertex 1.29443 6.05954 0
      vertex -0.313585 -2.98357 0
      vertex 1.07061 5.81097 0
    endloop
  endfacet
  facet normal 0 0 -1
    outer loop
      vertex 1.07061 5.81097 0
      vertex -0.313585 -2.98357 0
      vertex 0.799999 5.61436 0
    endloop
  endfacet
  facet normal 0 0 -1
    outer loop
      vertex 0.799999 5.61436 0
      vertex -0.313585 -2.98357 0
      vertex 0.494427 5.47831 0
    endloop
  endfacet
  facet normal 0 0 -1
    outer loop
      vertex 0.494427 5.47831 0
      vertex -0.313585 -2.98357 0
      vertex 0.167245 5.40877 0
    endloop
  endfacet
  facet normal 0 0 -1
    outer loop
      vertex -3 0 0
      vertex 0.167245 5.40877 0
      vertex -0.313585 -2.98357 0
    endloop
  endfacet
  facet normal -0 0 -1
    outer loop
      vertex 0.167245 5.40877 0
      vertex -3 0 0
      vertex -0.167245 5.40877 0
    endloop
  endfacet
  facet normal -0 0 -1
    outer loop
      vertex -0.167245 5.40877 0
      vertex -3 0 0
      vertex -0.494427 5.47831 0
    endloop
  endfacet
  facet normal 0 0 -1
    outer loop
      vertex -3 0 0
      vertex -0.313585 -2.98357 0
      vertex -0.927051 -2.85317 0
    endloop
  endfacet
  facet normal -0 0 -1
    outer loop
      vertex -0.494427 5.47831 0
      vertex -3 0 0
      vertex -0.799999 5.61436 0
    endloop
  endfacet
  facet normal -0 0 -1
    outer loop
      vertex -0.799999 5.61436 0
      vertex -3 0 0
      vertex -1.07061 5.81097 0
    endloop
  endfacet
  facet normal -0 0 -1
    outer loop
      vertex -1.07061 5.81097 0
      vertex -3 0 0
      vertex -1.29443 6.05954 0
    endloop
  endfacet
  facet normal 0 0 -1
    outer loop
      vertex -3 0 0
      vertex -0.927051 -2.85317 0
      vertex -1.5 -2.59808 0
    endloop
  endfacet
  facet normal -0 0 -1
    outer loop
      vertex -1.29443 6.05954 0
      vertex -3 0 0
      vertex -1.46167 6.34922 0
    endloop
  endfacet
  facet normal -0 0 -1
    outer loop
      vertex -1.46167 6.34922 0
      vertex -3 0 0
      vertex -1.56504 6.66734 0
    endloop
  endfacet
  facet normal 0 0 -1
    outer loop
      vertex -3 0 0
      vertex -1.5 -2.59808 0
      vertex -2.00739 -2.22943 0
    endloop
  endfacet
  facet normal 0 0 -1
    outer loop
      vertex 20.8 8.38564 0
      vertex 23 14 0
      vertex 21.0706 8.18903 0
    endloop
  endfacet
  facet normal 0 0 -1
    outer loop
      vertex 20.4944 8.52169 0
      vertex 23 14 0
      vertex 20.8 8.38564 0
    endloop
  endfacet
  facet normal 0 0 -1
    outer loop
      vertex 20.1672 8.59123 0
      vertex 23 14 0
      vertex 20.4944 8.52169 0
    endloop
  endfacet
  facet normal 0 0 -1
    outer loop
      vertex 19.8328 8.59123 0
      vertex 23 14 0
      vertex 20.1672 8.59123 0
    endloop
  endfacet
  facet normal 0 -0 -1
    outer loop
      vertex 20.3136 16.9836 0
      vertex 23 14 0
      vertex 19.8328 8.59123 0
    endloop
  endfacet
  facet normal 0 0 -1
    outer loop
      vertex 23 14 0
      vertex 20.3136 16.9836 0
      vertex 22.9344 14.6237 0
    endloop
  endfacet
  facet normal 0 0 -1
    outer loop
      vertex 22.9344 14.6237 0
      vertex 20.3136 16.9836 0
      vertex 22.7406 15.2202 0
    endloop
  endfacet
  facet normal 0 0 -1
    outer loop
      vertex 22.7406 15.2202 0
      vertex 20.3136 16.9836 0
      vertex 22.4271 15.7634 0
    endloop
  endfacet
  facet normal 0 0 -1
    outer loop
      vertex 22.4271 15.7634 0
      vertex 20.3136 16.9836 0
      vertex 22.0074 16.2294 0
    endloop
  endfacet
  facet normal 0 0 -1
    outer loop
      vertex 22.0074 16.2294 0
      vertex 20.3136 16.9836 0
      vertex 21.5 16.5981 0
    endloop
  endfacet
  facet normal 0 0 -1
    outer loop
      vertex 21.5 16.5981 0
      vertex 20.3136 16.9836 0
      vertex 20.9271 16.8532 0
    endloop
  endfacet
  facet normal 0 0 -1
    outer loop
      vertex 19.5056 8.52169 0
      vertex 20.3136 16.9836 0
      vertex 19.8328 8.59123 0
    endloop
  endfacet
  facet normal 0 0 -1
    outer loop
      vertex 19.2 8.38564 0
      vertex 20.3136 16.9836 0
      vertex 19.5056 8.52169 0
    endloop
  endfacet
  facet normal 0 0 -1
    outer loop
      vertex 18.9294 8.18903 0
      vertex 20.3136 16.9836 0
      vertex 19.2 8.38564 0
    endloop
  endfacet
  facet normal 0 0 -1
    outer loop
      vertex 18.7056 7.94046 0
      vertex 20.3136 16.9836 0
      vertex 18.9294 8.18903 0
    endloop
  endfacet
  facet normal 0 0 -1
    outer loop
      vertex 1.29443 7.94046 0
      vertex 18.7056 7.94046 0
      vertex 18.5383 7.65078 0
    endloop
  endfacet
  facet normal 0 0 -1
    outer loop
      vertex 1.46167 7.65078 0
      vertex 18.5383 7.65078 0
      vertex 18.435 7.33266 0
    endloop
  endfacet
  facet normal 0 0 -1
    outer loop
      vertex 1.6 7 0
      vertex 18.435 7.33266 0
      vertex 18.4 7 0
    endloop
  endfacet
  facet normal 0 0 -1
    outer loop
      vertex 1.56504 7.33266 0
      vertex 18.435 7.33266 0
      vertex 1.6 7 0
    endloop
  endfacet
  facet normal 0 0 -1
    outer loop
      vertex 1.46167 7.65078 0
      vertex 18.435 7.33266 0
      vertex 1.56504 7.33266 0
    endloop
  endfacet
  facet normal 0 0 -1
    outer loop
      vertex 18.5383 7.65078 0
      vertex 1.46167 7.65078 0
      vertex 1.29443 7.94046 0
    endloop
  endfacet
  facet normal 0 0 -1
    outer loop
      vertex 18.7056 7.94046 0
      vertex 1.29443 7.94046 0
      vertex 20.3136 16.9836 0
    endloop
  endfacet
  facet normal 0 0 -1
    outer loop
      vertex -0.313585 16.9836 0
      vertex 1.29443 7.94046 0
      vertex 1.07061 8.18903 0
    endloop
  endfacet
  facet normal 0 0 -1
    outer loop
      vertex -0.313585 16.9836 0
      vertex 1.07061 8.18903 0
      vertex 0.799999 8.38564 0
    endloop
  endfacet
  facet normal 0 0 -1
    outer loop
      vertex -0.313585 16.9836 0
      vertex 0.799999 8.38564 0
      vertex 0.494427 8.52169 0
    endloop
  endfacet
  facet normal 0 0 -1
    outer loop
      vertex -0.313585 16.9836 0
      vertex 0.494427 8.52169 0
      vertex 0.167245 8.59123 0
    endloop
  endfacet
  facet normal 0 0 -1
    outer loop
      vertex -3 14 0
      vertex 0.167245 8.59123 0
      vertex -0.167245 8.59123 0
    endloop
  endfacet
  facet normal 0 0 -1
    outer loop
      vertex 1.29443 7.94046 0
      vertex -0.313585 16.9836 0
      vertex 20.3136 16.9836 0
    endloop
  endfacet
  facet normal 0 0 -1
    outer loop
      vertex -3 14 0
      vertex -0.167245 8.59123 0
      vertex -0.494427 8.52169 0
    endloop
  endfacet
  facet normal 0 0 -1
    outer loop
      vertex -3 14 0
      vertex -0.494427 8.52169 0
      vertex -0.799999 8.38564 0
    endloop
  endfacet
  facet normal 0 0 -1
    outer loop
      vertex 0.167245 8.59123 0
      vertex -3 14 0
      vertex -0.313585 16.9836 0
    endloop
  endfacet
  facet normal 0 0 -1
    outer loop
      vertex -3 14 0
      vertex -0.799999 8.38564 0
      vertex -1.07061 8.18903 0
    endloop
  endfacet
  facet normal 0 0 -1
    outer loop
      vertex -3 14 0
      vertex -1.07061 8.18903 0
      vertex -1.29443 7.94046 0
    endloop
  endfacet
  facet normal 0 0 -1
    outer loop
      vertex -3 14 0
      vertex -1.29443 7.94046 0
      vertex -1.46167 7.65078 0
    endloop
  endfacet
  facet normal 0 0 -1
    outer loop
      vertex -0.313585 16.9836 0
      vertex -3 14 0
      vertex -0.927051 16.8532 0
    endloop
  endfacet
  facet normal 0 0 -1
    outer loop
      vertex -3 14 0
      vertex -1.46167 7.65078 0
      vertex -1.56504 7.33266 0
    endloop
  endfacet
  facet normal 0 0 -1
    outer loop
      vertex -3 14 0
      vertex -1.56504 7.33266 0
      vertex -1.6 7 0
    endloop
  endfacet
  facet normal -0 0 -1
    outer loop
      vertex -1.56504 6.66734 0
      vertex -3 0 0
      vertex -1.6 7 0
    endloop
  endfacet
  facet normal 0 0 -1
    outer loop
      vertex -3 14 0
      vertex -1.6 7 0
      vertex -3 0 0
    endloop
  endfacet
  facet normal 0 0 -1
    outer loop
      vertex -3 0 0
      vertex -2.00739 -2.22943 0
      vertex -2.42705 -1.76336 0
    endloop
  endfacet
  facet normal 0 0 -1
    outer loop
      vertex -0.927051 16.8532 0
      vertex -3 14 0
      vertex -1.5 16.5981 0
    endloop
  endfacet
  facet normal 0 0 -1
    outer loop
      vertex -3 0 0
      vertex -2.42705 -1.76336 0
      vertex -2.74064 -1.22021 0
    endloop
  endfacet
  facet normal 0 0 -1
    outer loop
      vertex -1.5 16.5981 0
      vertex -3 14 0
      vertex -2.00739 16.2294 0
    endloop
  endfacet
  facet normal 0 0 -1
    outer loop
      vertex -3 0 0
      vertex -2.74064 -1.22021 0
      vertex -2.93444 -0.623734 0
    endloop
  endfacet
  facet normal 0 0 -1
    outer loop
      vertex -2.00739 16.2294 0
      vertex -3 14 0
      vertex -2.42705 15.7634 0
    endloop
  endfacet
  facet normal 0 0 -1
    outer loop
      vertex -2.42705 15.7634 0
      vertex -3 14 0
      vertex -2.74064 15.2202 0
    endloop
  endfacet
  facet normal 0 0 -1
    outer loop
      vertex -2.74064 15.2202 0
      vertex -3 14 0
      vertex -2.93444 14.6237 0
    endloop
  endfacet
  facet normal 0.587786 -0.809016 0
    outer loop
      vertex 21.5 -2.59808 0
      vertex 22.0074 -2.22943 2.82809
      vertex 21.5 -2.59808 3.9162
    endloop
  endfacet
  facet normal 0.587786 -0.809016 0
    outer loop
      vertex 22.0074 -2.22943 2.82809
      vertex 21.5 -2.59808 0
      vertex 22.0074 -2.22943 0
    endloop
  endfacet
  facet normal 0.743144 -0.669132 0
    outer loop
      vertex 22.0074 -2.22943 0
      vertex 22.4271 -1.76336 1.92813
      vertex 22.0074 -2.22943 2.82809
    endloop
  endfacet
  facet normal 0.743144 -0.669132 0
    outer loop
      vertex 22.4271 -1.76336 1.92813
      vertex 22.0074 -2.22943 0
      vertex 22.4271 -1.76336 0
    endloop
  endfacet
  facet normal -0.207911 -0.978148 0
    outer loop
      vertex -0.313585 -2.98357 0
      vertex -0.927051 -2.85317 5.45007
      vertex -0.927051 -2.85317 0
    endloop
  endfacet
  facet normal -0.207911 -0.978148 0
    outer loop
      vertex -0.927051 -2.85317 5.45007
      vertex -0.313585 -2.98357 0
      vertex -0.313585 -2.98357 6.76565
    endloop
  endfacet
  facet normal 0.207914 0.978147 0
    outer loop
      vertex 20.3136 16.9836 0
      vertex 20.9271 16.8532 5.14489
      vertex 20.9271 16.8532 0
    endloop
  endfacet
  facet normal 0.207914 0.978147 0
    outer loop
      vertex 20.9271 16.8532 5.14489
      vertex 20.3136 16.9836 0
      vertex 20.3136 16.9836 6.46047
    endloop
  endfacet
  facet normal 0 1 0
    outer loop
      vertex 17.2642 16.9836 13
      vertex 10.1463 16.9836 7.39233
      vertex 2.59354 16.9836 13
    endloop
  endfacet
  facet normal 0 1 0
    outer loop
      vertex 17.2642 16.9836 13
      vertex 10.4326 16.9836 7.33148
      vertex 10.1463 16.9836 7.39233
    endloop
  endfacet
  facet normal 0 1 0
    outer loop
      vertex 17.2642 16.9836 13
      vertex 10.7 16.9836 7.21243
      vertex 10.4326 16.9836 7.33148
    endloop
  endfacet
  facet normal 0 1 0
    outer loop
      vertex 17.2642 16.9836 13
      vertex 10.9368 16.9836 7.0404
      vertex 10.7 16.9836 7.21243
    endloop
  endfacet
  facet normal 0 1 0
    outer loop
      vertex 17.2642 16.9836 13
      vertex 11.1326 16.9836 6.8229
      vertex 10.9368 16.9836 7.0404
    endloop
  endfacet
  facet normal 0 1 0
    outer loop
      vertex 17.2642 16.9836 13
      vertex 11.279 16.9836 6.56943
      vertex 11.1326 16.9836 6.8229
    endloop
  endfacet
  facet normal 0 1 0
    outer loop
      vertex 20.3136 16.9836 6.46047
      vertex 11.279 16.9836 6.56943
      vertex 17.2642 16.9836 13
    endloop
  endfacet
  facet normal 0 1 0
    outer loop
      vertex 20.3136 16.9836 6.46047
      vertex 11.3694 16.9836 6.29108
      vertex 11.279 16.9836 6.56943
    endloop
  endfacet
  facet normal 0 1 0
    outer loop
      vertex 20.3136 16.9836 6.46047
      vertex 11.4 16.9836 6
      vertex 11.3694 16.9836 6.29108
    endloop
  endfacet
  facet normal 0 1 0
    outer loop
      vertex 20.3136 16.9836 6.46047
      vertex 11.3694 16.9836 5.70892
      vertex 11.4 16.9836 6
    endloop
  endfacet
  facet normal 0 1 0
    outer loop
      vertex 20.3136 16.9836 6.46047
      vertex 11.279 16.9836 5.43057
      vertex 11.3694 16.9836 5.70892
    endloop
  endfacet
  facet normal 0 1 -0
    outer loop
      vertex 20.3136 16.9836 0
      vertex 11.279 16.9836 5.43057
      vertex 20.3136 16.9836 6.46047
    endloop
  endfacet
  facet normal 0 1 0
    outer loop
      vertex 11.279 16.9836 5.43057
      vertex 20.3136 16.9836 0
      vertex 11.1326 16.9836 5.1771
    endloop
  endfacet
  facet normal 0 1 0
    outer loop
      vertex 11.1326 16.9836 5.1771
      vertex 20.3136 16.9836 0
      vertex 10.9368 16.9836 4.9596
    endloop
  endfacet
  facet normal 0 1 0
    outer loop
      vertex 10.9368 16.9836 4.9596
      vertex 20.3136 16.9836 0
      vertex 10.7 16.9836 4.78756
    endloop
  endfacet
  facet normal 0 1 0
    outer loop
      vertex 10.7 16.9836 4.78756
      vertex 20.3136 16.9836 0
      vertex 10.4326 16.9836 4.66852
    endloop
  endfacet
  facet normal 0 1 0
    outer loop
      vertex 10.1463 16.9836 4.60767
      vertex 20.3136 16.9836 0
      vertex 9.85366 16.9836 4.60767
    endloop
  endfacet
  facet normal 0 1 0
    outer loop
      vertex 10.4326 16.9836 4.66852
      vertex 20.3136 16.9836 0
      vertex 10.1463 16.9836 4.60767
    endloop
  endfacet
  facet normal 0 1 -0
    outer loop
      vertex 9.85366 16.9836 7.39233
      vertex 2.59354 16.9836 13
      vertex 10.1463 16.9836 7.39233
    endloop
  endfacet
  facet normal 0 1 -0
    outer loop
      vertex 9.56738 16.9836 7.33148
      vertex 2.59354 16.9836 13
      vertex 9.85366 16.9836 7.39233
    endloop
  endfacet
  facet normal 0 1 -0
    outer loop
      vertex 9.3 16.9836 7.21243
      vertex 2.59354 16.9836 13
      vertex 9.56738 16.9836 7.33148
    endloop
  endfacet
  facet normal 0 1 -0
    outer loop
      vertex 9.06322 16.9836 7.0404
      vertex 2.59354 16.9836 13
      vertex 9.3 16.9836 7.21243
    endloop
  endfacet
  facet normal 0 1 -0
    outer loop
      vertex 8.86738 16.9836 6.8229
      vertex 2.59354 16.9836 13
      vertex 9.06322 16.9836 7.0404
    endloop
  endfacet
  facet normal 0 1 -0
    outer loop
      vertex 8.72104 16.9836 6.56943
      vertex 2.59354 16.9836 13
      vertex 8.86738 16.9836 6.8229
    endloop
  endfacet
  facet normal 0 1 0
    outer loop
      vertex 2.59354 16.9836 13
      vertex 8.72104 16.9836 6.56943
      vertex -0.313585 16.9836 6.76565
    endloop
  endfacet
  facet normal 0 1 -0
    outer loop
      vertex 8.63059 16.9836 6.29108
      vertex -0.313585 16.9836 6.76565
      vertex 8.72104 16.9836 6.56943
    endloop
  endfacet
  facet normal 0 1 -0
    outer loop
      vertex 8.60817 16.9836 6.07778
      vertex -0.313585 16.9836 6.76565
      vertex 8.63059 16.9836 6.29108
    endloop
  endfacet
  facet normal 0 1 -0
    outer loop
      vertex 8.6 16.9836 6
      vertex -0.313585 16.9836 6.76565
      vertex 8.60817 16.9836 6.07778
    endloop
  endfacet
  facet normal 0 1 0
    outer loop
      vertex 8.62242 16.9836 5.7867
      vertex -0.313585 16.9836 6.76565
      vertex 8.6 16.9836 6
    endloop
  endfacet
  facet normal 0 1 0
    outer loop
      vertex 8.63059 16.9836 5.70892
      vertex -0.313585 16.9836 6.76565
      vertex 8.62242 16.9836 5.7867
    endloop
  endfacet
  facet normal 0 1 0
    outer loop
      vertex 8.72104 16.9836 5.43057
      vertex -0.313585 16.9836 6.76565
      vertex 8.63059 16.9836 5.70892
    endloop
  endfacet
  facet normal 0 1 0
    outer loop
      vertex -0.313585 16.9836 0
      vertex 8.72104 16.9836 5.43057
      vertex 8.86738 16.9836 5.1771
    endloop
  endfacet
  facet normal 0 1 0
    outer loop
      vertex -0.313585 16.9836 0
      vertex 8.86738 16.9836 5.1771
      vertex 9.06322 16.9836 4.9596
    endloop
  endfacet
  facet normal 0 1 0
    outer loop
      vertex -0.313585 16.9836 0
      vertex 9.06322 16.9836 4.9596
      vertex 9.3 16.9836 4.78756
    endloop
  endfacet
  facet normal 0 1 0
    outer loop
      vertex -0.313585 16.9836 0
      vertex 9.3 16.9836 4.78756
      vertex 9.56738 16.9836 4.66852
    endloop
  endfacet
  facet normal 0 1 0
    outer loop
      vertex -0.313585 16.9836 0
      vertex 9.56738 16.9836 4.66852
      vertex 9.85366 16.9836 4.60767
    endloop
  endfacet
  facet normal 0 1 0
    outer loop
      vertex -0.313585 16.9836 0
      vertex 9.85366 16.9836 4.60767
      vertex 20.3136 16.9836 0
    endloop
  endfacet
  facet normal 0 1 0
    outer loop
      vertex 8.72104 16.9836 5.43057
      vertex -0.313585 16.9836 0
      vertex -0.313585 16.9836 6.76565
    endloop
  endfacet
  facet normal 0.743144 0.669131 0
    outer loop
      vertex 22.4271 15.7634 1.92813
      vertex 22.0074 16.2294 0
      vertex 22.0074 16.2294 2.82809
    endloop
  endfacet
  facet normal 0.743144 0.669131 0
    outer loop
      vertex 22.0074 16.2294 0
      vertex 22.4271 15.7634 1.92813
      vertex 22.4271 15.7634 0
    endloop
  endfacet
  facet normal -0.866026 0.5 0
    outer loop
      vertex -2.74064 15.2202 1.56083
      vertex -2.42705 15.7634 0
      vertex -2.74064 15.2202 0
    endloop
  endfacet
  facet normal -0.866026 0.5 0
    outer loop
      vertex -2.42705 15.7634 0
      vertex -2.74064 15.2202 1.56083
      vertex -2.42705 15.7634 2.23331
    endloop
  endfacet
  facet normal -0.951056 0.309017 0
    outer loop
      vertex -2.93444 14.6237 1.14521
      vertex -2.74064 15.2202 0
      vertex -2.93444 14.6237 0
    endloop
  endfacet
  facet normal -0.951056 0.309017 0
    outer loop
      vertex -2.74064 15.2202 0
      vertex -2.93444 14.6237 1.14521
      vertex -2.74064 15.2202 1.56083
    endloop
  endfacet
  facet normal -0.743144 -0.669131 0
    outer loop
      vertex -2.00739 -2.22943 0
      vertex -2.42705 -1.76336 2.23331
      vertex -2.42705 -1.76336 0
    endloop
  endfacet
  facet normal -0.743144 -0.669131 0
    outer loop
      vertex -2.42705 -1.76336 2.23331
      vertex -2.00739 -2.22943 0
      vertex -2.00739 -2.22943 3.13328
    endloop
  endfacet
  facet normal -0.994522 -0.104529 0
    outer loop
      vertex -2.93444 -0.623734 0
      vertex -3 0 1.00462
      vertex -3 0 0
    endloop
  endfacet
  facet normal -0.994522 -0.104529 0
    outer loop
      vertex -3 0 1.00462
      vertex -2.93444 -0.623734 0
      vertex -2.93444 -0.623734 1.14521
    endloop
  endfacet
  facet normal 0.951056 -0.309019 0
    outer loop
      vertex 22.7406 -1.22021 0
      vertex 22.9344 -0.623734 0.840025
      vertex 22.7406 -1.22021 1.25565
    endloop
  endfacet
  facet normal 0.951056 -0.309019 0
    outer loop
      vertex 22.9344 -0.623734 0.840025
      vertex 22.7406 -1.22021 0
      vertex 22.9344 -0.623734 0
    endloop
  endfacet
  facet normal 0.406737 -0.913545 0
    outer loop
      vertex 20.9271 -2.85317 0
      vertex 21.5 -2.59808 3.9162
      vertex 20.9271 -2.85317 5.14489
    endloop
  endfacet
  facet normal 0.406737 -0.913545 0
    outer loop
      vertex 21.5 -2.59808 3.9162
      vertex 20.9271 -2.85317 0
      vertex 21.5 -2.59808 0
    endloop
  endfacet
  facet normal -0.207914 0.978147 0
    outer loop
      vertex -0.313585 16.9836 0
      vertex -0.927051 16.8532 5.45007
      vertex -0.313585 16.9836 6.76565
    endloop
  endfacet
  facet normal -0.207914 0.978147 0
    outer loop
      vertex -0.927051 16.8532 5.45007
      vertex -0.313585 16.9836 0
      vertex -0.927051 16.8532 0
    endloop
  endfacet
  facet normal 0.951056 0.309019 0
    outer loop
      vertex 22.9344 14.6237 0.840025
      vertex 22.7406 15.2202 0
      vertex 22.7406 15.2202 1.25565
    endloop
  endfacet
  facet normal 0.951056 0.309019 0
    outer loop
      vertex 22.7406 15.2202 0
      vertex 22.9344 14.6237 0.840025
      vertex 22.9344 14.6237 0
    endloop
  endfacet
  facet normal -0.951056 -0.309017 0
    outer loop
      vertex -2.74064 -1.22021 0
      vertex -2.93444 -0.623734 1.14521
      vertex -2.93444 -0.623734 0
    endloop
  endfacet
  facet normal -0.951056 -0.309017 0
    outer loop
      vertex -2.93444 -0.623734 1.14521
      vertex -2.74064 -1.22021 0
      vertex -2.74064 -1.22021 1.56083
    endloop
  endfacet
  facet normal -0.587786 -0.809016 0
    outer loop
      vertex -1.5 -2.59808 0
      vertex -2.00739 -2.22943 3.13328
      vertex -2.00739 -2.22943 0
    endloop
  endfacet
  facet normal -0.587786 -0.809016 0
    outer loop
      vertex -2.00739 -2.22943 3.13328
      vertex -1.5 -2.59808 0
      vertex -1.5 -2.59808 4.22138
    endloop
  endfacet
  facet normal -0.866026 -0.5 0
    outer loop
      vertex -2.42705 -1.76336 0
      vertex -2.74064 -1.22021 1.56083
      vertex -2.74064 -1.22021 0
    endloop
  endfacet
  facet normal -0.866026 -0.5 0
    outer loop
      vertex -2.74064 -1.22021 1.56083
      vertex -2.42705 -1.76336 0
      vertex -2.42705 -1.76336 2.23331
    endloop
  endfacet
  facet normal -0 0 1
    outer loop
      vertex 9.85366 16.9836 4.60767
      vertex 10.1463 -2.98357 4.60767
      vertex 10.1463 16.9836 4.60767
    endloop
  endfacet
  facet normal 0 0 1
    outer loop
      vertex 10.1463 -2.98357 4.60767
      vertex 9.85366 16.9836 4.60767
      vertex 9.85366 -2.98357 4.60767
    endloop
  endfacet
  facet normal -0.743145 0 0.66913
    outer loop
      vertex 10.9368 -2.98357 4.9596
      vertex 11.1326 16.9836 5.1771
      vertex 10.9368 16.9836 4.9596
    endloop
  endfacet
  facet normal -0.743145 0 0.66913
    outer loop
      vertex 11.1326 16.9836 5.1771
      vertex 10.9368 -2.98357 4.9596
      vertex 11.1326 -2.98357 5.1771
    endloop
  endfacet
  facet normal 0.951057 0 -0.309016
    outer loop
      vertex 8.72104 -2.98357 6.56943
      vertex 8.63059 16.9836 6.29108
      vertex 8.72104 16.9836 6.56943
    endloop
  endfacet
  facet normal 0.951057 0 -0.309016
    outer loop
      vertex 8.63059 16.9836 6.29108
      vertex 8.72104 -2.98357 6.56943
      vertex 8.63059 -2.98357 6.29108
    endloop
  endfacet
  facet normal -0.951057 0 0.309016
    outer loop
      vertex 11.279 -2.98357 5.43057
      vertex 11.3694 16.9836 5.70892
      vertex 11.279 16.9836 5.43057
    endloop
  endfacet
  facet normal -0.951057 0 0.309016
    outer loop
      vertex 11.3694 16.9836 5.70892
      vertex 11.279 -2.98357 5.43057
      vertex 11.3694 -2.98357 5.70892
    endloop
  endfacet
  facet normal 0.207911 0 0.978148
    outer loop
      vertex 9.56738 16.9836 4.66852
      vertex 9.85366 -2.98357 4.60767
      vertex 9.85366 16.9836 4.60767
    endloop
  endfacet
  facet normal 0.207911 0 0.978148
    outer loop
      vertex 9.85366 -2.98357 4.60767
      vertex 9.56738 16.9836 4.66852
      vertex 9.56738 -2.98357 4.66852
    endloop
  endfacet
  facet normal -0.587784 0 0.809018
    outer loop
      vertex 10.7 16.9836 4.78756
      vertex 10.9368 -2.98357 4.9596
      vertex 10.9368 16.9836 4.9596
    endloop
  endfacet
  facet normal -0.587784 0 0.809018
    outer loop
      vertex 10.9368 -2.98357 4.9596
      vertex 10.7 16.9836 4.78756
      vertex 10.7 -2.98357 4.78756
    endloop
  endfacet
  facet normal -0.406738 0 0.913545
    outer loop
      vertex 10.4326 16.9836 4.66852
      vertex 10.7 -2.98357 4.78756
      vertex 10.7 16.9836 4.78756
    endloop
  endfacet
  facet normal -0.406738 0 0.913545
    outer loop
      vertex 10.7 -2.98357 4.78756
      vertex 10.4326 16.9836 4.66852
      vertex 10.4326 -2.98357 4.66852
    endloop
  endfacet
  facet normal -0.207911 0 0.978148
    outer loop
      vertex 10.1463 16.9836 4.60767
      vertex 10.4326 -2.98357 4.66852
      vertex 10.4326 16.9836 4.66852
    endloop
  endfacet
  facet normal -0.207911 0 0.978148
    outer loop
      vertex 10.4326 -2.98357 4.66852
      vertex 10.1463 16.9836 4.60767
      vertex 10.1463 -2.98357 4.60767
    endloop
  endfacet
  facet normal -0.866026 0 0.499998
    outer loop
      vertex 11.1326 -2.98357 5.1771
      vertex 11.279 16.9836 5.43057
      vertex 11.1326 16.9836 5.1771
    endloop
  endfacet
  facet normal -0.866026 0 0.499998
    outer loop
      vertex 11.279 16.9836 5.43057
      vertex 11.1326 -2.98357 5.1771
      vertex 11.279 -2.98357 5.43057
    endloop
  endfacet
  facet normal -0.994522 0 0.10453
    outer loop
      vertex 11.3694 -2.98357 5.70892
      vertex 11.4 16.9836 6
      vertex 11.3694 16.9836 5.70892
    endloop
  endfacet
  facet normal -0.994522 0 0.10453
    outer loop
      vertex 11.4 16.9836 6
      vertex 11.3694 -2.98357 5.70892
      vertex 11.4 -2.98357 6
    endloop
  endfacet
  facet normal 0.866026 0 -0.499998
    outer loop
      vertex 8.86738 -2.98357 6.8229
      vertex 8.72104 16.9836 6.56943
      vertex 8.86738 16.9836 6.8229
    endloop
  endfacet
  facet normal 0.866026 0 -0.499998
    outer loop
      vertex 8.72104 16.9836 6.56943
      vertex 8.86738 -2.98357 6.8229
      vertex 8.72104 -2.98357 6.56943
    endloop
  endfacet
  facet normal 0 0 -1
    outer loop
      vertex 9.85366 -2.98357 7.39233
      vertex 10.1463 16.9836 7.39233
      vertex 10.1463 -2.98357 7.39233
    endloop
  endfacet
  facet normal -0 0 -1
    outer loop
      vertex 10.1463 16.9836 7.39233
      vertex 9.85366 -2.98357 7.39233
      vertex 9.85366 16.9836 7.39233
    endloop
  endfacet
  facet normal -0.207911 0 -0.978148
    outer loop
      vertex 10.1463 -2.98357 7.39233
      vertex 10.4326 16.9836 7.33148
      vertex 10.4326 -2.98357 7.33148
    endloop
  endfacet
  facet normal -0.207911 0 -0.978148
    outer loop
      vertex 10.4326 16.9836 7.33148
      vertex 10.1463 -2.98357 7.39233
      vertex 10.1463 16.9836 7.39233
    endloop
  endfacet
  facet normal -0.406738 0 -0.913545
    outer loop
      vertex 10.4326 -2.98357 7.33148
      vertex 10.7 16.9836 7.21243
      vertex 10.7 -2.98357 7.21243
    endloop
  endfacet
  facet normal -0.406738 0 -0.913545
    outer loop
      vertex 10.7 16.9836 7.21243
      vertex 10.4326 -2.98357 7.33148
      vertex 10.4326 16.9836 7.33148
    endloop
  endfacet
  facet normal -0.743145 0 -0.66913
    outer loop
      vertex 11.1326 -2.98357 6.8229
      vertex 10.9368 16.9836 7.0404
      vertex 11.1326 16.9836 6.8229
    endloop
  endfacet
  facet normal -0.743145 -0 -0.66913
    outer loop
      vertex 10.9368 16.9836 7.0404
      vertex 11.1326 -2.98357 6.8229
      vertex 10.9368 -2.98357 7.0404
    endloop
  endfacet
  facet normal -0.951057 0 -0.309016
    outer loop
      vertex 11.3694 -2.98357 6.29108
      vertex 11.279 16.9836 6.56943
      vertex 11.3694 16.9836 6.29108
    endloop
  endfacet
  facet normal -0.951057 -0 -0.309016
    outer loop
      vertex 11.279 16.9836 6.56943
      vertex 11.3694 -2.98357 6.29108
      vertex 11.279 -2.98357 6.56943
    endloop
  endfacet
  facet normal 0.994522 6.04939e-08 -0.104527
    outer loop
      vertex 8.62854 -2.98357 6.27151
      vertex 8.6 16.9836 6
      vertex 8.60817 16.9836 6.07778
    endloop
  endfacet
  facet normal 0.994522 2.49631e-09 -0.104531
    outer loop
      vertex 8.6 16.9836 6
      vertex 8.62854 -2.98357 6.27151
      vertex 8.6 -2.98357 6
    endloop
  endfacet
  facet normal -0.587784 0 -0.809018
    outer loop
      vertex 10.7 -2.98357 7.21243
      vertex 10.9368 16.9836 7.0404
      vertex 10.9368 -2.98357 7.0404
    endloop
  endfacet
  facet normal -0.587784 0 -0.809018
    outer loop
      vertex 10.9368 16.9836 7.0404
      vertex 10.7 -2.98357 7.21243
      vertex 10.7 16.9836 7.21243
    endloop
  endfacet
  facet normal -0.866026 0 -0.499998
    outer loop
      vertex 11.279 -2.98357 6.56943
      vertex 11.1326 16.9836 6.8229
      vertex 11.279 16.9836 6.56943
    endloop
  endfacet
  facet normal -0.866026 -0 -0.499998
    outer loop
      vertex 11.1326 16.9836 6.8229
      vertex 11.279 -2.98357 6.56943
      vertex 11.1326 -2.98357 6.8229
    endloop
  endfacet
  facet normal 0.866026 -0 0.499998
    outer loop
      vertex 8.72104 -2.98357 5.43057
      vertex 8.86738 16.9836 5.1771
      vertex 8.72104 16.9836 5.43057
    endloop
  endfacet
  facet normal 0.866026 0 0.499998
    outer loop
      vertex 8.86738 16.9836 5.1771
      vertex 8.72104 -2.98357 5.43057
      vertex 8.86738 -2.98357 5.1771
    endloop
  endfacet
  facet normal 0.994522 -2.49632e-09 0.104531
    outer loop
      vertex 8.6 -2.98357 6
      vertex 8.62242 16.9836 5.7867
      vertex 8.6 16.9836 6
    endloop
  endfacet
  facet normal 0.994523 -1.43852e-07 0.104518
    outer loop
      vertex 8.62242 16.9836 5.7867
      vertex 8.6 -2.98357 6
      vertex 8.60206 -2.98357 5.98043
    endloop
  endfacet
  facet normal -0.994522 0 -0.10453
    outer loop
      vertex 11.4 -2.98357 6
      vertex 11.3694 16.9836 6.29108
      vertex 11.4 16.9836 6
    endloop
  endfacet
  facet normal -0.994522 -0 -0.10453
    outer loop
      vertex 11.3694 16.9836 6.29108
      vertex 11.4 -2.98357 6
      vertex 11.3694 -2.98357 6.29108
    endloop
  endfacet
  facet normal 0.994522 0 -0.104532
    outer loop
      vertex 8.63059 -2.98357 6.29108
      vertex 8.60817 16.9836 6.07778
      vertex 8.63059 16.9836 6.29108
    endloop
  endfacet
  facet normal 0.994523 1.43852e-07 -0.104518
    outer loop
      vertex 8.60817 16.9836 6.07778
      vertex 8.63059 -2.98357 6.29108
      vertex 8.62854 -2.98357 6.27151
    endloop
  endfacet
  facet normal 0.207911 0 -0.978148
    outer loop
      vertex 9.56738 -2.98357 7.33148
      vertex 9.85366 16.9836 7.39233
      vertex 9.85366 -2.98357 7.39233
    endloop
  endfacet
  facet normal 0.207911 0 -0.978148
    outer loop
      vertex 9.85366 16.9836 7.39233
      vertex 9.56738 -2.98357 7.33148
      vertex 9.56738 16.9836 7.33148
    endloop
  endfacet
  facet normal 0.743145 -0 0.66913
    outer loop
      vertex 8.86738 -2.98357 5.1771
      vertex 9.06322 16.9836 4.9596
      vertex 8.86738 16.9836 5.1771
    endloop
  endfacet
  facet normal 0.743145 0 0.66913
    outer loop
      vertex 9.06322 16.9836 4.9596
      vertex 8.86738 -2.98357 5.1771
      vertex 9.06322 -2.98357 4.9596
    endloop
  endfacet
  facet normal 0.994522 -5.42764e-08 0.104527
    outer loop
      vertex 8.60206 -2.98357 5.98043
      vertex 8.63059 16.9836 5.70892
      vertex 8.62242 16.9836 5.7867
    endloop
  endfacet
  facet normal 0.994522 0 0.104531
    outer loop
      vertex 8.63059 16.9836 5.70892
      vertex 8.60206 -2.98357 5.98043
      vertex 8.63059 -2.98357 5.70892
    endloop
  endfacet
  facet normal 0.743145 0 -0.66913
    outer loop
      vertex 9.06322 -2.98357 7.0404
      vertex 8.86738 16.9836 6.8229
      vertex 9.06322 16.9836 7.0404
    endloop
  endfacet
  facet normal 0.743145 0 -0.66913
    outer loop
      vertex 8.86738 16.9836 6.8229
      vertex 9.06322 -2.98357 7.0404
      vertex 8.86738 -2.98357 6.8229
    endloop
  endfacet
  facet normal 0.406738 0 -0.913545
    outer loop
      vertex 9.3 -2.98357 7.21243
      vertex 9.56738 16.9836 7.33148
      vertex 9.56738 -2.98357 7.33148
    endloop
  endfacet
  facet normal 0.406738 0 -0.913545
    outer loop
      vertex 9.56738 16.9836 7.33148
      vertex 9.3 -2.98357 7.21243
      vertex 9.3 16.9836 7.21243
    endloop
  endfacet
  facet normal 0.587784 0 -0.809018
    outer loop
      vertex 9.06322 -2.98357 7.0404
      vertex 9.3 16.9836 7.21243
      vertex 9.3 -2.98357 7.21243
    endloop
  endfacet
  facet normal 0.587784 0 -0.809018
    outer loop
      vertex 9.3 16.9836 7.21243
      vertex 9.06322 -2.98357 7.0404
      vertex 9.06322 16.9836 7.0404
    endloop
  endfacet
  facet normal 0.587784 0 0.809018
    outer loop
      vertex 9.06322 16.9836 4.9596
      vertex 9.3 -2.98357 4.78756
      vertex 9.3 16.9836 4.78756
    endloop
  endfacet
  facet normal 0.587784 0 0.809018
    outer loop
      vertex 9.3 -2.98357 4.78756
      vertex 9.06322 16.9836 4.9596
      vertex 9.06322 -2.98357 4.9596
    endloop
  endfacet
  facet normal 0.406738 0 0.913545
    outer loop
      vertex 9.3 16.9836 4.78756
      vertex 9.56738 -2.98357 4.66852
      vertex 9.56738 16.9836 4.66852
    endloop
  endfacet
  facet normal 0.406738 0 0.913545
    outer loop
      vertex 9.56738 -2.98357 4.66852
      vertex 9.3 16.9836 4.78756
      vertex 9.3 -2.98357 4.78756
    endloop
  endfacet
  facet normal 0.951057 -0 0.309016
    outer loop
      vertex 8.63059 -2.98357 5.70892
      vertex 8.72104 16.9836 5.43057
      vertex 8.63059 16.9836 5.70892
    endloop
  endfacet
  facet normal 0.951057 0 0.309016
    outer loop
      vertex 8.72104 16.9836 5.43057
      vertex 8.63059 -2.98357 5.70892
      vertex 8.72104 -2.98357 5.43057
    endloop
  endfacet
  facet normal 0.906308 1.68384e-07 0.422618
    outer loop
      vertex 20.3136 -2.98357 6.46047
      vertex 22.3935 -1 2
      vertex 17.2642 -1 13
    endloop
  endfacet
  facet normal 0.906308 1.71108e-06 0.422619
    outer loop
      vertex 20.9271 -2.85317 5.14489
      vertex 22.3935 -1 2
      vertex 20.3136 -2.98357 6.46047
    endloop
  endfacet
  facet normal 0.906308 -1.01415e-07 0.422618
    outer loop
      vertex 22.0074 -2.22943 2.82809
      vertex 22.3935 -1 2
      vertex 21.5 -2.59808 3.9162
    endloop
  endfacet
  facet normal 0.906307 9.24878e-07 0.422619
    outer loop
      vertex 22.4271 -1.76336 1.92813
      vertex 22.3935 -1 2
      vertex 22.0074 -2.22943 2.82809
    endloop
  endfacet
  facet normal 0.906308 1.21347e-06 0.422617
    outer loop
      vertex 22.3935 -1 2
      vertex 22.4271 -1.76336 1.92813
      vertex 22.7406 -1.22021 1.25565
    endloop
  endfacet
  facet normal 0.906308 0 0.422618
    outer loop
      vertex 20.3136 -2.98357 6.46047
      vertex 17.2642 -1 13
      vertex 17.2642 -2.98357 13
    endloop
  endfacet
  facet normal 0.906308 -1.15129e-06 0.422617
    outer loop
      vertex 21.5 -2.59808 3.9162
      vertex 22.3935 -1 2
      vertex 20.9271 -2.85317 5.14489
    endloop
  endfacet
  facet normal 0.906308 -0 0.422618
    outer loop
      vertex 17.2642 15 13
      vertex 20.3136 16.9836 6.46047
      vertex 17.2642 16.9836 13
    endloop
  endfacet
  facet normal 0.906308 -1.68384e-07 0.422618
    outer loop
      vertex 22.3935 15 2
      vertex 20.3136 16.9836 6.46047
      vertex 17.2642 15 13
    endloop
  endfacet
  facet normal 0.906308 -1.71109e-06 0.422619
    outer loop
      vertex 20.3136 16.9836 6.46047
      vertex 22.3935 15 2
      vertex 20.9271 16.8532 5.14489
    endloop
  endfacet
  facet normal 0.906308 1.15129e-06 0.422617
    outer loop
      vertex 20.9271 16.8532 5.14489
      vertex 22.3935 15 2
      vertex 21.5 16.5981 3.9162
    endloop
  endfacet
  facet normal 0.906308 1.01415e-07 0.422618
    outer loop
      vertex 21.5 16.5981 3.9162
      vertex 22.3935 15 2
      vertex 22.0074 16.2294 2.82809
    endloop
  endfacet
  facet normal 0.906307 -9.24878e-07 0.422619
    outer loop
      vertex 22.0074 16.2294 2.82809
      vertex 22.3935 15 2
      vertex 22.4271 15.7634 1.92813
    endloop
  endfacet
  facet normal 0.906308 -1.21347e-06 0.422617
    outer loop
      vertex 22.4271 15.7634 1.92813
      vertex 22.3935 15 2
      vertex 22.7406 15.2202 1.25565
    endloop
  endfacet
  facet normal 0.906308 1.90181e-06 0.422618
    outer loop
      vertex 22.3935 15 2
      vertex 22.9344 14.6237 0.840025
      vertex 22.7406 15.2202 1.25565
    endloop
  endfacet
  facet normal 0.906308 2.10791e-08 0.422618
    outer loop
      vertex 22.3935 15 2
      vertex 23 14 0.699437
      vertex 22.9344 14.6237 0.840025
    endloop
  endfacet
  facet normal 0.906308 0 0.422618
    outer loop
      vertex 22.3935 15 2
      vertex 23 0 0.699437
      vertex 23 14 0.699437
    endloop
  endfacet
  facet normal 0.906308 -0 0.422618
    outer loop
      vertex 22.3935 -1 2
      vertex 23 0 0.699437
      vertex 22.3935 15 2
    endloop
  endfacet
  facet normal 0.906308 -2.10791e-08 0.422618
    outer loop
      vertex 23 0 0.699437
      vertex 22.3935 -1 2
      vertex 22.9344 -0.623734 0.840025
    endloop
  endfacet
  facet normal 0.906308 -1.90181e-06 0.422618
    outer loop
      vertex 22.9344 -0.623734 0.840025
      vertex 22.3935 -1 2
      vertex 22.7406 -1.22021 1.25565
    endloop
  endfacet
  facet normal -0.906308 -1.80726e-08 0.422618
    outer loop
      vertex -2.93444 14.6237 1.14521
      vertex -2.53585 15 2
      vertex -2.74064 15.2202 1.56083
    endloop
  endfacet
  facet normal -0.906308 5.37969e-08 0.422618
    outer loop
      vertex -3 14 1.00462
      vertex -2.53585 15 2
      vertex -2.93444 14.6237 1.14521
    endloop
  endfacet
  facet normal -0.906308 0 0.422618
    outer loop
      vertex -3 0 1.00462
      vertex -2.53585 15 2
      vertex -3 14 1.00462
    endloop
  endfacet
  facet normal -0.906308 -5.37969e-08 0.422618
    outer loop
      vertex -2.53585 -1 2
      vertex -3 0 1.00462
      vertex -2.93444 -0.623734 1.14521
    endloop
  endfacet
  facet normal -0.906308 0 0.422618
    outer loop
      vertex -3 0 1.00462
      vertex -2.53585 -1 2
      vertex -2.53585 15 2
    endloop
  endfacet
  facet normal -0.906308 1.80726e-08 0.422618
    outer loop
      vertex -2.74064 -1.22021 1.56083
      vertex -2.53585 -1 2
      vertex -2.93444 -0.623734 1.14521
    endloop
  endfacet
  facet normal -0.906308 6.94159e-08 0.422618
    outer loop
      vertex -2.42705 -1.76336 2.23331
      vertex -2.53585 -1 2
      vertex -2.74064 -1.22021 1.56083
    endloop
  endfacet
  facet normal -0.906308 1.02189e-07 0.422618
    outer loop
      vertex -2.53585 -1 2
      vertex -2.42705 -1.76336 2.23331
      vertex -2.00739 -2.22943 3.13328
    endloop
  endfacet
  facet normal -0.906308 1.34823e-07 0.422618
    outer loop
      vertex -2.53585 -1 2
      vertex -2.00739 -2.22943 3.13328
      vertex -1.5 -2.59808 4.22138
    endloop
  endfacet
  facet normal -0.906308 -3.37561e-07 0.422618
    outer loop
      vertex -2.53585 -1 2
      vertex -1.5 -2.59808 4.22138
      vertex -0.927051 -2.85317 5.45007
    endloop
  endfacet
  facet normal -0.906308 2.82156e-07 0.422618
    outer loop
      vertex -0.313585 -2.98357 6.76565
      vertex -2.53585 -1 2
      vertex -0.927051 -2.85317 5.45007
    endloop
  endfacet
  facet normal -0.906308 -4.16117e-09 0.422618
    outer loop
      vertex -2.53585 -1 2
      vertex -0.313585 -2.98357 6.76565
      vertex 2.59354 -1 13
    endloop
  endfacet
  facet normal -0.906308 0 0.422618
    outer loop
      vertex 2.59354 -1 13
      vertex -0.313585 -2.98357 6.76565
      vertex 2.59354 -2.98357 13
    endloop
  endfacet
  facet normal -0.906308 -2.82157e-07 0.422618
    outer loop
      vertex -2.53585 15 2
      vertex -0.313585 16.9836 6.76565
      vertex -0.927051 16.8532 5.45007
    endloop
  endfacet
  facet normal -0.906308 -1.63112e-08 0.422618
    outer loop
      vertex -2.53585 15 2
      vertex -0.927051 16.8532 5.45007
      vertex -1.5 16.5981 4.22138
    endloop
  endfacet
  facet normal -0.906308 4.1674e-08 0.422618
    outer loop
      vertex -2.53585 15 2
      vertex -1.5 16.5981 4.22138
      vertex -2.00739 16.2294 3.13328
    endloop
  endfacet
  facet normal -0.906308 -1.02189e-07 0.422618
    outer loop
      vertex -2.53585 15 2
      vertex -2.00739 16.2294 3.13328
      vertex -2.42705 15.7634 2.23331
    endloop
  endfacet
  facet normal -0.906308 -6.94159e-08 0.422618
    outer loop
      vertex -2.53585 15 2
      vertex -2.42705 15.7634 2.23331
      vertex -2.74064 15.2202 1.56083
    endloop
  endfacet
  facet normal -0.906308 4.16117e-09 0.422618
    outer loop
      vertex -0.313585 16.9836 6.76565
      vertex -2.53585 15 2
      vertex 2.59354 15 13
    endloop
  endfacet
  facet normal -0.906308 0 0.422618
    outer loop
      vertex -0.313585 16.9836 6.76565
      vertex 2.59354 15 13
      vertex 2.59354 16.9836 13
    endloop
  endfacet
  facet normal 1 -0 0
    outer loop
      vertex 17 -1 13
      vertex 17 15 2
      vertex 17 15 13
    endloop
  endfacet
  facet normal 1 0 0
    outer loop
      vertex 17 15 2
      vertex 17 -1 13
      vertex 17 -1 2
    endloop
  endfacet
  facet normal 0 0 1
    outer loop
      vertex 22.3935 15 2
      vertex 21.6 7 2
      vertex 22.3935 -1 2
    endloop
  endfacet
  facet normal 0 0 1
    outer loop
      vertex 22.3935 15 2
      vertex 21.565 7.33266 2
      vertex 21.6 7 2
    endloop
  endfacet
  facet normal 0 0 1
    outer loop
      vertex 22.3935 15 2
      vertex 21.4617 7.65078 2
      vertex 21.565 7.33266 2
    endloop
  endfacet
  facet normal 0 0 1
    outer loop
      vertex 22.3935 15 2
      vertex 21.2944 7.94046 2
      vertex 21.4617 7.65078 2
    endloop
  endfacet
  facet normal 0 0 1
    outer loop
      vertex 22.3935 15 2
      vertex 21.0706 8.18903 2
      vertex 21.2944 7.94046 2
    endloop
  endfacet
  facet normal 0 0 1
    outer loop
      vertex 22.3935 15 2
      vertex 20.8 8.38564 2
      vertex 21.0706 8.18903 2
    endloop
  endfacet
  facet normal 0 0 1
    outer loop
      vertex 22.3935 15 2
      vertex 20.4944 8.52169 2
      vertex 20.8 8.38564 2
    endloop
  endfacet
  facet normal 0 0 1
    outer loop
      vertex 22.3935 15 2
      vertex 20.1672 8.59123 2
      vertex 20.4944 8.52169 2
    endloop
  endfacet
  facet normal 0 0 1
    outer loop
      vertex 22.3935 15 2
      vertex 19.8328 8.59123 2
      vertex 20.1672 8.59123 2
    endloop
  endfacet
  facet normal -0 0 1
    outer loop
      vertex 17 15 2
      vertex 19.8328 8.59123 2
      vertex 22.3935 15 2
    endloop
  endfacet
  facet normal 0 0 1
    outer loop
      vertex 19.8328 8.59123 2
      vertex 17 15 2
      vertex 19.5056 8.52169 2
    endloop
  endfacet
  facet normal 0 0 1
    outer loop
      vertex 19.5056 8.52169 2
      vertex 17 15 2
      vertex 19.2 8.38564 2
    endloop
  endfacet
  facet normal 0 0 1
    outer loop
      vertex 19.2 8.38564 2
      vertex 17 15 2
      vertex 18.9294 8.18903 2
    endloop
  endfacet
  facet normal 0 0 1
    outer loop
      vertex 18.9294 8.18903 2
      vertex 17 15 2
      vertex 18.7056 7.94046 2
    endloop
  endfacet
  facet normal 0 0 1
    outer loop
      vertex 18.435 7.33266 2
      vertex 17 15 2
      vertex 18.4 7 2
    endloop
  endfacet
  facet normal 0 0 1
    outer loop
      vertex 18.5383 7.65078 2
      vertex 17 15 2
      vertex 18.435 7.33266 2
    endloop
  endfacet
  facet normal 0 0 1
    outer loop
      vertex 18.7056 7.94046 2
      vertex 17 15 2
      vertex 18.5383 7.65078 2
    endloop
  endfacet
  facet normal -0 0 1
    outer loop
      vertex 21.565 6.66734 2
      vertex 22.3935 -1 2
      vertex 21.6 7 2
    endloop
  endfacet
  facet normal -0 0 1
    outer loop
      vertex 21.4617 6.34922 2
      vertex 22.3935 -1 2
      vertex 21.565 6.66734 2
    endloop
  endfacet
  facet normal -0 0 1
    outer loop
      vertex 21.2944 6.05954 2
      vertex 22.3935 -1 2
      vertex 21.4617 6.34922 2
    endloop
  endfacet
  facet normal -0 0 1
    outer loop
      vertex 21.0706 5.81097 2
      vertex 22.3935 -1 2
      vertex 21.2944 6.05954 2
    endloop
  endfacet
  facet normal -0 0 1
    outer loop
      vertex 20.8 5.61436 2
      vertex 22.3935 -1 2
      vertex 21.0706 5.81097 2
    endloop
  endfacet
  facet normal -0 0 1
    outer loop
      vertex 20.4944 5.47831 2
      vertex 22.3935 -1 2
      vertex 20.8 5.61436 2
    endloop
  endfacet
  facet normal -0 0 1
    outer loop
      vertex 20.1672 5.40877 2
      vertex 22.3935 -1 2
      vertex 20.4944 5.47831 2
    endloop
  endfacet
  facet normal -0 0 1
    outer loop
      vertex 19.8328 5.40877 2
      vertex 22.3935 -1 2
      vertex 20.1672 5.40877 2
    endloop
  endfacet
  facet normal 0 0 1
    outer loop
      vertex 17 -1 2
      vertex 19.8328 5.40877 2
      vertex 19.5056 5.47831 2
    endloop
  endfacet
  facet normal 0 0 1
    outer loop
      vertex 17 -1 2
      vertex 19.5056 5.47831 2
      vertex 19.2 5.61436 2
    endloop
  endfacet
  facet normal 0 0 1
    outer loop
      vertex 17 -1 2
      vertex 19.2 5.61436 2
      vertex 18.9294 5.81097 2
    endloop
  endfacet
  facet normal 0 0 1
    outer loop
      vertex 17 -1 2
      vertex 18.9294 5.81097 2
      vertex 18.7056 6.05954 2
    endloop
  endfacet
  facet normal 0 0 1
    outer loop
      vertex 17 -1 2
      vertex 18.7056 6.05954 2
      vertex 18.5383 6.34922 2
    endloop
  endfacet
  facet normal 0 0 1
    outer loop
      vertex 17 -1 2
      vertex 18.4 7 2
      vertex 17 15 2
    endloop
  endfacet
  facet normal 0 0 1
    outer loop
      vertex 19.8328 5.40877 2
      vertex 17 -1 2
      vertex 22.3935 -1 2
    endloop
  endfacet
  facet normal 0 0 1
    outer loop
      vertex 18.435 6.66734 2
      vertex 17 -1 2
      vertex 18.5383 6.34922 2
    endloop
  endfacet
  facet normal 0 0 1
    outer loop
      vertex 18.4 7 2
      vertex 17 -1 2
      vertex 18.435 6.66734 2
    endloop
  endfacet
  facet normal 0 1 0
    outer loop
      vertex 17 -1 2
      vertex 17.2642 -1 13
      vertex 22.3935 -1 2
    endloop
  endfacet
  facet normal 0 1 0
    outer loop
      vertex 17.2642 -1 13
      vertex 17 -1 2
      vertex 17 -1 13
    endloop
  endfacet
  facet normal 0 -1 0
    outer loop
      vertex 17 15 2
      vertex 17.2642 15 13
      vertex 17 15 13
    endloop
  endfacet
  facet normal 0 -1 -0
    outer loop
      vertex 17.2642 15 13
      vertex 17 15 2
      vertex 22.3935 15 2
    endloop
  endfacet
  facet normal -1 0 0
    outer loop
      vertex 2.8 -1 2
      vertex 2.8 15 13
      vertex 2.8 15 2
    endloop
  endfacet
  facet normal -1 -0 0
    outer loop
      vertex 2.8 15 13
      vertex 2.8 -1 2
      vertex 2.8 -1 13
    endloop
  endfacet
  facet normal 0 0 1
    outer loop
      vertex 2.8 15 2
      vertex 1.6 7 2
      vertex 2.8 -1 2
    endloop
  endfacet
  facet normal 0 0 1
    outer loop
      vertex 2.8 15 2
      vertex 1.56504 7.33266 2
      vertex 1.6 7 2
    endloop
  endfacet
  facet normal 0 0 1
    outer loop
      vertex 2.8 15 2
      vertex 1.46167 7.65078 2
      vertex 1.56504 7.33266 2
    endloop
  endfacet
  facet normal 0 0 1
    outer loop
      vertex 2.8 15 2
      vertex 1.29443 7.94046 2
      vertex 1.46167 7.65078 2
    endloop
  endfacet
  facet normal 0 0 1
    outer loop
      vertex 2.8 15 2
      vertex 1.07061 8.18903 2
      vertex 1.29443 7.94046 2
    endloop
  endfacet
  facet normal 0 0 1
    outer loop
      vertex 2.8 15 2
      vertex 0.799999 8.38564 2
      vertex 1.07061 8.18903 2
    endloop
  endfacet
  facet normal 0 0 1
    outer loop
      vertex 2.8 15 2
      vertex 0.494427 8.52169 2
      vertex 0.799999 8.38564 2
    endloop
  endfacet
  facet normal 0 0 1
    outer loop
      vertex 2.8 15 2
      vertex 0.167245 8.59123 2
      vertex 0.494427 8.52169 2
    endloop
  endfacet
  facet normal -0 0 1
    outer loop
      vertex -2.53585 15 2
      vertex 0.167245 8.59123 2
      vertex 2.8 15 2
    endloop
  endfacet
  facet normal 0 0 1
    outer loop
      vertex 0.167245 8.59123 2
      vertex -2.53585 15 2
      vertex -0.167245 8.59123 2
    endloop
  endfacet
  facet normal 0 0 1
    outer loop
      vertex -0.167245 8.59123 2
      vertex -2.53585 15 2
      vertex -0.494427 8.52169 2
    endloop
  endfacet
  facet normal 0 0 1
    outer loop
      vertex -0.494427 8.52169 2
      vertex -2.53585 15 2
      vertex -0.799999 8.38564 2
    endloop
  endfacet
  facet normal 0 0 1
    outer loop
      vertex -0.799999 8.38564 2
      vertex -2.53585 15 2
      vertex -1.07061 8.18903 2
    endloop
  endfacet
  facet normal 0 0 1
    outer loop
      vertex -1.56504 7.33266 2
      vertex -2.53585 15 2
      vertex -1.6 7 2
    endloop
  endfacet
  facet normal 0 0 1
    outer loop
      vertex -1.46167 7.65078 2
      vertex -2.53585 15 2
      vertex -1.56504 7.33266 2
    endloop
  endfacet
  facet normal 0 0 1
    outer loop
      vertex -1.29443 7.94046 2
      vertex -2.53585 15 2
      vertex -1.46167 7.65078 2
    endloop
  endfacet
  facet normal 0 0 1
    outer loop
      vertex -1.07061 8.18903 2
      vertex -2.53585 15 2
      vertex -1.29443 7.94046 2
    endloop
  endfacet
  facet normal -0 0 1
    outer loop
      vertex 1.56504 6.66734 2
      vertex 2.8 -1 2
      vertex 1.6 7 2
    endloop
  endfacet
  facet normal -0 0 1
    outer loop
      vertex 1.46167 6.34922 2
      vertex 2.8 -1 2
      vertex 1.56504 6.66734 2
    endloop
  endfacet
  facet normal -0 0 1
    outer loop
      vertex 1.29443 6.05954 2
      vertex 2.8 -1 2
      vertex 1.46167 6.34922 2
    endloop
  endfacet
  facet normal -0 0 1
    outer loop
      vertex 1.07061 5.81097 2
      vertex 2.8 -1 2
      vertex 1.29443 6.05954 2
    endloop
  endfacet
  facet normal -0 0 1
    outer loop
      vertex 0.799999 5.61436 2
      vertex 2.8 -1 2
      vertex 1.07061 5.81097 2
    endloop
  endfacet
  facet normal -0 0 1
    outer loop
      vertex 0.494427 5.47831 2
      vertex 2.8 -1 2
      vertex 0.799999 5.61436 2
    endloop
  endfacet
  facet normal -0 0 1
    outer loop
      vertex 0.167245 5.40877 2
      vertex 2.8 -1 2
      vertex 0.494427 5.47831 2
    endloop
  endfacet
  facet normal 0 0 1
    outer loop
      vertex -2.53585 -1 2
      vertex 0.167245 5.40877 2
      vertex -0.167245 5.40877 2
    endloop
  endfacet
  facet normal 0 0 1
    outer loop
      vertex -2.53585 -1 2
      vertex -0.167245 5.40877 2
      vertex -0.494427 5.47831 2
    endloop
  endfacet
  facet normal 0 0 1
    outer loop
      vertex -2.53585 -1 2
      vertex -0.494427 5.47831 2
      vertex -0.799999 5.61436 2
    endloop
  endfacet
  facet normal 0 0 1
    outer loop
      vertex -2.53585 -1 2
      vertex -0.799999 5.61436 2
      vertex -1.07061 5.81097 2
    endloop
  endfacet
  facet normal 0 0 1
    outer loop
      vertex -2.53585 -1 2
      vertex -1.07061 5.81097 2
      vertex -1.29443 6.05954 2
    endloop
  endfacet
  facet normal 0 0 1
    outer loop
      vertex -2.53585 -1 2
      vertex -1.6 7 2
      vertex -2.53585 15 2
    endloop
  endfacet
  facet normal 0 0 1
    outer loop
      vertex 0.167245 5.40877 2
      vertex -2.53585 -1 2
      vertex 2.8 -1 2
    endloop
  endfacet
  facet normal 0 0 1
    outer loop
      vertex -1.46167 6.34922 2
      vertex -2.53585 -1 2
      vertex -1.29443 6.05954 2
    endloop
  endfacet
  facet normal 0 0 1
    outer loop
      vertex -1.56504 6.66734 2
      vertex -2.53585 -1 2
      vertex -1.46167 6.34922 2
    endloop
  endfacet
  facet normal 0 0 1
    outer loop
      vertex -1.6 7 2
      vertex -2.53585 -1 2
      vertex -1.56504 6.66734 2
    endloop
  endfacet
  facet normal 0 1 -0
    outer loop
      vertex 2.8 -1 2
      vertex 2.59354 -1 13
      vertex 2.8 -1 13
    endloop
  endfacet
  facet normal 0 1 0
    outer loop
      vertex 2.59354 -1 13
      vertex 2.8 -1 2
      vertex -2.53585 -1 2
    endloop
  endfacet
  facet normal 0 -1 0
    outer loop
      vertex 2.8 15 2
      vertex 2.59354 15 13
      vertex -2.53585 15 2
    endloop
  endfacet
  facet normal 0 -1 0
    outer loop
      vertex 2.59354 15 13
      vertex 2.8 15 2
      vertex 2.8 15 13
    endloop
  endfacet
endsolid OpenSCAD_Model
