solid OpenSCAD_Model
  facet normal 1 0 0
    outer loop
      vertex 0 37.5 24.5
      vertex 0 43 0
      vertex 0 43 19
    endloop
  endfacet
  facet normal 1 0 0
    outer loop
      vertex 0 0 0
      vertex 0 37.5 24.5
      vertex 0 0 24.5
    endloop
  endfacet
  facet normal 1 0 0
    outer loop
      vertex 0 37.5 24.5
      vertex 0 0 0
      vertex 0 43 0
    endloop
  endfacet
  facet normal -0 0 1
    outer loop
      vertex -27.5 37.5 24.5
      vertex -24.7 16 24.5
      vertex -24.7 37.5 24.5
    endloop
  endfacet
  facet normal 0 0 1
    outer loop
      vertex -27.5 2.5 24.5
      vertex -24.7 16 24.5
      vertex -27.5 37.5 24.5
    endloop
  endfacet
  facet normal 0 0 1
    outer loop
      vertex -24.7 16 24.5
      vertex -27.5 2.5 24.5
      vertex -24.7 11.1 24.5
    endloop
  endfacet
  facet normal -0 0 1
    outer loop
      vertex -24.7 16 24.5
      vertex -22 11.1 24.5
      vertex -22 16 24.5
    endloop
  endfacet
  facet normal 0 0 1
    outer loop
      vertex -22 11.1 24.5
      vertex -24.7 16 24.5
      vertex -24.7 11.1 24.5
    endloop
  endfacet
  facet normal 0 0 1
    outer loop
      vertex -2.5 2.5 24.5
      vertex 0 37.5 24.5
      vertex -2.5 37.5 24.5
    endloop
  endfacet
  facet normal 0 0 1
    outer loop
      vertex 0 37.5 24.5
      vertex -2.5 2.5 24.5
      vertex 0 0 24.5
    endloop
  endfacet
  facet normal -0 0 1
    outer loop
      vertex -24.7 2.5 24.5
      vertex 0 0 24.5
      vertex -2.5 2.5 24.5
    endloop
  endfacet
  facet normal 0 0 1
    outer loop
      vertex -24.7 11.1 24.5
      vertex -27.5 2.5 24.5
      vertex -24.7 2.5 24.5
    endloop
  endfacet
  facet normal 0 0 1
    outer loop
      vertex -29.1031 0 24.5
      vertex -24.7 2.5 24.5
      vertex -27.5 2.5 24.5
    endloop
  endfacet
  facet normal 0 0 1
    outer loop
      vertex -29.1031 0 24.5
      vertex -27.5 2.5 24.5
      vertex -29.1031 2.5 24.5
    endloop
  endfacet
  facet normal 0 0 1
    outer loop
      vertex -24.7 2.5 24.5
      vertex -29.1031 0 24.5
      vertex 0 0 24.5
    endloop
  endfacet
  facet normal -1 0 0
    outer loop
      vertex -37 33.4 0
      vertex -37 16.3284 2.5
      vertex -37 33.4 2.5
    endloop
  endfacet
  facet normal -1 0 0
    outer loop
      vertex -37 14.5 4.32843
      vertex -37 11.5 14.5
      vertex -37 14.5 11.5
    endloop
  endfacet
  facet normal -1 0 0
    outer loop
      vertex -37 14.5 4.32843
      vertex -37 4.32843 14.5
      vertex -37 11.5 14.5
    endloop
  endfacet
  facet normal -1 0 0
    outer loop
      vertex -37 0 0
      vertex -37 14.5 4.32843
      vertex -37 16.3284 2.5
    endloop
  endfacet
  facet normal -1 -0 0
    outer loop
      vertex -37 14.5 4.32843
      vertex -37 0 0
      vertex -37 4.32843 14.5
    endloop
  endfacet
  facet normal -1 0 0
    outer loop
      vertex -37 0 0
      vertex -37 16.3284 2.5
      vertex -37 33.4 0
    endloop
  endfacet
  facet normal -1 -0 0
    outer loop
      vertex -37 4.32843 14.5
      vertex -37 0 0
      vertex -37 2.5 16.3284
    endloop
  endfacet
  facet normal -1 0 0
    outer loop
      vertex -37 0 17.8737
      vertex -37 2.5 16.3284
      vertex -37 0 0
    endloop
  endfacet
  facet normal -1 0 0
    outer loop
      vertex -37 2.5 16.3284
      vertex -37 0 17.8737
      vertex -37 2.5 17.8737
    endloop
  endfacet
  facet normal 0 1 0
    outer loop
      vertex 0 43 19
      vertex -2.5 43 2.5
      vertex -2.5 43 19
    endloop
  endfacet
  facet normal 0 1 0
    outer loop
      vertex -2.5 43 2.5
      vertex 0 43 0
      vertex -24.7 43 2.5
    endloop
  endfacet
  facet normal 0 1 -0
    outer loop
      vertex 0 43 0
      vertex -2.5 43 2.5
      vertex 0 43 19
    endloop
  endfacet
  facet normal 0 1 -0
    outer loop
      vertex -24.7 43 2.5
      vertex -27.4 43 19
      vertex -24.7 43 19
    endloop
  endfacet
  facet normal 0 1 0
    outer loop
      vertex -24.7 43 2.5
      vertex -27.4 43 0
      vertex -27.4 43 19
    endloop
  endfacet
  facet normal 0 1 0
    outer loop
      vertex -27.4 43 0
      vertex -24.7 43 2.5
      vertex 0 43 0
    endloop
  endfacet
  facet normal 0 0 -1
    outer loop
      vertex -12.0979 32.7292 0
      vertex 0 43 0
      vertex 0 0 0
    endloop
  endfacet
  facet normal 0 0 -1
    outer loop
      vertex 0 43 0
      vertex -11.9126 33.2995 0
      vertex -11.9 33.5 0
    endloop
  endfacet
  facet normal 0 0 -1
    outer loop
      vertex 0 43 0
      vertex -11.9503 33.1021 0
      vertex -11.9126 33.2995 0
    endloop
  endfacet
  facet normal 0 0 -1
    outer loop
      vertex 0 43 0
      vertex -12.0124 32.911 0
      vertex -11.9503 33.1021 0
    endloop
  endfacet
  facet normal 0 0 -1
    outer loop
      vertex 0 43 0
      vertex -12.0979 32.7292 0
      vertex -12.0124 32.911 0
    endloop
  endfacet
  facet normal 0 0 -1
    outer loop
      vertex 0 0 0
      vertex -12.2056 32.5595 0
      vertex -12.0979 32.7292 0
    endloop
  endfacet
  facet normal 0 0 -1
    outer loop
      vertex 0 0 0
      vertex -12.3336 32.4047 0
      vertex -12.2056 32.5595 0
    endloop
  endfacet
  facet normal 0 0 -1
    outer loop
      vertex 0 0 0
      vertex -12.4801 32.2672 0
      vertex -12.3336 32.4047 0
    endloop
  endfacet
  facet normal 0 0 -1
    outer loop
      vertex 0 0 0
      vertex -12.6427 32.1491 0
      vertex -12.4801 32.2672 0
    endloop
  endfacet
  facet normal 0 0 -1
    outer loop
      vertex 0 0 0
      vertex -12.8188 32.0523 0
      vertex -12.6427 32.1491 0
    endloop
  endfacet
  facet normal 0 0 -1
    outer loop
      vertex 0 0 0
      vertex -13.0056 31.9783 0
      vertex -12.8188 32.0523 0
    endloop
  endfacet
  facet normal 0 0 -1
    outer loop
      vertex 0 0 0
      vertex -13.2002 31.9283 0
      vertex -13.0056 31.9783 0
    endloop
  endfacet
  facet normal 0 0 -1
    outer loop
      vertex 0 0 0
      vertex -13.3995 31.9032 0
      vertex -13.2002 31.9283 0
    endloop
  endfacet
  facet normal 0 0 -1
    outer loop
      vertex 0 0 0
      vertex -13.6005 31.9032 0
      vertex -13.3995 31.9032 0
    endloop
  endfacet
  facet normal 0 0 -1
    outer loop
      vertex 0 0 0
      vertex -13.7998 31.9283 0
      vertex -13.6005 31.9032 0
    endloop
  endfacet
  facet normal 0 0 -1
    outer loop
      vertex -37 0 0
      vertex -13.7998 31.9283 0
      vertex 0 0 0
    endloop
  endfacet
  facet normal -0 0 -1
    outer loop
      vertex -13.7998 31.9283 0
      vertex -37 0 0
      vertex -13.9944 31.9783 0
    endloop
  endfacet
  facet normal -0 0 -1
    outer loop
      vertex -13.9944 31.9783 0
      vertex -37 0 0
      vertex -14.1812 32.0523 0
    endloop
  endfacet
  facet normal -0 0 -1
    outer loop
      vertex -14.1812 32.0523 0
      vertex -37 0 0
      vertex -14.3573 32.1491 0
    endloop
  endfacet
  facet normal -0 0 -1
    outer loop
      vertex -14.3573 32.1491 0
      vertex -37 0 0
      vertex -14.5199 32.2672 0
    endloop
  endfacet
  facet normal 0 0 -1
    outer loop
      vertex -37 33.4 0
      vertex -14.5199 32.2672 0
      vertex -37 0 0
    endloop
  endfacet
  facet normal 0 0 -1
    outer loop
      vertex -14.5199 32.2672 0
      vertex -37 33.4 0
      vertex -14.6663 32.4047 0
    endloop
  endfacet
  facet normal 0 0 -1
    outer loop
      vertex -14.6663 32.4047 0
      vertex -37 33.4 0
      vertex -14.7944 32.5595 0
    endloop
  endfacet
  facet normal 0 0 -1
    outer loop
      vertex -15.0874 33.2995 0
      vertex -27.4 43 0
      vertex -15.1 33.5 0
    endloop
  endfacet
  facet normal 0 0 -1
    outer loop
      vertex -37 33.4 0
      vertex -15.0874 33.2995 0
      vertex -15.0497 33.1021 0
    endloop
  endfacet
  facet normal 0 0 -1
    outer loop
      vertex -37 33.4 0
      vertex -15.0497 33.1021 0
      vertex -14.9876 32.911 0
    endloop
  endfacet
  facet normal 0 0 -1
    outer loop
      vertex -14.7944 32.5595 0
      vertex -37 33.4 0
      vertex -14.9021 32.7292 0
    endloop
  endfacet
  facet normal 0 0 -1
    outer loop
      vertex -14.9021 32.7292 0
      vertex -37 33.4 0
      vertex -14.9876 32.911 0
    endloop
  endfacet
  facet normal 0 0 -1
    outer loop
      vertex -15.0874 33.2995 0
      vertex -37 33.4 0
      vertex -27.4 43 0
    endloop
  endfacet
  facet normal 0 0 -1
    outer loop
      vertex -11.9126 33.7005 0
      vertex 0 43 0
      vertex -11.9 33.5 0
    endloop
  endfacet
  facet normal 0 0 -1
    outer loop
      vertex -11.9503 33.8979 0
      vertex 0 43 0
      vertex -11.9126 33.7005 0
    endloop
  endfacet
  facet normal 0 0 -1
    outer loop
      vertex -12.0124 34.089 0
      vertex 0 43 0
      vertex -11.9503 33.8979 0
    endloop
  endfacet
  facet normal 0 0 -1
    outer loop
      vertex -12.0979 34.2708 0
      vertex 0 43 0
      vertex -12.0124 34.089 0
    endloop
  endfacet
  facet normal 0 0 -1
    outer loop
      vertex -12.2056 34.4405 0
      vertex 0 43 0
      vertex -12.0979 34.2708 0
    endloop
  endfacet
  facet normal 0 0 -1
    outer loop
      vertex -12.3336 34.5953 0
      vertex 0 43 0
      vertex -12.2056 34.4405 0
    endloop
  endfacet
  facet normal 0 0 -1
    outer loop
      vertex -12.4801 34.7328 0
      vertex 0 43 0
      vertex -12.3336 34.5953 0
    endloop
  endfacet
  facet normal 0 0 -1
    outer loop
      vertex -12.6427 34.8509 0
      vertex 0 43 0
      vertex -12.4801 34.7328 0
    endloop
  endfacet
  facet normal 0 0 -1
    outer loop
      vertex -12.8188 34.9477 0
      vertex 0 43 0
      vertex -12.6427 34.8509 0
    endloop
  endfacet
  facet normal 0 0 -1
    outer loop
      vertex -13.0056 35.0217 0
      vertex 0 43 0
      vertex -12.8188 34.9477 0
    endloop
  endfacet
  facet normal 0 0 -1
    outer loop
      vertex -13.2002 35.0717 0
      vertex 0 43 0
      vertex -13.0056 35.0217 0
    endloop
  endfacet
  facet normal 0 0 -1
    outer loop
      vertex -13.3995 35.0968 0
      vertex 0 43 0
      vertex -13.2002 35.0717 0
    endloop
  endfacet
  facet normal 0 0 -1
    outer loop
      vertex -13.6005 35.0968 0
      vertex 0 43 0
      vertex -13.3995 35.0968 0
    endloop
  endfacet
  facet normal 0 0 -1
    outer loop
      vertex -27.4 43 0
      vertex -13.6005 35.0968 0
      vertex -13.7998 35.0717 0
    endloop
  endfacet
  facet normal 0 0 -1
    outer loop
      vertex -27.4 43 0
      vertex -13.7998 35.0717 0
      vertex -13.9944 35.0217 0
    endloop
  endfacet
  facet normal 0 0 -1
    outer loop
      vertex -27.4 43 0
      vertex -13.9944 35.0217 0
      vertex -14.1812 34.9477 0
    endloop
  endfacet
  facet normal 0 0 -1
    outer loop
      vertex -27.4 43 0
      vertex -14.1812 34.9477 0
      vertex -14.3573 34.8509 0
    endloop
  endfacet
  facet normal 0 0 -1
    outer loop
      vertex -13.6005 35.0968 0
      vertex -27.4 43 0
      vertex 0 43 0
    endloop
  endfacet
  facet normal 0 0 -1
    outer loop
      vertex -14.5199 34.7328 0
      vertex -27.4 43 0
      vertex -14.3573 34.8509 0
    endloop
  endfacet
  facet normal 0 0 -1
    outer loop
      vertex -14.6663 34.5953 0
      vertex -27.4 43 0
      vertex -14.5199 34.7328 0
    endloop
  endfacet
  facet normal 0 0 -1
    outer loop
      vertex -14.7944 34.4405 0
      vertex -27.4 43 0
      vertex -14.6663 34.5953 0
    endloop
  endfacet
  facet normal 0 0 -1
    outer loop
      vertex -14.9021 34.2708 0
      vertex -27.4 43 0
      vertex -14.7944 34.4405 0
    endloop
  endfacet
  facet normal 0 0 -1
    outer loop
      vertex -14.9876 34.089 0
      vertex -27.4 43 0
      vertex -14.9021 34.2708 0
    endloop
  endfacet
  facet normal 0 0 -1
    outer loop
      vertex -15.0497 33.8979 0
      vertex -27.4 43 0
      vertex -14.9876 34.089 0
    endloop
  endfacet
  facet normal 0 0 -1
    outer loop
      vertex -15.0874 33.7005 0
      vertex -27.4 43 0
      vertex -15.0497 33.8979 0
    endloop
  endfacet
  facet normal 0 0 -1
    outer loop
      vertex -27.4 43 0
      vertex -15.0874 33.7005 0
      vertex -15.1 33.5 0
    endloop
  endfacet
  facet normal 0 -1 0
    outer loop
      vertex -29.1031 0 24.5
      vertex -13.7998 0 15.0717
      vertex -13.6005 0 15.0968
    endloop
  endfacet
  facet normal 0 -1 0
    outer loop
      vertex -29.1031 0 24.5
      vertex -13.9944 0 15.0217
      vertex -13.7998 0 15.0717
    endloop
  endfacet
  facet normal 0 -1 0
    outer loop
      vertex -29.1031 0 24.5
      vertex -14.1812 0 14.9477
      vertex -13.9944 0 15.0217
    endloop
  endfacet
  facet normal 0 -1 0
    outer loop
      vertex -29.1031 0 24.5
      vertex -14.3573 0 14.8509
      vertex -14.1812 0 14.9477
    endloop
  endfacet
  facet normal 0 -1 0
    outer loop
      vertex -29.1031 0 24.5
      vertex -14.5199 0 14.7328
      vertex -14.3573 0 14.8509
    endloop
  endfacet
  facet normal 0 -1 0
    outer loop
      vertex -29.1031 0 24.5
      vertex -14.6663 0 14.5953
      vertex -14.5199 0 14.7328
    endloop
  endfacet
  facet normal 0 -1 0
    outer loop
      vertex -29.1031 0 24.5
      vertex -14.7944 0 14.4405
      vertex -14.6663 0 14.5953
    endloop
  endfacet
  facet normal 0 -1 0
    outer loop
      vertex -29.1031 0 24.5
      vertex -14.9021 0 14.2708
      vertex -14.7944 0 14.4405
    endloop
  endfacet
  facet normal 0 -1 0
    outer loop
      vertex -29.1031 0 24.5
      vertex -14.9876 0 14.089
      vertex -14.9021 0 14.2708
    endloop
  endfacet
  facet normal 0 -1 0
    outer loop
      vertex -29.1031 0 24.5
      vertex -15.0497 0 13.8979
      vertex -14.9876 0 14.089
    endloop
  endfacet
  facet normal 0 -1 0
    outer loop
      vertex -29.1031 0 24.5
      vertex -15.0874 0 13.7005
      vertex -15.0497 0 13.8979
    endloop
  endfacet
  facet normal 0 -1 0
    outer loop
      vertex -29.1031 0 24.5
      vertex -15.1 0 13.5
      vertex -15.0874 0 13.7005
    endloop
  endfacet
  facet normal 0 -1 0
    outer loop
      vertex -37 0 17.8737
      vertex -15.0874 0 13.2995
      vertex -15.1 0 13.5
    endloop
  endfacet
  facet normal 0 -1 0
    outer loop
      vertex -37 0 17.8737
      vertex -15.0497 0 13.1021
      vertex -15.0874 0 13.2995
    endloop
  endfacet
  facet normal 0 -1 0
    outer loop
      vertex -37 0 17.8737
      vertex -14.9876 0 12.911
      vertex -15.0497 0 13.1021
    endloop
  endfacet
  facet normal 0 -1 0
    outer loop
      vertex -37 0 0
      vertex -14.9876 0 12.911
      vertex -37 0 17.8737
    endloop
  endfacet
  facet normal 0 -1 -0
    outer loop
      vertex -14.9876 0 12.911
      vertex -37 0 0
      vertex -14.9021 0 12.7292
    endloop
  endfacet
  facet normal 0 -1 -0
    outer loop
      vertex -14.9021 0 12.7292
      vertex -37 0 0
      vertex -14.7944 0 12.5595
    endloop
  endfacet
  facet normal 0 -1 -0
    outer loop
      vertex -14.7944 0 12.5595
      vertex -37 0 0
      vertex -14.6663 0 12.4047
    endloop
  endfacet
  facet normal 0 -1 -0
    outer loop
      vertex -14.6663 0 12.4047
      vertex -37 0 0
      vertex -14.5199 0 12.2672
    endloop
  endfacet
  facet normal 0 -1 -0
    outer loop
      vertex -14.5199 0 12.2672
      vertex -37 0 0
      vertex -14.3573 0 12.1491
    endloop
  endfacet
  facet normal 0 -1 -0
    outer loop
      vertex -14.3573 0 12.1491
      vertex -37 0 0
      vertex -14.1812 0 12.0523
    endloop
  endfacet
  facet normal 0 -1 -0
    outer loop
      vertex -14.1812 0 12.0523
      vertex -37 0 0
      vertex -13.9944 0 11.9783
    endloop
  endfacet
  facet normal 0 -1 0
    outer loop
      vertex -13.7998 0 11.9283
      vertex 0 0 0
      vertex -13.6005 0 11.9032
    endloop
  endfacet
  facet normal 0 -1 0
    outer loop
      vertex 0 0 0
      vertex -13.7998 0 11.9283
      vertex -37 0 0
    endloop
  endfacet
  facet normal 0 -1 -0
    outer loop
      vertex -13.9944 0 11.9783
      vertex -37 0 0
      vertex -13.7998 0 11.9283
    endloop
  endfacet
  facet normal 0 -1 0
    outer loop
      vertex -15.1 0 13.5
      vertex -29.1031 0 24.5
      vertex -37 0 17.8737
    endloop
  endfacet
  facet normal 0 -1 0
    outer loop
      vertex -29.1031 0 24.5
      vertex -13.6005 0 15.0968
      vertex 0 0 24.5
    endloop
  endfacet
  facet normal 0 -1 0
    outer loop
      vertex -13.3995 0 15.0968
      vertex 0 0 24.5
      vertex -13.6005 0 15.0968
    endloop
  endfacet
  facet normal 0 -1 0
    outer loop
      vertex -13.2002 0 15.0717
      vertex 0 0 24.5
      vertex -13.3995 0 15.0968
    endloop
  endfacet
  facet normal 0 -1 0
    outer loop
      vertex -13.0056 0 15.0217
      vertex 0 0 24.5
      vertex -13.2002 0 15.0717
    endloop
  endfacet
  facet normal 0 -1 0
    outer loop
      vertex -12.8188 0 14.9477
      vertex 0 0 24.5
      vertex -13.0056 0 15.0217
    endloop
  endfacet
  facet normal 0 -1 0
    outer loop
      vertex -12.6427 0 14.8509
      vertex 0 0 24.5
      vertex -12.8188 0 14.9477
    endloop
  endfacet
  facet normal 0 -1 0
    outer loop
      vertex -12.4801 0 14.7328
      vertex 0 0 24.5
      vertex -12.6427 0 14.8509
    endloop
  endfacet
  facet normal 0 -1 0
    outer loop
      vertex -12.3336 0 14.5953
      vertex 0 0 24.5
      vertex -12.4801 0 14.7328
    endloop
  endfacet
  facet normal 0 -1 0
    outer loop
      vertex -12.2056 0 14.4405
      vertex 0 0 24.5
      vertex -12.3336 0 14.5953
    endloop
  endfacet
  facet normal 0 -1 0
    outer loop
      vertex -12.0979 0 14.2708
      vertex 0 0 24.5
      vertex -12.2056 0 14.4405
    endloop
  endfacet
  facet normal 0 -1 0
    outer loop
      vertex -12.0124 0 14.089
      vertex 0 0 24.5
      vertex -12.0979 0 14.2708
    endloop
  endfacet
  facet normal 0 -1 0
    outer loop
      vertex -11.9503 0 13.8979
      vertex 0 0 24.5
      vertex -12.0124 0 14.089
    endloop
  endfacet
  facet normal 0 -1 0
    outer loop
      vertex -11.9126 0 13.7005
      vertex 0 0 24.5
      vertex -11.9503 0 13.8979
    endloop
  endfacet
  facet normal 0 -1 0
    outer loop
      vertex -11.9 0 13.5
      vertex 0 0 24.5
      vertex -11.9126 0 13.7005
    endloop
  endfacet
  facet normal 0 -1 0
    outer loop
      vertex -11.9126 0 13.2995
      vertex 0 0 24.5
      vertex -11.9 0 13.5
    endloop
  endfacet
  facet normal 0 -1 0
    outer loop
      vertex 0 0 0
      vertex -11.9126 0 13.2995
      vertex -11.9503 0 13.1021
    endloop
  endfacet
  facet normal 0 -1 0
    outer loop
      vertex 0 0 0
      vertex -11.9503 0 13.1021
      vertex -12.0124 0 12.911
    endloop
  endfacet
  facet normal 0 -1 0
    outer loop
      vertex 0 0 0
      vertex -12.0124 0 12.911
      vertex -12.0979 0 12.7292
    endloop
  endfacet
  facet normal 0 -1 0
    outer loop
      vertex 0 0 0
      vertex -12.0979 0 12.7292
      vertex -12.2056 0 12.5595
    endloop
  endfacet
  facet normal 0 -1 0
    outer loop
      vertex 0 0 0
      vertex -12.2056 0 12.5595
      vertex -12.3336 0 12.4047
    endloop
  endfacet
  facet normal 0 -1 0
    outer loop
      vertex -13.6005 0 11.9032
      vertex 0 0 0
      vertex -13.3995 0 11.9032
    endloop
  endfacet
  facet normal 0 -1 0
    outer loop
      vertex -13.3995 0 11.9032
      vertex 0 0 0
      vertex -13.2002 0 11.9283
    endloop
  endfacet
  facet normal 0 -1 0
    outer loop
      vertex -13.2002 0 11.9283
      vertex 0 0 0
      vertex -13.0056 0 11.9783
    endloop
  endfacet
  facet normal 0 -1 0
    outer loop
      vertex -11.9126 0 13.2995
      vertex 0 0 0
      vertex 0 0 24.5
    endloop
  endfacet
  facet normal 0 -1 0
    outer loop
      vertex -12.4801 0 12.2672
      vertex 0 0 0
      vertex -12.3336 0 12.4047
    endloop
  endfacet
  facet normal 0 -1 0
    outer loop
      vertex -12.6427 0 12.1491
      vertex 0 0 0
      vertex -12.4801 0 12.2672
    endloop
  endfacet
  facet normal 0 -1 0
    outer loop
      vertex -12.8188 0 12.0523
      vertex 0 0 0
      vertex -12.6427 0 12.1491
    endloop
  endfacet
  facet normal 0 -1 0
    outer loop
      vertex -13.0056 0 11.9783
      vertex 0 0 0
      vertex -12.8188 0 12.0523
    endloop
  endfacet
  facet normal -1 0 0
    outer loop
      vertex -2.5 43 2.5
      vertex -2.5 37.5 24.5
      vertex -2.5 43 19
    endloop
  endfacet
  facet normal -1 0 0
    outer loop
      vertex -2.5 2.5 2.5
      vertex -2.5 37.5 24.5
      vertex -2.5 43 2.5
    endloop
  endfacet
  facet normal -1 -0 0
    outer loop
      vertex -2.5 37.5 24.5
      vertex -2.5 2.5 2.5
      vertex -2.5 2.5 24.5
    endloop
  endfacet
  facet normal 1 -0 0
    outer loop
      vertex -24.7 2.5 24.5
      vertex -24.7 11.1 2.5
      vertex -24.7 11.1 24.5
    endloop
  endfacet
  facet normal 1 0 0
    outer loop
      vertex -24.7 11.1 2.5
      vertex -24.7 2.5 24.5
      vertex -24.7 2.5 2.5
    endloop
  endfacet
  facet normal 1 0 0
    outer loop
      vertex -24.7 16 2.5
      vertex -24.7 43 19
      vertex -24.7 37.5 24.5
    endloop
  endfacet
  facet normal 1 0 0
    outer loop
      vertex -24.7 16 2.5
      vertex -24.7 37.5 24.5
      vertex -24.7 16 24.5
    endloop
  endfacet
  facet normal 1 0 0
    outer loop
      vertex -24.7 43 19
      vertex -24.7 16 2.5
      vertex -24.7 43 2.5
    endloop
  endfacet
  facet normal 0 0 1
    outer loop
      vertex -11.9126 33.2995 2.5
      vertex -2.5 43 2.5
      vertex -11.9 33.5 2.5
    endloop
  endfacet
  facet normal 0 0 1
    outer loop
      vertex -2.5 43 2.5
      vertex -11.9126 33.7005 2.5
      vertex -11.9 33.5 2.5
    endloop
  endfacet
  facet normal 0 0 1
    outer loop
      vertex -2.5 43 2.5
      vertex -11.9503 33.8979 2.5
      vertex -11.9126 33.7005 2.5
    endloop
  endfacet
  facet normal 0 0 1
    outer loop
      vertex -2.5 43 2.5
      vertex -12.0124 34.089 2.5
      vertex -11.9503 33.8979 2.5
    endloop
  endfacet
  facet normal 0 0 1
    outer loop
      vertex -2.5 43 2.5
      vertex -12.0979 34.2708 2.5
      vertex -12.0124 34.089 2.5
    endloop
  endfacet
  facet normal 0 0 1
    outer loop
      vertex -2.5 43 2.5
      vertex -12.2056 34.4405 2.5
      vertex -12.0979 34.2708 2.5
    endloop
  endfacet
  facet normal 0 0 1
    outer loop
      vertex -2.5 43 2.5
      vertex -12.3336 34.5953 2.5
      vertex -12.2056 34.4405 2.5
    endloop
  endfacet
  facet normal 0 0 1
    outer loop
      vertex -2.5 43 2.5
      vertex -12.4801 34.7328 2.5
      vertex -12.3336 34.5953 2.5
    endloop
  endfacet
  facet normal 0 0 1
    outer loop
      vertex -2.5 43 2.5
      vertex -12.6427 34.8509 2.5
      vertex -12.4801 34.7328 2.5
    endloop
  endfacet
  facet normal 0 0 1
    outer loop
      vertex -2.5 43 2.5
      vertex -12.8188 34.9477 2.5
      vertex -12.6427 34.8509 2.5
    endloop
  endfacet
  facet normal 0 0 1
    outer loop
      vertex -2.5 43 2.5
      vertex -13.0056 35.0217 2.5
      vertex -12.8188 34.9477 2.5
    endloop
  endfacet
  facet normal 0 0 1
    outer loop
      vertex -2.5 43 2.5
      vertex -13.2002 35.0717 2.5
      vertex -13.0056 35.0217 2.5
    endloop
  endfacet
  facet normal 0 0 1
    outer loop
      vertex -2.5 43 2.5
      vertex -13.3995 35.0968 2.5
      vertex -13.2002 35.0717 2.5
    endloop
  endfacet
  facet normal 0 0 1
    outer loop
      vertex -2.5 43 2.5
      vertex -13.6005 35.0968 2.5
      vertex -13.3995 35.0968 2.5
    endloop
  endfacet
  facet normal -0 0 1
    outer loop
      vertex -24.7 43 2.5
      vertex -13.6005 35.0968 2.5
      vertex -2.5 43 2.5
    endloop
  endfacet
  facet normal 0 0 1
    outer loop
      vertex -13.6005 35.0968 2.5
      vertex -24.7 43 2.5
      vertex -13.7998 35.0717 2.5
    endloop
  endfacet
  facet normal 0 0 1
    outer loop
      vertex -13.7998 35.0717 2.5
      vertex -24.7 43 2.5
      vertex -13.9944 35.0217 2.5
    endloop
  endfacet
  facet normal 0 0 1
    outer loop
      vertex -13.9944 35.0217 2.5
      vertex -24.7 43 2.5
      vertex -14.1812 34.9477 2.5
    endloop
  endfacet
  facet normal 0 0 1
    outer loop
      vertex -24.7 43 2.5
      vertex -15.1 33.5 2.5
      vertex -15.0874 33.7005 2.5
    endloop
  endfacet
  facet normal 0 0 1
    outer loop
      vertex -24.7 43 2.5
      vertex -15.0874 33.7005 2.5
      vertex -15.0497 33.8979 2.5
    endloop
  endfacet
  facet normal 0 0 1
    outer loop
      vertex -24.7 43 2.5
      vertex -15.0497 33.8979 2.5
      vertex -14.9876 34.089 2.5
    endloop
  endfacet
  facet normal 0 0 1
    outer loop
      vertex -14.1812 34.9477 2.5
      vertex -24.7 43 2.5
      vertex -14.3573 34.8509 2.5
    endloop
  endfacet
  facet normal 0 0 1
    outer loop
      vertex -24.7 43 2.5
      vertex -14.5199 34.7328 2.5
      vertex -14.3573 34.8509 2.5
    endloop
  endfacet
  facet normal 0 0 1
    outer loop
      vertex -24.7 43 2.5
      vertex -14.6663 34.5953 2.5
      vertex -14.5199 34.7328 2.5
    endloop
  endfacet
  facet normal 0 0 1
    outer loop
      vertex -24.7 43 2.5
      vertex -14.7944 34.4405 2.5
      vertex -14.6663 34.5953 2.5
    endloop
  endfacet
  facet normal 0 0 1
    outer loop
      vertex -24.7 43 2.5
      vertex -14.9021 34.2708 2.5
      vertex -14.7944 34.4405 2.5
    endloop
  endfacet
  facet normal 0 0 1
    outer loop
      vertex -24.7 43 2.5
      vertex -14.9876 34.089 2.5
      vertex -14.9021 34.2708 2.5
    endloop
  endfacet
  facet normal 0 0 1
    outer loop
      vertex -15.1 33.5 2.5
      vertex -24.7 43 2.5
      vertex -24.7 16 2.5
    endloop
  endfacet
  facet normal 0 0 1
    outer loop
      vertex -15.1 33.5 2.5
      vertex -24.7 16 2.5
      vertex -22 16 2.5
    endloop
  endfacet
  facet normal 0 0 1
    outer loop
      vertex -11.9503 33.1021 2.5
      vertex -2.5 43 2.5
      vertex -11.9126 33.2995 2.5
    endloop
  endfacet
  facet normal 0 0 1
    outer loop
      vertex -12.0124 32.911 2.5
      vertex -2.5 43 2.5
      vertex -11.9503 33.1021 2.5
    endloop
  endfacet
  facet normal 0 0 1
    outer loop
      vertex -2.5 43 2.5
      vertex -12.0124 32.911 2.5
      vertex -2.5 2.5 2.5
    endloop
  endfacet
  facet normal -0 0 1
    outer loop
      vertex -12.0979 32.7292 2.5
      vertex -2.5 2.5 2.5
      vertex -12.0124 32.911 2.5
    endloop
  endfacet
  facet normal -0 0 1
    outer loop
      vertex -12.2056 32.5595 2.5
      vertex -2.5 2.5 2.5
      vertex -12.0979 32.7292 2.5
    endloop
  endfacet
  facet normal -0 0 1
    outer loop
      vertex -12.3336 32.4047 2.5
      vertex -2.5 2.5 2.5
      vertex -12.2056 32.5595 2.5
    endloop
  endfacet
  facet normal -0 0 1
    outer loop
      vertex -12.4801 32.2672 2.5
      vertex -2.5 2.5 2.5
      vertex -12.3336 32.4047 2.5
    endloop
  endfacet
  facet normal -0 0 1
    outer loop
      vertex -12.6427 32.1491 2.5
      vertex -2.5 2.5 2.5
      vertex -12.4801 32.2672 2.5
    endloop
  endfacet
  facet normal -0 0 1
    outer loop
      vertex -12.8188 32.0523 2.5
      vertex -2.5 2.5 2.5
      vertex -12.6427 32.1491 2.5
    endloop
  endfacet
  facet normal 0 0 1
    outer loop
      vertex -22 16 2.5
      vertex -12.8188 32.0523 2.5
      vertex -13.0056 31.9783 2.5
    endloop
  endfacet
  facet normal 0 0 1
    outer loop
      vertex -22 16 2.5
      vertex -13.0056 31.9783 2.5
      vertex -13.2002 31.9283 2.5
    endloop
  endfacet
  facet normal 0 0 1
    outer loop
      vertex -22 16 2.5
      vertex -13.2002 31.9283 2.5
      vertex -13.3995 31.9032 2.5
    endloop
  endfacet
  facet normal 0 0 1
    outer loop
      vertex -22 16 2.5
      vertex -13.3995 31.9032 2.5
      vertex -13.6005 31.9032 2.5
    endloop
  endfacet
  facet normal 0 0 1
    outer loop
      vertex -22 16 2.5
      vertex -13.6005 31.9032 2.5
      vertex -13.7998 31.9283 2.5
    endloop
  endfacet
  facet normal 0 0 1
    outer loop
      vertex -22 16 2.5
      vertex -13.7998 31.9283 2.5
      vertex -13.9944 31.9783 2.5
    endloop
  endfacet
  facet normal 0 0 1
    outer loop
      vertex -22 16 2.5
      vertex -13.9944 31.9783 2.5
      vertex -14.1812 32.0523 2.5
    endloop
  endfacet
  facet normal 0 0 1
    outer loop
      vertex -22 16 2.5
      vertex -14.1812 32.0523 2.5
      vertex -14.3573 32.1491 2.5
    endloop
  endfacet
  facet normal 0 0 1
    outer loop
      vertex -22 16 2.5
      vertex -14.3573 32.1491 2.5
      vertex -14.5199 32.2672 2.5
    endloop
  endfacet
  facet normal 0 0 1
    outer loop
      vertex -22 16 2.5
      vertex -14.5199 32.2672 2.5
      vertex -14.6663 32.4047 2.5
    endloop
  endfacet
  facet normal 0 0 1
    outer loop
      vertex -22 16 2.5
      vertex -14.6663 32.4047 2.5
      vertex -14.7944 32.5595 2.5
    endloop
  endfacet
  facet normal 0 0 1
    outer loop
      vertex -22 16 2.5
      vertex -14.7944 32.5595 2.5
      vertex -14.9021 32.7292 2.5
    endloop
  endfacet
  facet normal 0 0 1
    outer loop
      vertex -22 16 2.5
      vertex -14.9021 32.7292 2.5
      vertex -14.9876 32.911 2.5
    endloop
  endfacet
  facet normal 0 0 1
    outer loop
      vertex -22 16 2.5
      vertex -15.0874 33.2995 2.5
      vertex -15.1 33.5 2.5
    endloop
  endfacet
  facet normal 0 0 1
    outer loop
      vertex -22 16 2.5
      vertex -15.0497 33.1021 2.5
      vertex -15.0874 33.2995 2.5
    endloop
  endfacet
  facet normal 0 0 1
    outer loop
      vertex -22 16 2.5
      vertex -14.9876 32.911 2.5
      vertex -15.0497 33.1021 2.5
    endloop
  endfacet
  facet normal 0 0 1
    outer loop
      vertex -12.8188 32.0523 2.5
      vertex -22 16 2.5
      vertex -2.5 2.5 2.5
    endloop
  endfacet
  facet normal -0 0 1
    outer loop
      vertex -22 11.1 2.5
      vertex -2.5 2.5 2.5
      vertex -22 16 2.5
    endloop
  endfacet
  facet normal 0 0 1
    outer loop
      vertex -24.7 2.5 2.5
      vertex -22 11.1 2.5
      vertex -24.7 11.1 2.5
    endloop
  endfacet
  facet normal 0 0 1
    outer loop
      vertex -22 11.1 2.5
      vertex -24.7 2.5 2.5
      vertex -2.5 2.5 2.5
    endloop
  endfacet
  facet normal 0 1 0
    outer loop
      vertex -2.5 2.5 24.5
      vertex -13.3995 2.5 15.0968
      vertex -24.7 2.5 24.5
    endloop
  endfacet
  facet normal 0 1 0
    outer loop
      vertex -2.5 2.5 24.5
      vertex -13.2002 2.5 15.0717
      vertex -13.3995 2.5 15.0968
    endloop
  endfacet
  facet normal 0 1 0
    outer loop
      vertex -2.5 2.5 24.5
      vertex -13.0056 2.5 15.0217
      vertex -13.2002 2.5 15.0717
    endloop
  endfacet
  facet normal 0 1 0
    outer loop
      vertex -2.5 2.5 24.5
      vertex -12.8188 2.5 14.9477
      vertex -13.0056 2.5 15.0217
    endloop
  endfacet
  facet normal 0 1 0
    outer loop
      vertex -2.5 2.5 24.5
      vertex -12.6427 2.5 14.8509
      vertex -12.8188 2.5 14.9477
    endloop
  endfacet
  facet normal 0 1 0
    outer loop
      vertex -2.5 2.5 24.5
      vertex -12.4801 2.5 14.7328
      vertex -12.6427 2.5 14.8509
    endloop
  endfacet
  facet normal 0 1 0
    outer loop
      vertex -2.5 2.5 24.5
      vertex -12.3336 2.5 14.5953
      vertex -12.4801 2.5 14.7328
    endloop
  endfacet
  facet normal 0 1 0
    outer loop
      vertex -2.5 2.5 24.5
      vertex -12.2056 2.5 14.4405
      vertex -12.3336 2.5 14.5953
    endloop
  endfacet
  facet normal 0 1 0
    outer loop
      vertex -2.5 2.5 24.5
      vertex -12.0979 2.5 14.2708
      vertex -12.2056 2.5 14.4405
    endloop
  endfacet
  facet normal 0 1 0
    outer loop
      vertex -2.5 2.5 24.5
      vertex -12.0124 2.5 14.089
      vertex -12.0979 2.5 14.2708
    endloop
  endfacet
  facet normal 0 1 0
    outer loop
      vertex -2.5 2.5 24.5
      vertex -11.9503 2.5 13.8979
      vertex -12.0124 2.5 14.089
    endloop
  endfacet
  facet normal 0 1 0
    outer loop
      vertex -2.5 2.5 24.5
      vertex -11.9126 2.5 13.7005
      vertex -11.9503 2.5 13.8979
    endloop
  endfacet
  facet normal 0 1 0
    outer loop
      vertex -2.5 2.5 24.5
      vertex -11.9 2.5 13.5
      vertex -11.9126 2.5 13.7005
    endloop
  endfacet
  facet normal 0 1 -0
    outer loop
      vertex -2.5 2.5 2.5
      vertex -11.9 2.5 13.5
      vertex -2.5 2.5 24.5
    endloop
  endfacet
  facet normal 0 1 0
    outer loop
      vertex -11.9 2.5 13.5
      vertex -2.5 2.5 2.5
      vertex -11.9126 2.5 13.2995
    endloop
  endfacet
  facet normal 0 1 0
    outer loop
      vertex -11.9126 2.5 13.2995
      vertex -2.5 2.5 2.5
      vertex -11.9503 2.5 13.1021
    endloop
  endfacet
  facet normal 0 1 0
    outer loop
      vertex -11.9503 2.5 13.1021
      vertex -2.5 2.5 2.5
      vertex -12.0124 2.5 12.911
    endloop
  endfacet
  facet normal 0 1 0
    outer loop
      vertex -12.0124 2.5 12.911
      vertex -2.5 2.5 2.5
      vertex -12.0979 2.5 12.7292
    endloop
  endfacet
  facet normal 0 1 0
    outer loop
      vertex -13.3995 2.5 11.9032
      vertex -2.5 2.5 2.5
      vertex -13.6005 2.5 11.9032
    endloop
  endfacet
  facet normal 0 1 0
    outer loop
      vertex -13.2002 2.5 11.9283
      vertex -2.5 2.5 2.5
      vertex -13.3995 2.5 11.9032
    endloop
  endfacet
  facet normal 0 1 0
    outer loop
      vertex -13.0056 2.5 11.9783
      vertex -2.5 2.5 2.5
      vertex -13.2002 2.5 11.9283
    endloop
  endfacet
  facet normal 0 1 0
    outer loop
      vertex -12.8188 2.5 12.0523
      vertex -2.5 2.5 2.5
      vertex -13.0056 2.5 11.9783
    endloop
  endfacet
  facet normal 0 1 0
    outer loop
      vertex -12.6427 2.5 12.1491
      vertex -2.5 2.5 2.5
      vertex -12.8188 2.5 12.0523
    endloop
  endfacet
  facet normal 0 1 0
    outer loop
      vertex -12.4801 2.5 12.2672
      vertex -2.5 2.5 2.5
      vertex -12.6427 2.5 12.1491
    endloop
  endfacet
  facet normal 0 1 0
    outer loop
      vertex -12.3336 2.5 12.4047
      vertex -2.5 2.5 2.5
      vertex -12.4801 2.5 12.2672
    endloop
  endfacet
  facet normal 0 1 0
    outer loop
      vertex -12.2056 2.5 12.5595
      vertex -2.5 2.5 2.5
      vertex -12.3336 2.5 12.4047
    endloop
  endfacet
  facet normal 0 1 0
    outer loop
      vertex -12.0979 2.5 12.7292
      vertex -2.5 2.5 2.5
      vertex -12.2056 2.5 12.5595
    endloop
  endfacet
  facet normal 0 1 -0
    outer loop
      vertex -13.6005 2.5 15.0968
      vertex -24.7 2.5 24.5
      vertex -13.3995 2.5 15.0968
    endloop
  endfacet
  facet normal 0 1 -0
    outer loop
      vertex -13.7998 2.5 15.0717
      vertex -24.7 2.5 24.5
      vertex -13.6005 2.5 15.0968
    endloop
  endfacet
  facet normal 0 1 -0
    outer loop
      vertex -13.9944 2.5 15.0217
      vertex -24.7 2.5 24.5
      vertex -13.7998 2.5 15.0717
    endloop
  endfacet
  facet normal 0 1 -0
    outer loop
      vertex -14.1812 2.5 14.9477
      vertex -24.7 2.5 24.5
      vertex -13.9944 2.5 15.0217
    endloop
  endfacet
  facet normal 0 1 -0
    outer loop
      vertex -14.3573 2.5 14.8509
      vertex -24.7 2.5 24.5
      vertex -14.1812 2.5 14.9477
    endloop
  endfacet
  facet normal 0 1 -0
    outer loop
      vertex -14.5199 2.5 14.7328
      vertex -24.7 2.5 24.5
      vertex -14.3573 2.5 14.8509
    endloop
  endfacet
  facet normal 0 1 -0
    outer loop
      vertex -14.6663 2.5 14.5953
      vertex -24.7 2.5 24.5
      vertex -14.5199 2.5 14.7328
    endloop
  endfacet
  facet normal 0 1 -0
    outer loop
      vertex -14.7944 2.5 14.4405
      vertex -24.7 2.5 24.5
      vertex -14.6663 2.5 14.5953
    endloop
  endfacet
  facet normal 0 1 -0
    outer loop
      vertex -14.9021 2.5 14.2708
      vertex -24.7 2.5 24.5
      vertex -14.7944 2.5 14.4405
    endloop
  endfacet
  facet normal 0 1 -0
    outer loop
      vertex -14.9876 2.5 14.089
      vertex -24.7 2.5 24.5
      vertex -14.9021 2.5 14.2708
    endloop
  endfacet
  facet normal 0 1 -0
    outer loop
      vertex -15.0497 2.5 13.8979
      vertex -24.7 2.5 24.5
      vertex -14.9876 2.5 14.089
    endloop
  endfacet
  facet normal 0 1 -0
    outer loop
      vertex -15.0874 2.5 13.7005
      vertex -24.7 2.5 24.5
      vertex -15.0497 2.5 13.8979
    endloop
  endfacet
  facet normal 0 1 -0
    outer loop
      vertex -15.1 2.5 13.5
      vertex -24.7 2.5 24.5
      vertex -15.0874 2.5 13.7005
    endloop
  endfacet
  facet normal 0 1 0
    outer loop
      vertex -24.7 2.5 2.5
      vertex -15.1 2.5 13.5
      vertex -15.0874 2.5 13.2995
    endloop
  endfacet
  facet normal 0 1 0
    outer loop
      vertex -24.7 2.5 2.5
      vertex -15.0874 2.5 13.2995
      vertex -15.0497 2.5 13.1021
    endloop
  endfacet
  facet normal 0 1 0
    outer loop
      vertex -24.7 2.5 2.5
      vertex -15.0497 2.5 13.1021
      vertex -14.9876 2.5 12.911
    endloop
  endfacet
  facet normal 0 1 0
    outer loop
      vertex -24.7 2.5 2.5
      vertex -14.9876 2.5 12.911
      vertex -14.9021 2.5 12.7292
    endloop
  endfacet
  facet normal 0 1 0
    outer loop
      vertex -24.7 2.5 2.5
      vertex -14.9021 2.5 12.7292
      vertex -14.7944 2.5 12.5595
    endloop
  endfacet
  facet normal 0 1 0
    outer loop
      vertex -24.7 2.5 2.5
      vertex -14.7944 2.5 12.5595
      vertex -14.6663 2.5 12.4047
    endloop
  endfacet
  facet normal 0 1 0
    outer loop
      vertex -24.7 2.5 2.5
      vertex -13.6005 2.5 11.9032
      vertex -2.5 2.5 2.5
    endloop
  endfacet
  facet normal 0 1 0
    outer loop
      vertex -13.6005 2.5 11.9032
      vertex -24.7 2.5 2.5
      vertex -13.7998 2.5 11.9283
    endloop
  endfacet
  facet normal 0 1 0
    outer loop
      vertex -13.7998 2.5 11.9283
      vertex -24.7 2.5 2.5
      vertex -13.9944 2.5 11.9783
    endloop
  endfacet
  facet normal 0 1 0
    outer loop
      vertex -13.9944 2.5 11.9783
      vertex -24.7 2.5 2.5
      vertex -14.1812 2.5 12.0523
    endloop
  endfacet
  facet normal 0 1 0
    outer loop
      vertex -14.1812 2.5 12.0523
      vertex -24.7 2.5 2.5
      vertex -14.3573 2.5 12.1491
    endloop
  endfacet
  facet normal 0 1 0
    outer loop
      vertex -15.1 2.5 13.5
      vertex -24.7 2.5 2.5
      vertex -24.7 2.5 24.5
    endloop
  endfacet
  facet normal 0 1 0
    outer loop
      vertex -14.5199 2.5 12.2672
      vertex -24.7 2.5 2.5
      vertex -14.6663 2.5 12.4047
    endloop
  endfacet
  facet normal 0 1 0
    outer loop
      vertex -14.3573 2.5 12.1491
      vertex -24.7 2.5 2.5
      vertex -14.5199 2.5 12.2672
    endloop
  endfacet
  facet normal -1 0 0
    outer loop
      vertex -27.5 14.5 11.5
      vertex -27.5 42.9 19.1
      vertex -27.5 42.9 2.5
    endloop
  endfacet
  facet normal -1 0 0
    outer loop
      vertex -27.5 14.5 11.5
      vertex -27.5 42.9 2.5
      vertex -27.5 16.3284 2.5
    endloop
  endfacet
  facet normal -1 0 0
    outer loop
      vertex -27.5 14.5 11.5
      vertex -27.5 16.3284 2.5
      vertex -27.5 14.5 4.32843
    endloop
  endfacet
  facet normal -1 -0 0
    outer loop
      vertex -27.5 42.9 19.1
      vertex -27.5 14.5 11.5
      vertex -27.5 37.5 24.5
    endloop
  endfacet
  facet normal -1 0 0
    outer loop
      vertex -27.5 11.5 14.5
      vertex -27.5 37.5 24.5
      vertex -27.5 14.5 11.5
    endloop
  endfacet
  facet normal -1 0 0
    outer loop
      vertex -27.5 2.5 16.3284
      vertex -27.5 11.5 14.5
      vertex -27.5 4.32843 14.5
    endloop
  endfacet
  facet normal -1 0 0
    outer loop
      vertex -27.5 11.5 14.5
      vertex -27.5 2.5 16.3284
      vertex -27.5 2.5 24.5
    endloop
  endfacet
  facet normal -1 0 0
    outer loop
      vertex -27.5 11.5 14.5
      vertex -27.5 2.5 24.5
      vertex -27.5 37.5 24.5
    endloop
  endfacet
  facet normal -0 0 1
    outer loop
      vertex -37 33.4 2.5
      vertex -27.5 16.3284 2.5
      vertex -27.5 42.9 2.5
    endloop
  endfacet
  facet normal 0 0 1
    outer loop
      vertex -27.5 16.3284 2.5
      vertex -37 33.4 2.5
      vertex -37 16.3284 2.5
    endloop
  endfacet
  facet normal 0 1 -0
    outer loop
      vertex -27.5 2.5 16.3284
      vertex -29.1031 2.5 24.5
      vertex -27.5 2.5 24.5
    endloop
  endfacet
  facet normal 0 1 0
    outer loop
      vertex -29.1031 2.5 24.5
      vertex -27.5 2.5 16.3284
      vertex -37 2.5 17.8737
    endloop
  endfacet
  facet normal 0 1 0
    outer loop
      vertex -37 2.5 17.8737
      vertex -27.5 2.5 16.3284
      vertex -37 2.5 16.3284
    endloop
  endfacet
  facet normal 0 0.707107 0.707107
    outer loop
      vertex 0 43 19
      vertex -2.5 37.5 24.5
      vertex 0 37.5 24.5
    endloop
  endfacet
  facet normal 0 0.707107 0.707107
    outer loop
      vertex -2.5 37.5 24.5
      vertex 0 43 19
      vertex -2.5 43 19
    endloop
  endfacet
  facet normal 0 0.707107 0.707107
    outer loop
      vertex -24.7 37.5 24.5
      vertex -27.5 42.9 19.1
      vertex -27.5 37.5 24.5
    endloop
  endfacet
  facet normal -4.81678e-07 0.707107 0.707107
    outer loop
      vertex -24.7 43 19
      vertex -27.5 42.9 19.1
      vertex -24.7 37.5 24.5
    endloop
  endfacet
  facet normal 0 0.7071 0.707114
    outer loop
      vertex -27.5 42.9 19.1
      vertex -24.7 43 19
      vertex -27.4 43 19
    endloop
  endfacet
  facet normal -0.642788 0 0.766044
    outer loop
      vertex -37 2.5 17.8737
      vertex -29.1031 0 24.5
      vertex -29.1031 2.5 24.5
    endloop
  endfacet
  facet normal -0.642788 0 0.766044
    outer loop
      vertex -29.1031 0 24.5
      vertex -37 2.5 17.8737
      vertex -37 0 17.8737
    endloop
  endfacet
  facet normal -0.707114 0.7071 0
    outer loop
      vertex -27.4 43 0
      vertex -27.5 42.9 2.5
      vertex -27.4 43 19
    endloop
  endfacet
  facet normal -0.707107 0.707107 5.3386e-07
    outer loop
      vertex -37 33.4 0
      vertex -27.5 42.9 2.5
      vertex -27.4 43 0
    endloop
  endfacet
  facet normal -0.707107 0.707107 0
    outer loop
      vertex -27.5 42.9 2.5
      vertex -37 33.4 0
      vertex -37 33.4 2.5
    endloop
  endfacet
  facet normal -0.707114 0.7071 0
    outer loop
      vertex -27.4 43 19
      vertex -27.5 42.9 2.5
      vertex -27.5 42.9 19.1
    endloop
  endfacet
  facet normal 0.998027 -0.0627896 0
    outer loop
      vertex -15.1 33.5 2.5
      vertex -15.0874 33.7005 0
      vertex -15.0874 33.7005 2.5
    endloop
  endfacet
  facet normal 0.998027 -0.0627896 0
    outer loop
      vertex -15.0874 33.7005 0
      vertex -15.1 33.5 2.5
      vertex -15.1 33.5 0
    endloop
  endfacet
  facet normal -0.125322 -0.992116 0
    outer loop
      vertex -13.3995 35.0968 0
      vertex -13.2002 35.0717 2.5
      vertex -13.3995 35.0968 2.5
    endloop
  endfacet
  facet normal -0.125322 -0.992116 -0
    outer loop
      vertex -13.2002 35.0717 2.5
      vertex -13.3995 35.0968 0
      vertex -13.2002 35.0717 0
    endloop
  endfacet
  facet normal 0.125341 0.992114 -0
    outer loop
      vertex -13.6005 31.9032 0
      vertex -13.7998 31.9283 2.5
      vertex -13.6005 31.9032 2.5
    endloop
  endfacet
  facet normal 0.125341 0.992114 0
    outer loop
      vertex -13.7998 31.9283 2.5
      vertex -13.6005 31.9032 0
      vertex -13.7998 31.9283 0
    endloop
  endfacet
  facet normal 0.770514 0.637423 0
    outer loop
      vertex -14.6663 32.4047 2.5
      vertex -14.7944 32.5595 0
      vertex -14.7944 32.5595 2.5
    endloop
  endfacet
  facet normal 0.770514 0.637423 0
    outer loop
      vertex -14.7944 32.5595 0
      vertex -14.6663 32.4047 2.5
      vertex -14.6663 32.4047 0
    endloop
  endfacet
  facet normal 0.587798 -0.809008 0
    outer loop
      vertex -14.5199 34.7328 0
      vertex -14.3573 34.8509 2.5
      vertex -14.5199 34.7328 2.5
    endloop
  endfacet
  facet normal 0.587798 -0.809008 0
    outer loop
      vertex -14.3573 34.8509 2.5
      vertex -14.5199 34.7328 0
      vertex -14.3573 34.8509 0
    endloop
  endfacet
  facet normal -0.770514 -0.637423 0
    outer loop
      vertex -12.2056 34.4405 0
      vertex -12.3336 34.5953 2.5
      vertex -12.3336 34.5953 0
    endloop
  endfacet
  facet normal -0.770514 -0.637423 0
    outer loop
      vertex -12.3336 34.5953 2.5
      vertex -12.2056 34.4405 0
      vertex -12.2056 34.4405 2.5
    endloop
  endfacet
  facet normal -0.481751 -0.876308 0
    outer loop
      vertex -12.8188 34.9477 0
      vertex -12.6427 34.8509 2.5
      vertex -12.8188 34.9477 2.5
    endloop
  endfacet
  facet normal -0.481751 -0.876308 -0
    outer loop
      vertex -12.6427 34.8509 2.5
      vertex -12.8188 34.9477 0
      vertex -12.6427 34.8509 0
    endloop
  endfacet
  facet normal 0.844329 -0.535824 0
    outer loop
      vertex -14.9021 34.2708 2.5
      vertex -14.7944 34.4405 0
      vertex -14.7944 34.4405 2.5
    endloop
  endfacet
  facet normal 0.844329 -0.535824 0
    outer loop
      vertex -14.7944 34.4405 0
      vertex -14.9021 34.2708 2.5
      vertex -14.9021 34.2708 0
    endloop
  endfacet
  facet normal 0.770514 -0.637423 0
    outer loop
      vertex -14.7944 34.4405 2.5
      vertex -14.6663 34.5953 0
      vertex -14.6663 34.5953 2.5
    endloop
  endfacet
  facet normal 0.770514 -0.637423 0
    outer loop
      vertex -14.6663 34.5953 0
      vertex -14.7944 34.4405 2.5
      vertex -14.7944 34.4405 0
    endloop
  endfacet
  facet normal 0.248688 -0.968584 0
    outer loop
      vertex -13.9944 35.0217 0
      vertex -13.7998 35.0717 2.5
      vertex -13.9944 35.0217 2.5
    endloop
  endfacet
  facet normal 0.248688 -0.968584 0
    outer loop
      vertex -13.7998 35.0717 2.5
      vertex -13.9944 35.0217 0
      vertex -13.7998 35.0717 0
    endloop
  endfacet
  facet normal 0.125322 -0.992116 0
    outer loop
      vertex -13.7998 35.0717 0
      vertex -13.6005 35.0968 2.5
      vertex -13.7998 35.0717 2.5
    endloop
  endfacet
  facet normal 0.125322 -0.992116 0
    outer loop
      vertex -13.6005 35.0968 2.5
      vertex -13.7998 35.0717 0
      vertex -13.6005 35.0968 0
    endloop
  endfacet
  facet normal 0.368123 -0.929777 0
    outer loop
      vertex -14.1812 34.9477 0
      vertex -13.9944 35.0217 2.5
      vertex -14.1812 34.9477 2.5
    endloop
  endfacet
  facet normal 0.368123 -0.929777 0
    outer loop
      vertex -13.9944 35.0217 2.5
      vertex -14.1812 34.9477 0
      vertex -13.9944 35.0217 0
    endloop
  endfacet
  facet normal -0.951057 -0.309017 0
    outer loop
      vertex -11.9503 33.8979 0
      vertex -12.0124 34.089 2.5
      vertex -12.0124 34.089 0
    endloop
  endfacet
  facet normal -0.951057 -0.309017 0
    outer loop
      vertex -12.0124 34.089 2.5
      vertex -11.9503 33.8979 0
      vertex -11.9503 33.8979 2.5
    endloop
  endfacet
  facet normal -0.904828 -0.425778 0
    outer loop
      vertex -12.0124 34.089 0
      vertex -12.0979 34.2708 2.5
      vertex -12.0979 34.2708 0
    endloop
  endfacet
  facet normal -0.904828 -0.425778 0
    outer loop
      vertex -12.0979 34.2708 2.5
      vertex -12.0124 34.089 0
      vertex -12.0124 34.089 2.5
    endloop
  endfacet
  facet normal -0.982287 -0.187383 0
    outer loop
      vertex -11.9126 33.7005 0
      vertex -11.9503 33.8979 2.5
      vertex -11.9503 33.8979 0
    endloop
  endfacet
  facet normal -0.982287 -0.187383 0
    outer loop
      vertex -11.9503 33.8979 2.5
      vertex -11.9126 33.7005 0
      vertex -11.9126 33.7005 2.5
    endloop
  endfacet
  facet normal -0.684538 -0.728978 0
    outer loop
      vertex -12.4801 34.7328 0
      vertex -12.3336 34.5953 2.5
      vertex -12.4801 34.7328 2.5
    endloop
  endfacet
  facet normal -0.684538 -0.728978 -0
    outer loop
      vertex -12.3336 34.5953 2.5
      vertex -12.4801 34.7328 0
      vertex -12.3336 34.5953 0
    endloop
  endfacet
  facet normal -0.248688 -0.968584 0
    outer loop
      vertex -13.2002 35.0717 0
      vertex -13.0056 35.0217 2.5
      vertex -13.2002 35.0717 2.5
    endloop
  endfacet
  facet normal -0.248688 -0.968584 -0
    outer loop
      vertex -13.0056 35.0217 2.5
      vertex -13.2002 35.0717 0
      vertex -13.0056 35.0217 0
    endloop
  endfacet
  facet normal 0.248688 0.968584 -0
    outer loop
      vertex -13.7998 31.9283 0
      vertex -13.9944 31.9783 2.5
      vertex -13.7998 31.9283 2.5
    endloop
  endfacet
  facet normal 0.248688 0.968584 0
    outer loop
      vertex -13.9944 31.9783 2.5
      vertex -13.7998 31.9283 0
      vertex -13.9944 31.9783 0
    endloop
  endfacet
  facet normal 0.951057 -0.309017 0
    outer loop
      vertex -15.0497 33.8979 2.5
      vertex -14.9876 34.089 0
      vertex -14.9876 34.089 2.5
    endloop
  endfacet
  facet normal 0.951057 -0.309017 0
    outer loop
      vertex -14.9876 34.089 0
      vertex -15.0497 33.8979 2.5
      vertex -15.0497 33.8979 0
    endloop
  endfacet
  facet normal 0.982287 -0.187383 0
    outer loop
      vertex -15.0874 33.7005 2.5
      vertex -15.0497 33.8979 0
      vertex -15.0497 33.8979 2.5
    endloop
  endfacet
  facet normal 0.982287 -0.187383 0
    outer loop
      vertex -15.0497 33.8979 0
      vertex -15.0874 33.7005 2.5
      vertex -15.0874 33.7005 0
    endloop
  endfacet
  facet normal 0.904828 -0.425778 0
    outer loop
      vertex -14.9876 34.089 2.5
      vertex -14.9021 34.2708 0
      vertex -14.9021 34.2708 2.5
    endloop
  endfacet
  facet normal 0.904828 -0.425778 0
    outer loop
      vertex -14.9021 34.2708 0
      vertex -14.9876 34.089 2.5
      vertex -14.9876 34.089 0
    endloop
  endfacet
  facet normal 0.684538 -0.728978 0
    outer loop
      vertex -14.6663 34.5953 0
      vertex -14.5199 34.7328 2.5
      vertex -14.6663 34.5953 2.5
    endloop
  endfacet
  facet normal 0.684538 -0.728978 0
    outer loop
      vertex -14.5199 34.7328 2.5
      vertex -14.6663 34.5953 0
      vertex -14.5199 34.7328 0
    endloop
  endfacet
  facet normal 0 -1 0
    outer loop
      vertex -13.6005 35.0968 0
      vertex -13.3995 35.0968 2.5
      vertex -13.6005 35.0968 2.5
    endloop
  endfacet
  facet normal 0 -1 -0
    outer loop
      vertex -13.3995 35.0968 2.5
      vertex -13.6005 35.0968 0
      vertex -13.3995 35.0968 0
    endloop
  endfacet
  facet normal 0.481751 -0.876308 0
    outer loop
      vertex -14.3573 34.8509 0
      vertex -14.1812 34.9477 2.5
      vertex -14.3573 34.8509 2.5
    endloop
  endfacet
  facet normal 0.481751 -0.876308 0
    outer loop
      vertex -14.1812 34.9477 2.5
      vertex -14.3573 34.8509 0
      vertex -14.1812 34.9477 0
    endloop
  endfacet
  facet normal -0.844329 -0.535824 0
    outer loop
      vertex -12.0979 34.2708 0
      vertex -12.2056 34.4405 2.5
      vertex -12.2056 34.4405 0
    endloop
  endfacet
  facet normal -0.844329 -0.535824 0
    outer loop
      vertex -12.2056 34.4405 2.5
      vertex -12.0979 34.2708 0
      vertex -12.0979 34.2708 2.5
    endloop
  endfacet
  facet normal -0.998027 -0.0627896 0
    outer loop
      vertex -11.9 33.5 0
      vertex -11.9126 33.7005 2.5
      vertex -11.9126 33.7005 0
    endloop
  endfacet
  facet normal -0.998027 -0.0627896 0
    outer loop
      vertex -11.9126 33.7005 2.5
      vertex -11.9 33.5 0
      vertex -11.9 33.5 2.5
    endloop
  endfacet
  facet normal -0.587798 -0.809008 0
    outer loop
      vertex -12.6427 34.8509 0
      vertex -12.4801 34.7328 2.5
      vertex -12.6427 34.8509 2.5
    endloop
  endfacet
  facet normal -0.587798 -0.809008 -0
    outer loop
      vertex -12.4801 34.7328 2.5
      vertex -12.6427 34.8509 0
      vertex -12.4801 34.7328 0
    endloop
  endfacet
  facet normal 0.951058 0.309011 0
    outer loop
      vertex -14.9876 32.911 2.5
      vertex -15.0497 33.1021 0
      vertex -15.0497 33.1021 2.5
    endloop
  endfacet
  facet normal 0.951058 0.309011 0
    outer loop
      vertex -15.0497 33.1021 0
      vertex -14.9876 32.911 2.5
      vertex -14.9876 32.911 0
    endloop
  endfacet
  facet normal 0.982286 0.187386 0
    outer loop
      vertex -15.0497 33.1021 2.5
      vertex -15.0874 33.2995 0
      vertex -15.0874 33.2995 2.5
    endloop
  endfacet
  facet normal 0.982286 0.187386 0
    outer loop
      vertex -15.0874 33.2995 0
      vertex -15.0497 33.1021 2.5
      vertex -15.0497 33.1021 0
    endloop
  endfacet
  facet normal -0.770514 0.637423 0
    outer loop
      vertex -12.3336 32.4047 0
      vertex -12.2056 32.5595 2.5
      vertex -12.2056 32.5595 0
    endloop
  endfacet
  facet normal -0.770514 0.637423 0
    outer loop
      vertex -12.2056 32.5595 2.5
      vertex -12.3336 32.4047 0
      vertex -12.3336 32.4047 2.5
    endloop
  endfacet
  facet normal -0.844329 0.535824 0
    outer loop
      vertex -12.2056 32.5595 0
      vertex -12.0979 32.7292 2.5
      vertex -12.0979 32.7292 0
    endloop
  endfacet
  facet normal -0.844329 0.535824 0
    outer loop
      vertex -12.0979 32.7292 2.5
      vertex -12.2056 32.5595 0
      vertex -12.2056 32.5595 2.5
    endloop
  endfacet
  facet normal 0.684548 0.728968 -0
    outer loop
      vertex -14.5199 32.2672 0
      vertex -14.6663 32.4047 2.5
      vertex -14.5199 32.2672 2.5
    endloop
  endfacet
  facet normal 0.684548 0.728968 0
    outer loop
      vertex -14.6663 32.4047 2.5
      vertex -14.5199 32.2672 0
      vertex -14.6663 32.4047 0
    endloop
  endfacet
  facet normal 0.481751 0.876308 -0
    outer loop
      vertex -14.1812 32.0523 0
      vertex -14.3573 32.1491 2.5
      vertex -14.1812 32.0523 2.5
    endloop
  endfacet
  facet normal 0.481751 0.876308 0
    outer loop
      vertex -14.3573 32.1491 2.5
      vertex -14.1812 32.0523 0
      vertex -14.3573 32.1491 0
    endloop
  endfacet
  facet normal -0.998027 0.0627884 0
    outer loop
      vertex -11.9126 33.2995 0
      vertex -11.9 33.5 2.5
      vertex -11.9 33.5 0
    endloop
  endfacet
  facet normal -0.998027 0.0627884 0
    outer loop
      vertex -11.9 33.5 2.5
      vertex -11.9126 33.2995 0
      vertex -11.9126 33.2995 2.5
    endloop
  endfacet
  facet normal -0.368123 -0.929777 0
    outer loop
      vertex -13.0056 35.0217 0
      vertex -12.8188 34.9477 2.5
      vertex -13.0056 35.0217 2.5
    endloop
  endfacet
  facet normal -0.368123 -0.929777 -0
    outer loop
      vertex -12.8188 34.9477 2.5
      vertex -13.0056 35.0217 0
      vertex -12.8188 34.9477 0
    endloop
  endfacet
  facet normal 0.998027 0.0627884 0
    outer loop
      vertex -15.0874 33.2995 2.5
      vertex -15.1 33.5 0
      vertex -15.1 33.5 2.5
    endloop
  endfacet
  facet normal 0.998027 0.0627884 0
    outer loop
      vertex -15.1 33.5 0
      vertex -15.0874 33.2995 2.5
      vertex -15.0874 33.2995 0
    endloop
  endfacet
  facet normal -0.248688 0.968584 0
    outer loop
      vertex -13.0056 31.9783 0
      vertex -13.2002 31.9283 2.5
      vertex -13.0056 31.9783 2.5
    endloop
  endfacet
  facet normal -0.248688 0.968584 0
    outer loop
      vertex -13.2002 31.9283 2.5
      vertex -13.0056 31.9783 0
      vertex -13.2002 31.9283 0
    endloop
  endfacet
  facet normal -0.684548 0.728968 0
    outer loop
      vertex -12.3336 32.4047 0
      vertex -12.4801 32.2672 2.5
      vertex -12.3336 32.4047 2.5
    endloop
  endfacet
  facet normal -0.684548 0.728968 0
    outer loop
      vertex -12.4801 32.2672 2.5
      vertex -12.3336 32.4047 0
      vertex -12.4801 32.2672 0
    endloop
  endfacet
  facet normal -0.904824 0.425785 0
    outer loop
      vertex -12.0979 32.7292 0
      vertex -12.0124 32.911 2.5
      vertex -12.0124 32.911 0
    endloop
  endfacet
  facet normal -0.904824 0.425785 0
    outer loop
      vertex -12.0124 32.911 2.5
      vertex -12.0979 32.7292 0
      vertex -12.0979 32.7292 2.5
    endloop
  endfacet
  facet normal -0.982286 0.187386 0
    outer loop
      vertex -11.9503 33.1021 0
      vertex -11.9126 33.2995 2.5
      vertex -11.9126 33.2995 0
    endloop
  endfacet
  facet normal -0.982286 0.187386 0
    outer loop
      vertex -11.9126 33.2995 2.5
      vertex -11.9503 33.1021 0
      vertex -11.9503 33.1021 2.5
    endloop
  endfacet
  facet normal 0.587786 0.809017 -0
    outer loop
      vertex -14.3573 32.1491 0
      vertex -14.5199 32.2672 2.5
      vertex -14.3573 32.1491 2.5
    endloop
  endfacet
  facet normal 0.587786 0.809017 0
    outer loop
      vertex -14.5199 32.2672 2.5
      vertex -14.3573 32.1491 0
      vertex -14.5199 32.2672 0
    endloop
  endfacet
  facet normal 0.368123 0.929777 -0
    outer loop
      vertex -13.9944 31.9783 0
      vertex -14.1812 32.0523 2.5
      vertex -13.9944 31.9783 2.5
    endloop
  endfacet
  facet normal 0.368123 0.929777 0
    outer loop
      vertex -14.1812 32.0523 2.5
      vertex -13.9944 31.9783 0
      vertex -14.1812 32.0523 0
    endloop
  endfacet
  facet normal 0.904824 0.425785 0
    outer loop
      vertex -14.9021 32.7292 2.5
      vertex -14.9876 32.911 0
      vertex -14.9876 32.911 2.5
    endloop
  endfacet
  facet normal 0.904824 0.425785 0
    outer loop
      vertex -14.9876 32.911 0
      vertex -14.9021 32.7292 2.5
      vertex -14.9021 32.7292 0
    endloop
  endfacet
  facet normal 0.844329 0.535824 0
    outer loop
      vertex -14.7944 32.5595 2.5
      vertex -14.9021 32.7292 0
      vertex -14.9021 32.7292 2.5
    endloop
  endfacet
  facet normal 0.844329 0.535824 0
    outer loop
      vertex -14.9021 32.7292 0
      vertex -14.7944 32.5595 2.5
      vertex -14.7944 32.5595 0
    endloop
  endfacet
  facet normal -0.125341 0.992114 0
    outer loop
      vertex -13.2002 31.9283 0
      vertex -13.3995 31.9032 2.5
      vertex -13.2002 31.9283 2.5
    endloop
  endfacet
  facet normal -0.125341 0.992114 0
    outer loop
      vertex -13.3995 31.9032 2.5
      vertex -13.2002 31.9283 0
      vertex -13.3995 31.9032 0
    endloop
  endfacet
  facet normal -0.587786 0.809017 0
    outer loop
      vertex -12.4801 32.2672 0
      vertex -12.6427 32.1491 2.5
      vertex -12.4801 32.2672 2.5
    endloop
  endfacet
  facet normal -0.587786 0.809017 0
    outer loop
      vertex -12.6427 32.1491 2.5
      vertex -12.4801 32.2672 0
      vertex -12.6427 32.1491 0
    endloop
  endfacet
  facet normal -0.951058 0.309011 0
    outer loop
      vertex -12.0124 32.911 0
      vertex -11.9503 33.1021 2.5
      vertex -11.9503 33.1021 0
    endloop
  endfacet
  facet normal -0.951058 0.309011 0
    outer loop
      vertex -11.9503 33.1021 2.5
      vertex -12.0124 32.911 0
      vertex -12.0124 32.911 2.5
    endloop
  endfacet
  facet normal -0.481751 0.876308 0
    outer loop
      vertex -12.6427 32.1491 0
      vertex -12.8188 32.0523 2.5
      vertex -12.6427 32.1491 2.5
    endloop
  endfacet
  facet normal -0.481751 0.876308 0
    outer loop
      vertex -12.8188 32.0523 2.5
      vertex -12.6427 32.1491 0
      vertex -12.8188 32.0523 0
    endloop
  endfacet
  facet normal -0.368123 0.929777 0
    outer loop
      vertex -12.8188 32.0523 0
      vertex -13.0056 31.9783 2.5
      vertex -12.8188 32.0523 2.5
    endloop
  endfacet
  facet normal -0.368123 0.929777 0
    outer loop
      vertex -13.0056 31.9783 2.5
      vertex -12.8188 32.0523 0
      vertex -13.0056 31.9783 0
    endloop
  endfacet
  facet normal 0 1 -0
    outer loop
      vertex -13.3995 31.9032 0
      vertex -13.6005 31.9032 2.5
      vertex -13.3995 31.9032 2.5
    endloop
  endfacet
  facet normal 0 1 0
    outer loop
      vertex -13.6005 31.9032 2.5
      vertex -13.3995 31.9032 0
      vertex -13.6005 31.9032 0
    endloop
  endfacet
  facet normal 0.904826 -0 0.425781
    outer loop
      vertex -14.9876 0 12.911
      vertex -14.9021 2.5 12.7292
      vertex -14.9876 2.5 12.911
    endloop
  endfacet
  facet normal 0.904826 0 0.425781
    outer loop
      vertex -14.9021 2.5 12.7292
      vertex -14.9876 0 12.911
      vertex -14.9021 0 12.7292
    endloop
  endfacet
  facet normal 0.844329 -0 0.535824
    outer loop
      vertex -14.9021 0 12.7292
      vertex -14.7944 2.5 12.5595
      vertex -14.9021 2.5 12.7292
    endloop
  endfacet
  facet normal 0.844329 0 0.535824
    outer loop
      vertex -14.7944 2.5 12.5595
      vertex -14.9021 0 12.7292
      vertex -14.7944 0 12.5595
    endloop
  endfacet
  facet normal 0.368127 0 0.929775
    outer loop
      vertex -14.1812 2.5 12.0523
      vertex -13.9944 0 11.9783
      vertex -13.9944 2.5 11.9783
    endloop
  endfacet
  facet normal 0.368127 0 0.929775
    outer loop
      vertex -13.9944 0 11.9783
      vertex -14.1812 2.5 12.0523
      vertex -14.1812 0 12.0523
    endloop
  endfacet
  facet normal -0.368127 0 0.929775
    outer loop
      vertex -13.0056 2.5 11.9783
      vertex -12.8188 0 12.0523
      vertex -12.8188 2.5 12.0523
    endloop
  endfacet
  facet normal -0.368127 0 0.929775
    outer loop
      vertex -12.8188 0 12.0523
      vertex -13.0056 2.5 11.9783
      vertex -13.0056 0 11.9783
    endloop
  endfacet
  facet normal -0.904826 0 0.425781
    outer loop
      vertex -12.0979 0 12.7292
      vertex -12.0124 2.5 12.911
      vertex -12.0979 2.5 12.7292
    endloop
  endfacet
  facet normal -0.904826 0 0.425781
    outer loop
      vertex -12.0124 2.5 12.911
      vertex -12.0979 0 12.7292
      vertex -12.0124 0 12.911
    endloop
  endfacet
  facet normal 0.982287 0 -0.187384
    outer loop
      vertex -15.0497 0 13.8979
      vertex -15.0874 2.5 13.7005
      vertex -15.0497 2.5 13.8979
    endloop
  endfacet
  facet normal 0.982287 0 -0.187384
    outer loop
      vertex -15.0874 2.5 13.7005
      vertex -15.0497 0 13.8979
      vertex -15.0874 0 13.7005
    endloop
  endfacet
  facet normal 0.481751 0 -0.876308
    outer loop
      vertex -14.3573 0 14.8509
      vertex -14.1812 2.5 14.9477
      vertex -14.1812 0 14.9477
    endloop
  endfacet
  facet normal 0.481751 0 -0.876308
    outer loop
      vertex -14.1812 2.5 14.9477
      vertex -14.3573 0 14.8509
      vertex -14.3573 2.5 14.8509
    endloop
  endfacet
  facet normal 0.125331 0 0.992115
    outer loop
      vertex -13.7998 2.5 11.9283
      vertex -13.6005 0 11.9032
      vertex -13.6005 2.5 11.9032
    endloop
  endfacet
  facet normal 0.125331 0 0.992115
    outer loop
      vertex -13.6005 0 11.9032
      vertex -13.7998 2.5 11.9283
      vertex -13.7998 0 11.9283
    endloop
  endfacet
  facet normal 0.587789 0 0.809015
    outer loop
      vertex -14.5199 2.5 12.2672
      vertex -14.3573 0 12.1491
      vertex -14.3573 2.5 12.1491
    endloop
  endfacet
  facet normal 0.587789 0 0.809015
    outer loop
      vertex -14.3573 0 12.1491
      vertex -14.5199 2.5 12.2672
      vertex -14.5199 0 12.2672
    endloop
  endfacet
  facet normal -0.998027 0 0.0627887
    outer loop
      vertex -11.9126 0 13.2995
      vertex -11.9 2.5 13.5
      vertex -11.9126 2.5 13.2995
    endloop
  endfacet
  facet normal -0.998027 0 0.0627887
    outer loop
      vertex -11.9 2.5 13.5
      vertex -11.9126 0 13.2995
      vertex -11.9 0 13.5
    endloop
  endfacet
  facet normal -0.982287 0 0.187384
    outer loop
      vertex -11.9503 0 13.1021
      vertex -11.9126 2.5 13.2995
      vertex -11.9503 2.5 13.1021
    endloop
  endfacet
  facet normal -0.982287 0 0.187384
    outer loop
      vertex -11.9126 2.5 13.2995
      vertex -11.9503 0 13.1021
      vertex -11.9126 0 13.2995
    endloop
  endfacet
  facet normal -0.770512 0 0.637425
    outer loop
      vertex -12.3336 0 12.4047
      vertex -12.2056 2.5 12.5595
      vertex -12.3336 2.5 12.4047
    endloop
  endfacet
  facet normal -0.770512 0 0.637425
    outer loop
      vertex -12.2056 2.5 12.5595
      vertex -12.3336 0 12.4047
      vertex -12.2056 0 12.5595
    endloop
  endfacet
  facet normal -0.481751 0 0.876308
    outer loop
      vertex -12.8188 2.5 12.0523
      vertex -12.6427 0 12.1491
      vertex -12.6427 2.5 12.1491
    endloop
  endfacet
  facet normal -0.481751 0 0.876308
    outer loop
      vertex -12.6427 0 12.1491
      vertex -12.8188 2.5 12.0523
      vertex -12.8188 0 12.0523
    endloop
  endfacet
  facet normal -0.587789 0 0.809015
    outer loop
      vertex -12.6427 2.5 12.1491
      vertex -12.4801 0 12.2672
      vertex -12.4801 2.5 12.2672
    endloop
  endfacet
  facet normal -0.587789 0 0.809015
    outer loop
      vertex -12.4801 0 12.2672
      vertex -12.6427 2.5 12.1491
      vertex -12.6427 0 12.1491
    endloop
  endfacet
  facet normal 0.684545 0 -0.728971
    outer loop
      vertex -14.6663 0 14.5953
      vertex -14.5199 2.5 14.7328
      vertex -14.5199 0 14.7328
    endloop
  endfacet
  facet normal 0.684545 0 -0.728971
    outer loop
      vertex -14.5199 2.5 14.7328
      vertex -14.6663 0 14.5953
      vertex -14.6663 2.5 14.5953
    endloop
  endfacet
  facet normal 0.951058 0 -0.309014
    outer loop
      vertex -14.9876 0 14.089
      vertex -15.0497 2.5 13.8979
      vertex -14.9876 2.5 14.089
    endloop
  endfacet
  facet normal 0.951058 0 -0.309014
    outer loop
      vertex -15.0497 2.5 13.8979
      vertex -14.9876 0 14.089
      vertex -15.0497 0 13.8979
    endloop
  endfacet
  facet normal -0.125331 0 -0.992115
    outer loop
      vertex -13.3995 0 15.0968
      vertex -13.2002 2.5 15.0717
      vertex -13.2002 0 15.0717
    endloop
  endfacet
  facet normal -0.125331 0 -0.992115
    outer loop
      vertex -13.2002 2.5 15.0717
      vertex -13.3995 0 15.0968
      vertex -13.3995 2.5 15.0968
    endloop
  endfacet
  facet normal 0.951058 -0 0.309014
    outer loop
      vertex -15.0497 0 13.1021
      vertex -14.9876 2.5 12.911
      vertex -15.0497 2.5 13.1021
    endloop
  endfacet
  facet normal 0.951058 0 0.309014
    outer loop
      vertex -14.9876 2.5 12.911
      vertex -15.0497 0 13.1021
      vertex -14.9876 0 12.911
    endloop
  endfacet
  facet normal 0.684545 0 0.728971
    outer loop
      vertex -14.6663 2.5 12.4047
      vertex -14.5199 0 12.2672
      vertex -14.5199 2.5 12.2672
    endloop
  endfacet
  facet normal 0.684545 0 0.728971
    outer loop
      vertex -14.5199 0 12.2672
      vertex -14.6663 2.5 12.4047
      vertex -14.6663 0 12.4047
    endloop
  endfacet
  facet normal -0 0 1
    outer loop
      vertex -13.6005 2.5 11.9032
      vertex -13.3995 0 11.9032
      vertex -13.3995 2.5 11.9032
    endloop
  endfacet
  facet normal 0 0 1
    outer loop
      vertex -13.3995 0 11.9032
      vertex -13.6005 2.5 11.9032
      vertex -13.6005 0 11.9032
    endloop
  endfacet
  facet normal 0.248688 0 0.968584
    outer loop
      vertex -13.9944 2.5 11.9783
      vertex -13.7998 0 11.9283
      vertex -13.7998 2.5 11.9283
    endloop
  endfacet
  facet normal 0.248688 0 0.968584
    outer loop
      vertex -13.7998 0 11.9283
      vertex -13.9944 2.5 11.9783
      vertex -13.9944 0 11.9783
    endloop
  endfacet
  facet normal -0.844329 0 0.535824
    outer loop
      vertex -12.2056 0 12.5595
      vertex -12.0979 2.5 12.7292
      vertex -12.2056 2.5 12.5595
    endloop
  endfacet
  facet normal -0.844329 0 0.535824
    outer loop
      vertex -12.0979 2.5 12.7292
      vertex -12.2056 0 12.5595
      vertex -12.0979 0 12.7292
    endloop
  endfacet
  facet normal -0.125331 0 0.992115
    outer loop
      vertex -13.3995 2.5 11.9032
      vertex -13.2002 0 11.9283
      vertex -13.2002 2.5 11.9283
    endloop
  endfacet
  facet normal -0.125331 0 0.992115
    outer loop
      vertex -13.2002 0 11.9283
      vertex -13.3995 2.5 11.9032
      vertex -13.3995 0 11.9032
    endloop
  endfacet
  facet normal -0.248688 0 0.968584
    outer loop
      vertex -13.2002 2.5 11.9283
      vertex -13.0056 0 11.9783
      vertex -13.0056 2.5 11.9783
    endloop
  endfacet
  facet normal -0.248688 0 0.968584
    outer loop
      vertex -13.0056 0 11.9783
      vertex -13.2002 2.5 11.9283
      vertex -13.2002 0 11.9283
    endloop
  endfacet
  facet normal -0.684545 0 0.728971
    outer loop
      vertex -12.4801 2.5 12.2672
      vertex -12.3336 0 12.4047
      vertex -12.3336 2.5 12.4047
    endloop
  endfacet
  facet normal -0.684545 0 0.728971
    outer loop
      vertex -12.3336 0 12.4047
      vertex -12.4801 2.5 12.2672
      vertex -12.4801 0 12.2672
    endloop
  endfacet
  facet normal 0.998027 -0 0.0627887
    outer loop
      vertex -15.1 0 13.5
      vertex -15.0874 2.5 13.2995
      vertex -15.1 2.5 13.5
    endloop
  endfacet
  facet normal 0.998027 0 0.0627887
    outer loop
      vertex -15.0874 2.5 13.2995
      vertex -15.1 0 13.5
      vertex -15.0874 0 13.2995
    endloop
  endfacet
  facet normal 0.844329 0 -0.535824
    outer loop
      vertex -14.7944 0 14.4405
      vertex -14.9021 2.5 14.2708
      vertex -14.7944 2.5 14.4405
    endloop
  endfacet
  facet normal 0.844329 0 -0.535824
    outer loop
      vertex -14.9021 2.5 14.2708
      vertex -14.7944 0 14.4405
      vertex -14.9021 0 14.2708
    endloop
  endfacet
  facet normal 0.904826 0 -0.425781
    outer loop
      vertex -14.9021 0 14.2708
      vertex -14.9876 2.5 14.089
      vertex -14.9021 2.5 14.2708
    endloop
  endfacet
  facet normal 0.904826 0 -0.425781
    outer loop
      vertex -14.9876 2.5 14.089
      vertex -14.9021 0 14.2708
      vertex -14.9876 0 14.089
    endloop
  endfacet
  facet normal -0.248688 0 -0.968584
    outer loop
      vertex -13.2002 0 15.0717
      vertex -13.0056 2.5 15.0217
      vertex -13.0056 0 15.0217
    endloop
  endfacet
  facet normal -0.248688 0 -0.968584
    outer loop
      vertex -13.0056 2.5 15.0217
      vertex -13.2002 0 15.0717
      vertex -13.2002 2.5 15.0717
    endloop
  endfacet
  facet normal -0.998027 0 -0.062789
    outer loop
      vertex -11.9 0 13.5
      vertex -11.9126 2.5 13.7005
      vertex -11.9 2.5 13.5
    endloop
  endfacet
  facet normal -0.998027 -0 -0.062789
    outer loop
      vertex -11.9126 2.5 13.7005
      vertex -11.9 0 13.5
      vertex -11.9126 0 13.7005
    endloop
  endfacet
  facet normal -0.982287 0 -0.187384
    outer loop
      vertex -11.9126 0 13.7005
      vertex -11.9503 2.5 13.8979
      vertex -11.9126 2.5 13.7005
    endloop
  endfacet
  facet normal -0.982287 -0 -0.187384
    outer loop
      vertex -11.9503 2.5 13.8979
      vertex -11.9126 0 13.7005
      vertex -11.9503 0 13.8979
    endloop
  endfacet
  facet normal 0.982287 -0 0.187384
    outer loop
      vertex -15.0874 0 13.2995
      vertex -15.0497 2.5 13.1021
      vertex -15.0874 2.5 13.2995
    endloop
  endfacet
  facet normal 0.982287 0 0.187384
    outer loop
      vertex -15.0497 2.5 13.1021
      vertex -15.0874 0 13.2995
      vertex -15.0497 0 13.1021
    endloop
  endfacet
  facet normal 0.770512 -0 0.637425
    outer loop
      vertex -14.7944 0 12.5595
      vertex -14.6663 2.5 12.4047
      vertex -14.7944 2.5 12.5595
    endloop
  endfacet
  facet normal 0.770512 0 0.637425
    outer loop
      vertex -14.6663 2.5 12.4047
      vertex -14.7944 0 12.5595
      vertex -14.6663 0 12.4047
    endloop
  endfacet
  facet normal 0.481751 0 0.876308
    outer loop
      vertex -14.3573 2.5 12.1491
      vertex -14.1812 0 12.0523
      vertex -14.1812 2.5 12.0523
    endloop
  endfacet
  facet normal 0.481751 0 0.876308
    outer loop
      vertex -14.1812 0 12.0523
      vertex -14.3573 2.5 12.1491
      vertex -14.3573 0 12.1491
    endloop
  endfacet
  facet normal -0.951058 0 0.309014
    outer loop
      vertex -12.0124 0 12.911
      vertex -11.9503 2.5 13.1021
      vertex -12.0124 2.5 12.911
    endloop
  endfacet
  facet normal -0.951058 0 0.309014
    outer loop
      vertex -11.9503 2.5 13.1021
      vertex -12.0124 0 12.911
      vertex -11.9503 0 13.1021
    endloop
  endfacet
  facet normal 0.998027 0 -0.062789
    outer loop
      vertex -15.0874 0 13.7005
      vertex -15.1 2.5 13.5
      vertex -15.0874 2.5 13.7005
    endloop
  endfacet
  facet normal 0.998027 0 -0.062789
    outer loop
      vertex -15.1 2.5 13.5
      vertex -15.0874 0 13.7005
      vertex -15.1 0 13.5
    endloop
  endfacet
  facet normal -0.368127 0 -0.929775
    outer loop
      vertex -13.0056 0 15.0217
      vertex -12.8188 2.5 14.9477
      vertex -12.8188 0 14.9477
    endloop
  endfacet
  facet normal -0.368127 0 -0.929775
    outer loop
      vertex -12.8188 2.5 14.9477
      vertex -13.0056 0 15.0217
      vertex -13.0056 2.5 15.0217
    endloop
  endfacet
  facet normal -0.951058 0 -0.309014
    outer loop
      vertex -11.9503 0 13.8979
      vertex -12.0124 2.5 14.089
      vertex -11.9503 2.5 13.8979
    endloop
  endfacet
  facet normal -0.951058 -0 -0.309014
    outer loop
      vertex -12.0124 2.5 14.089
      vertex -11.9503 0 13.8979
      vertex -12.0124 0 14.089
    endloop
  endfacet
  facet normal -0.770512 0 -0.637425
    outer loop
      vertex -12.2056 0 14.4405
      vertex -12.3336 2.5 14.5953
      vertex -12.2056 2.5 14.4405
    endloop
  endfacet
  facet normal -0.770512 -0 -0.637425
    outer loop
      vertex -12.3336 2.5 14.5953
      vertex -12.2056 0 14.4405
      vertex -12.3336 0 14.5953
    endloop
  endfacet
  facet normal 0.125331 0 -0.992115
    outer loop
      vertex -13.7998 0 15.0717
      vertex -13.6005 2.5 15.0968
      vertex -13.6005 0 15.0968
    endloop
  endfacet
  facet normal 0.125331 0 -0.992115
    outer loop
      vertex -13.6005 2.5 15.0968
      vertex -13.7998 0 15.0717
      vertex -13.7998 2.5 15.0717
    endloop
  endfacet
  facet normal 0.368127 0 -0.929775
    outer loop
      vertex -14.1812 0 14.9477
      vertex -13.9944 2.5 15.0217
      vertex -13.9944 0 15.0217
    endloop
  endfacet
  facet normal 0.368127 0 -0.929775
    outer loop
      vertex -13.9944 2.5 15.0217
      vertex -14.1812 0 14.9477
      vertex -14.1812 2.5 14.9477
    endloop
  endfacet
  facet normal 0.248688 0 -0.968584
    outer loop
      vertex -13.9944 0 15.0217
      vertex -13.7998 2.5 15.0717
      vertex -13.7998 0 15.0717
    endloop
  endfacet
  facet normal 0.248688 0 -0.968584
    outer loop
      vertex -13.7998 2.5 15.0717
      vertex -13.9944 0 15.0217
      vertex -13.9944 2.5 15.0217
    endloop
  endfacet
  facet normal 0.770512 0 -0.637425
    outer loop
      vertex -14.6663 0 14.5953
      vertex -14.7944 2.5 14.4405
      vertex -14.6663 2.5 14.5953
    endloop
  endfacet
  facet normal 0.770512 0 -0.637425
    outer loop
      vertex -14.7944 2.5 14.4405
      vertex -14.6663 0 14.5953
      vertex -14.7944 0 14.4405
    endloop
  endfacet
  facet normal 0.587789 0 -0.809015
    outer loop
      vertex -14.5199 0 14.7328
      vertex -14.3573 2.5 14.8509
      vertex -14.3573 0 14.8509
    endloop
  endfacet
  facet normal 0.587789 0 -0.809015
    outer loop
      vertex -14.3573 2.5 14.8509
      vertex -14.5199 0 14.7328
      vertex -14.5199 2.5 14.7328
    endloop
  endfacet
  facet normal -0.684545 0 -0.728971
    outer loop
      vertex -12.4801 0 14.7328
      vertex -12.3336 2.5 14.5953
      vertex -12.3336 0 14.5953
    endloop
  endfacet
  facet normal -0.684545 0 -0.728971
    outer loop
      vertex -12.3336 2.5 14.5953
      vertex -12.4801 0 14.7328
      vertex -12.4801 2.5 14.7328
    endloop
  endfacet
  facet normal 0 0 -1
    outer loop
      vertex -13.6005 0 15.0968
      vertex -13.3995 2.5 15.0968
      vertex -13.3995 0 15.0968
    endloop
  endfacet
  facet normal -0 0 -1
    outer loop
      vertex -13.3995 2.5 15.0968
      vertex -13.6005 0 15.0968
      vertex -13.6005 2.5 15.0968
    endloop
  endfacet
  facet normal -0.587789 0 -0.809015
    outer loop
      vertex -12.6427 0 14.8509
      vertex -12.4801 2.5 14.7328
      vertex -12.4801 0 14.7328
    endloop
  endfacet
  facet normal -0.587789 0 -0.809015
    outer loop
      vertex -12.4801 2.5 14.7328
      vertex -12.6427 0 14.8509
      vertex -12.6427 2.5 14.8509
    endloop
  endfacet
  facet normal -0.481751 0 -0.876308
    outer loop
      vertex -12.8188 0 14.9477
      vertex -12.6427 2.5 14.8509
      vertex -12.6427 0 14.8509
    endloop
  endfacet
  facet normal -0.481751 0 -0.876308
    outer loop
      vertex -12.6427 2.5 14.8509
      vertex -12.8188 0 14.9477
      vertex -12.8188 2.5 14.9477
    endloop
  endfacet
  facet normal -0.844329 0 -0.535824
    outer loop
      vertex -12.0979 0 14.2708
      vertex -12.2056 2.5 14.4405
      vertex -12.0979 2.5 14.2708
    endloop
  endfacet
  facet normal -0.844329 -0 -0.535824
    outer loop
      vertex -12.2056 2.5 14.4405
      vertex -12.0979 0 14.2708
      vertex -12.2056 0 14.4405
    endloop
  endfacet
  facet normal -0.904826 0 -0.425781
    outer loop
      vertex -12.0124 0 14.089
      vertex -12.0979 2.5 14.2708
      vertex -12.0124 2.5 14.089
    endloop
  endfacet
  facet normal -0.904826 -0 -0.425781
    outer loop
      vertex -12.0979 2.5 14.2708
      vertex -12.0124 0 14.089
      vertex -12.0979 0 14.2708
    endloop
  endfacet
  facet normal -0 0 1
    outer loop
      vertex -37 11.5 14.5
      vertex -27.5 4.32843 14.5
      vertex -27.5 11.5 14.5
    endloop
  endfacet
  facet normal 0 0 1
    outer loop
      vertex -27.5 4.32843 14.5
      vertex -37 11.5 14.5
      vertex -37 4.32843 14.5
    endloop
  endfacet
  facet normal 0 1 -0
    outer loop
      vertex -27.5 14.5 4.32843
      vertex -37 14.5 11.5
      vertex -27.5 14.5 11.5
    endloop
  endfacet
  facet normal 0 1 0
    outer loop
      vertex -37 14.5 11.5
      vertex -27.5 14.5 4.32843
      vertex -37 14.5 4.32843
    endloop
  endfacet
  facet normal -0 0.707107 0.707107
    outer loop
      vertex -37 14.5 11.5
      vertex -27.5 11.5 14.5
      vertex -27.5 14.5 11.5
    endloop
  endfacet
  facet normal 0 0.707107 0.707107
    outer loop
      vertex -27.5 11.5 14.5
      vertex -37 14.5 11.5
      vertex -37 11.5 14.5
    endloop
  endfacet
  facet normal 1 -0 0
    outer loop
      vertex -22 11.1 24.5
      vertex -22 16 2.5
      vertex -22 16 24.5
    endloop
  endfacet
  facet normal 1 0 0
    outer loop
      vertex -22 16 2.5
      vertex -22 11.1 24.5
      vertex -22 11.1 2.5
    endloop
  endfacet
  facet normal 0 1 -0
    outer loop
      vertex -22 16 2.5
      vertex -24.7 16 24.5
      vertex -22 16 24.5
    endloop
  endfacet
  facet normal 0 1 0
    outer loop
      vertex -24.7 16 24.5
      vertex -22 16 2.5
      vertex -24.7 16 2.5
    endloop
  endfacet
  facet normal 0 -1 0
    outer loop
      vertex -24.7 11.1 2.5
      vertex -22 11.1 24.5
      vertex -24.7 11.1 24.5
    endloop
  endfacet
  facet normal 0 -1 -0
    outer loop
      vertex -22 11.1 24.5
      vertex -24.7 11.1 2.5
      vertex -22 11.1 2.5
    endloop
  endfacet
  facet normal 0 0.707107 0.707107
    outer loop
      vertex -27.5 16.3284 2.5
      vertex -37 14.5 4.32843
      vertex -27.5 14.5 4.32843
    endloop
  endfacet
  facet normal 0 0.707107 0.707107
    outer loop
      vertex -37 14.5 4.32843
      vertex -27.5 16.3284 2.5
      vertex -37 16.3284 2.5
    endloop
  endfacet
  facet normal 0 0.707107 0.707107
    outer loop
      vertex -27.5 4.32843 14.5
      vertex -37 2.5 16.3284
      vertex -27.5 2.5 16.3284
    endloop
  endfacet
  facet normal 0 0.707107 0.707107
    outer loop
      vertex -37 2.5 16.3284
      vertex -27.5 4.32843 14.5
      vertex -37 4.32843 14.5
    endloop
  endfacet
endsolid OpenSCAD_Model
