solid OpenSCAD_Model
  facet normal 0.309001 -0.951062 0
    outer loop
      vertex 21.2487 -10.9686 0
      vertex 21.3681 -10.9298 3
      vertex 21.2487 -10.9686 3
    endloop
  endfacet
  facet normal 0.309001 -0.951062 0
    outer loop
      vertex 21.3681 -10.9298 3
      vertex 21.2487 -10.9686 0
      vertex 21.3681 -10.9298 0
    endloop
  endfacet
  facet normal 0.637443 -0.770497 0
    outer loop
      vertex 21.5878 -10.809 0
      vertex 21.6845 -10.729 3
      vertex 21.5878 -10.809 3
    endloop
  endfacet
  facet normal 0.637443 -0.770497 0
    outer loop
      vertex 21.6845 -10.729 3
      vertex 21.5878 -10.809 0
      vertex 21.6845 -10.729 0
    endloop
  endfacet
  facet normal 0.42575 -0.904841 0
    outer loop
      vertex 21.3681 -10.9298 0
      vertex 21.4818 -10.8763 3
      vertex 21.3681 -10.9298 3
    endloop
  endfacet
  facet normal 0.42575 -0.904841 0
    outer loop
      vertex 21.4818 -10.8763 3
      vertex 21.3681 -10.9298 0
      vertex 21.4818 -10.8763 0
    endloop
  endfacet
  facet normal 0.535829 -0.844326 0
    outer loop
      vertex 21.4818 -10.8763 0
      vertex 21.5878 -10.809 3
      vertex 21.4818 -10.8763 3
    endloop
  endfacet
  facet normal 0.535829 -0.844326 0
    outer loop
      vertex 21.5878 -10.809 3
      vertex 21.4818 -10.8763 0
      vertex 21.5878 -10.809 0
    endloop
  endfacet
  facet normal -0.481769 -0.876298 0
    outer loop
      vertex -21.5358 -10.8443 0
      vertex -21.4258 -10.9048 3
      vertex -21.5358 -10.8443 3
    endloop
  endfacet
  facet normal -0.481769 -0.876298 -0
    outer loop
      vertex -21.4258 -10.9048 3
      vertex -21.5358 -10.8443 0
      vertex -21.4258 -10.9048 0
    endloop
  endfacet
  facet normal -0.42575 0.904841 0
    outer loop
      vertex -21.3681 10.9298 0
      vertex -21.4818 10.8763 3
      vertex -21.3681 10.9298 3
    endloop
  endfacet
  facet normal -0.42575 0.904841 0
    outer loop
      vertex -21.4818 10.8763 3
      vertex -21.3681 10.9298 0
      vertex -21.4818 10.8763 0
    endloop
  endfacet
  facet normal -1 0 0
    outer loop
      vertex -22 -10 0
      vertex -22 10 3
      vertex -22 10 0
    endloop
  endfacet
  facet normal -1 -0 0
    outer loop
      vertex -22 10 3
      vertex -22 -10 0
      vertex -22 -10 3
    endloop
  endfacet
  facet normal 0 -1 0
    outer loop
      vertex -21 -11 0
      vertex 21 -11 3
      vertex -21 -11 3
    endloop
  endfacet
  facet normal 0 -1 -0
    outer loop
      vertex 21 -11 3
      vertex -21 -11 0
      vertex 21 -11 0
    endloop
  endfacet
  facet normal -0.876298 0.481769 0
    outer loop
      vertex -21.9048 10.4258 0
      vertex -21.8443 10.5358 3
      vertex -21.8443 10.5358 0
    endloop
  endfacet
  facet normal -0.876298 0.481769 0
    outer loop
      vertex -21.8443 10.5358 3
      vertex -21.9048 10.4258 0
      vertex -21.9048 10.4258 3
    endloop
  endfacet
  facet normal 0 0 1
    outer loop
      vertex 21 11 3
      vertex 22 10 3
      vertex 21.9921 10.1253 3
    endloop
  endfacet
  facet normal 0 0 1
    outer loop
      vertex 22 10 3
      vertex 3 8.62132 3
      vertex 22 -10 3
    endloop
  endfacet
  facet normal 0 0 1
    outer loop
      vertex 21 11 3
      vertex 21.9921 10.1253 3
      vertex 21.9686 10.2487 3
    endloop
  endfacet
  facet normal 0 0 1
    outer loop
      vertex 22 10 3
      vertex 21 11 3
      vertex 3 8.62132 3
    endloop
  endfacet
  facet normal 0 0 1
    outer loop
      vertex 21 11 3
      vertex 21.9686 10.2487 3
      vertex 21.9298 10.3681 3
    endloop
  endfacet
  facet normal -0 0 1
    outer loop
      vertex 3 -8.62132 3
      vertex 22 -10 3
      vertex 3 8.62132 3
    endloop
  endfacet
  facet normal 0 0 1
    outer loop
      vertex 21 11 3
      vertex 21.9298 10.3681 3
      vertex 21.8763 10.4818 3
    endloop
  endfacet
  facet normal 0 0 1
    outer loop
      vertex 21.9823 -10.1874 3
      vertex 21 -11 3
      vertex 21.951 -10.309 3
    endloop
  endfacet
  facet normal 0 0 1
    outer loop
      vertex 21 11 3
      vertex 21.8763 10.4818 3
      vertex 21.809 10.5878 3
    endloop
  endfacet
  facet normal 0 0 1
    outer loop
      vertex 21.951 -10.309 3
      vertex 21 -11 3
      vertex 21.9048 -10.4258 3
    endloop
  endfacet
  facet normal 0 0 1
    outer loop
      vertex 21 11 3
      vertex 21.809 10.5878 3
      vertex 21.729 10.6845 3
    endloop
  endfacet
  facet normal 0 0 1
    outer loop
      vertex 21.9048 -10.4258 3
      vertex 21 -11 3
      vertex 21.8443 -10.5358 3
    endloop
  endfacet
  facet normal 0 0 1
    outer loop
      vertex 21 11 3
      vertex 21.729 10.6845 3
      vertex 21.6374 10.7705 3
    endloop
  endfacet
  facet normal 0 0 1
    outer loop
      vertex 21.8443 -10.5358 3
      vertex 21 -11 3
      vertex 21.7705 -10.6374 3
    endloop
  endfacet
  facet normal 0 0 1
    outer loop
      vertex 21 11 3
      vertex 21.6374 10.7705 3
      vertex 21.5358 10.8443 3
    endloop
  endfacet
  facet normal 0 0 1
    outer loop
      vertex 21.7705 -10.6374 3
      vertex 21 -11 3
      vertex 21.6845 -10.729 3
    endloop
  endfacet
  facet normal 0 0 1
    outer loop
      vertex 21 11 3
      vertex 21.5358 10.8443 3
      vertex 21.4258 10.9048 3
    endloop
  endfacet
  facet normal 0 0 1
    outer loop
      vertex 21.6845 -10.729 3
      vertex 21 -11 3
      vertex 21.5878 -10.809 3
    endloop
  endfacet
  facet normal 0 0 1
    outer loop
      vertex 21 11 3
      vertex 21.4258 10.9048 3
      vertex 21.309 10.951 3
    endloop
  endfacet
  facet normal 0 0 1
    outer loop
      vertex 21.5878 -10.809 3
      vertex 21 -11 3
      vertex 21.4818 -10.8763 3
    endloop
  endfacet
  facet normal 0 0 1
    outer loop
      vertex 21 11 3
      vertex 21.309 10.951 3
      vertex 21.1874 10.9823 3
    endloop
  endfacet
  facet normal 0 0 1
    outer loop
      vertex 21.4818 -10.8763 3
      vertex 21 -11 3
      vertex 21.3681 -10.9298 3
    endloop
  endfacet
  facet normal 0 0 1
    outer loop
      vertex 21.3681 -10.9298 3
      vertex 21 -11 3
      vertex 21.2487 -10.9686 3
    endloop
  endfacet
  facet normal 0 0 1
    outer loop
      vertex 21.2487 -10.9686 3
      vertex 21 -11 3
      vertex 21.1253 -10.9921 3
    endloop
  endfacet
  facet normal 0 -0 1
    outer loop
      vertex 21 -11 3
      vertex 22 -10 3
      vertex 3 -8.62132 3
    endloop
  endfacet
  facet normal 0 0 1
    outer loop
      vertex 21 11 3
      vertex 2.12132 9.5 3
      vertex 3 8.62132 3
    endloop
  endfacet
  facet normal 0 0 1
    outer loop
      vertex 21 11 3
      vertex -2.12132 9.5 3
      vertex 2.12132 9.5 3
    endloop
  endfacet
  facet normal -0 0 1
    outer loop
      vertex -22 10 3
      vertex -3 8.62132 3
      vertex -21 11 3
    endloop
  endfacet
  facet normal 0 0 1
    outer loop
      vertex -2.12132 9.5 3
      vertex -21 11 3
      vertex -3 8.62132 3
    endloop
  endfacet
  facet normal -0 0 1
    outer loop
      vertex -21 11 3
      vertex -2.12132 9.5 3
      vertex 21 11 3
    endloop
  endfacet
  facet normal 0 0 1
    outer loop
      vertex 22 -10 3
      vertex 21 -11 3
      vertex 21.9823 -10.1874 3
    endloop
  endfacet
  facet normal -0 0 1
    outer loop
      vertex 2.12132 -9.5 3
      vertex 21 -11 3
      vertex 3 -8.62132 3
    endloop
  endfacet
  facet normal -0 0 1
    outer loop
      vertex -2.12132 -9.5 3
      vertex 21 -11 3
      vertex 2.12132 -9.5 3
    endloop
  endfacet
  facet normal 0 0 1
    outer loop
      vertex -2.12132 -9.5 3
      vertex -21 -11 3
      vertex 21 -11 3
    endloop
  endfacet
  facet normal 0 0 1
    outer loop
      vertex -3 -8.62132 3
      vertex -21 -11 3
      vertex -2.12132 -9.5 3
    endloop
  endfacet
  facet normal 0 0 1
    outer loop
      vertex -3 8.62132 3
      vertex -22 10 3
      vertex -3 -8.62132 3
    endloop
  endfacet
  facet normal 0 0 1
    outer loop
      vertex -22 10 3
      vertex -21 11 3
      vertex -21.1253 10.9921 3
    endloop
  endfacet
  facet normal 0 0 1
    outer loop
      vertex -22 -10 3
      vertex -3 -8.62132 3
      vertex -22 10 3
    endloop
  endfacet
  facet normal 0 0 1
    outer loop
      vertex -22 10 3
      vertex -21.1253 10.9921 3
      vertex -21.2487 10.9686 3
    endloop
  endfacet
  facet normal 0 0 1
    outer loop
      vertex -3 -8.62132 3
      vertex -22 -10 3
      vertex -21 -11 3
    endloop
  endfacet
  facet normal 0 0 1
    outer loop
      vertex -22 10 3
      vertex -21.2487 10.9686 3
      vertex -21.3681 10.9298 3
    endloop
  endfacet
  facet normal 0 0 1
    outer loop
      vertex -21 -11 3
      vertex -22 -10 3
      vertex -21.1874 -10.9823 3
    endloop
  endfacet
  facet normal 0 0 1
    outer loop
      vertex -22 10 3
      vertex -21.3681 10.9298 3
      vertex -21.4818 10.8763 3
    endloop
  endfacet
  facet normal 0 0 1
    outer loop
      vertex -21.1874 -10.9823 3
      vertex -22 -10 3
      vertex -21.309 -10.951 3
    endloop
  endfacet
  facet normal 0 0 1
    outer loop
      vertex -22 10 3
      vertex -21.4818 10.8763 3
      vertex -21.5878 10.809 3
    endloop
  endfacet
  facet normal 0 0 1
    outer loop
      vertex -21.309 -10.951 3
      vertex -22 -10 3
      vertex -21.4258 -10.9048 3
    endloop
  endfacet
  facet normal 0 0 1
    outer loop
      vertex -22 10 3
      vertex -21.5878 10.809 3
      vertex -21.6845 10.729 3
    endloop
  endfacet
  facet normal 0 0 1
    outer loop
      vertex -21.4258 -10.9048 3
      vertex -22 -10 3
      vertex -21.5358 -10.8443 3
    endloop
  endfacet
  facet normal 0 0 1
    outer loop
      vertex -22 10 3
      vertex -21.6845 10.729 3
      vertex -21.7705 10.6374 3
    endloop
  endfacet
  facet normal 0 0 1
    outer loop
      vertex -21.5358 -10.8443 3
      vertex -22 -10 3
      vertex -21.6374 -10.7705 3
    endloop
  endfacet
  facet normal 0 0 1
    outer loop
      vertex -22 10 3
      vertex -21.7705 10.6374 3
      vertex -21.8443 10.5358 3
    endloop
  endfacet
  facet normal 0 0 1
    outer loop
      vertex -21.6374 -10.7705 3
      vertex -22 -10 3
      vertex -21.729 -10.6845 3
    endloop
  endfacet
  facet normal 0 0 1
    outer loop
      vertex -22 10 3
      vertex -21.8443 10.5358 3
      vertex -21.9048 10.4258 3
    endloop
  endfacet
  facet normal 0 0 1
    outer loop
      vertex -21.729 -10.6845 3
      vertex -22 -10 3
      vertex -21.809 -10.5878 3
    endloop
  endfacet
  facet normal 0 0 1
    outer loop
      vertex -22 10 3
      vertex -21.9048 10.4258 3
      vertex -21.951 10.309 3
    endloop
  endfacet
  facet normal 0 0 1
    outer loop
      vertex -21.809 -10.5878 3
      vertex -22 -10 3
      vertex -21.8763 -10.4818 3
    endloop
  endfacet
  facet normal 0 0 1
    outer loop
      vertex -22 10 3
      vertex -21.951 10.309 3
      vertex -21.9823 10.1874 3
    endloop
  endfacet
  facet normal 0 0 1
    outer loop
      vertex -21.8763 -10.4818 3
      vertex -22 -10 3
      vertex -21.9298 -10.3681 3
    endloop
  endfacet
  facet normal 0 0 1
    outer loop
      vertex -21.9298 -10.3681 3
      vertex -22 -10 3
      vertex -21.9686 -10.2487 3
    endloop
  endfacet
  facet normal 0 0 1
    outer loop
      vertex -21.9686 -10.2487 3
      vertex -22 -10 3
      vertex -21.9921 -10.1253 3
    endloop
  endfacet
  facet normal -0.904841 -0.42575 0
    outer loop
      vertex -21.8763 -10.4818 0
      vertex -21.9298 -10.3681 3
      vertex -21.9298 -10.3681 0
    endloop
  endfacet
  facet normal -0.904841 -0.42575 0
    outer loop
      vertex -21.9298 -10.3681 3
      vertex -21.8763 -10.4818 0
      vertex -21.8763 -10.4818 3
    endloop
  endfacet
  facet normal 0 0 -1
    outer loop
      vertex 21 11 0
      vertex 22 10 0
      vertex 22 -10 0
    endloop
  endfacet
  facet normal 0 0 -1
    outer loop
      vertex 21 -11 0
      vertex 22 -10 0
      vertex 21.9823 -10.1874 0
    endloop
  endfacet
  facet normal 0 0 -1
    outer loop
      vertex 21 11 0
      vertex 22 -10 0
      vertex 21 -11 0
    endloop
  endfacet
  facet normal 0 0 -1
    outer loop
      vertex 21 -11 0
      vertex 21.9823 -10.1874 0
      vertex 21.951 -10.309 0
    endloop
  endfacet
  facet normal 0 0 -1
    outer loop
      vertex 22 10 0
      vertex 21 11 0
      vertex 21.9921 10.1253 0
    endloop
  endfacet
  facet normal 0 0 -1
    outer loop
      vertex 21 -11 0
      vertex 21.951 -10.309 0
      vertex 21.9048 -10.4258 0
    endloop
  endfacet
  facet normal 0 0 -1
    outer loop
      vertex 21.9921 10.1253 0
      vertex 21 11 0
      vertex 21.9686 10.2487 0
    endloop
  endfacet
  facet normal 0 0 -1
    outer loop
      vertex 21 -11 0
      vertex 21.9048 -10.4258 0
      vertex 21.8443 -10.5358 0
    endloop
  endfacet
  facet normal 0 0 -1
    outer loop
      vertex 21.9686 10.2487 0
      vertex 21 11 0
      vertex 21.9298 10.3681 0
    endloop
  endfacet
  facet normal 0 0 -1
    outer loop
      vertex 21 -11 0
      vertex 21.8443 -10.5358 0
      vertex 21.7705 -10.6374 0
    endloop
  endfacet
  facet normal 0 0 -1
    outer loop
      vertex 21.9298 10.3681 0
      vertex 21 11 0
      vertex 21.8763 10.4818 0
    endloop
  endfacet
  facet normal 0 0 -1
    outer loop
      vertex 21 -11 0
      vertex 21.7705 -10.6374 0
      vertex 21.6845 -10.729 0
    endloop
  endfacet
  facet normal 0 0 -1
    outer loop
      vertex 21.8763 10.4818 0
      vertex 21 11 0
      vertex 21.809 10.5878 0
    endloop
  endfacet
  facet normal 0 0 -1
    outer loop
      vertex 21 -11 0
      vertex 21.6845 -10.729 0
      vertex 21.5878 -10.809 0
    endloop
  endfacet
  facet normal 0 0 -1
    outer loop
      vertex 21.809 10.5878 0
      vertex 21 11 0
      vertex 21.729 10.6845 0
    endloop
  endfacet
  facet normal 0 0 -1
    outer loop
      vertex 21 -11 0
      vertex 21.5878 -10.809 0
      vertex 21.4818 -10.8763 0
    endloop
  endfacet
  facet normal 0 0 -1
    outer loop
      vertex 21.729 10.6845 0
      vertex 21 11 0
      vertex 21.6374 10.7705 0
    endloop
  endfacet
  facet normal 0 0 -1
    outer loop
      vertex 21 -11 0
      vertex 21.4818 -10.8763 0
      vertex 21.3681 -10.9298 0
    endloop
  endfacet
  facet normal 0 0 -1
    outer loop
      vertex 21.6374 10.7705 0
      vertex 21 11 0
      vertex 21.5358 10.8443 0
    endloop
  endfacet
  facet normal 0 0 -1
    outer loop
      vertex 21 -11 0
      vertex 21.3681 -10.9298 0
      vertex 21.2487 -10.9686 0
    endloop
  endfacet
  facet normal 0 0 -1
    outer loop
      vertex 21.5358 10.8443 0
      vertex 21 11 0
      vertex 21.4258 10.9048 0
    endloop
  endfacet
  facet normal 0 0 -1
    outer loop
      vertex 21 -11 0
      vertex 21.2487 -10.9686 0
      vertex 21.1253 -10.9921 0
    endloop
  endfacet
  facet normal 0 0 -1
    outer loop
      vertex 21.4258 10.9048 0
      vertex 21 11 0
      vertex 21.309 10.951 0
    endloop
  endfacet
  facet normal 0 0 -1
    outer loop
      vertex 21.309 10.951 0
      vertex 21 11 0
      vertex 21.1874 10.9823 0
    endloop
  endfacet
  facet normal 0 0 -1
    outer loop
      vertex -21 -11 0
      vertex 21 11 0
      vertex 21 -11 0
    endloop
  endfacet
  facet normal 0 0 -1
    outer loop
      vertex -21 -11 0
      vertex -21 11 0
      vertex 21 11 0
    endloop
  endfacet
  facet normal 0 0 -1
    outer loop
      vertex -22 10 0
      vertex -21 11 0
      vertex -21 -11 0
    endloop
  endfacet
  facet normal 0 0 -1
    outer loop
      vertex -22 -10 0
      vertex -21 -11 0
      vertex -21.1874 -10.9823 0
    endloop
  endfacet
  facet normal 0 0 -1
    outer loop
      vertex -22 10 0
      vertex -21 -11 0
      vertex -22 -10 0
    endloop
  endfacet
  facet normal 0 0 -1
    outer loop
      vertex -22 -10 0
      vertex -21.1874 -10.9823 0
      vertex -21.309 -10.951 0
    endloop
  endfacet
  facet normal 0 0 -1
    outer loop
      vertex -21 11 0
      vertex -22 10 0
      vertex -21.1253 10.9921 0
    endloop
  endfacet
  facet normal 0 0 -1
    outer loop
      vertex -22 -10 0
      vertex -21.309 -10.951 0
      vertex -21.4258 -10.9048 0
    endloop
  endfacet
  facet normal 0 0 -1
    outer loop
      vertex -21.1253 10.9921 0
      vertex -22 10 0
      vertex -21.2487 10.9686 0
    endloop
  endfacet
  facet normal 0 0 -1
    outer loop
      vertex -22 -10 0
      vertex -21.4258 -10.9048 0
      vertex -21.5358 -10.8443 0
    endloop
  endfacet
  facet normal 0 0 -1
    outer loop
      vertex -21.2487 10.9686 0
      vertex -22 10 0
      vertex -21.3681 10.9298 0
    endloop
  endfacet
  facet normal 0 0 -1
    outer loop
      vertex -22 -10 0
      vertex -21.5358 -10.8443 0
      vertex -21.6374 -10.7705 0
    endloop
  endfacet
  facet normal 0 0 -1
    outer loop
      vertex -21.3681 10.9298 0
      vertex -22 10 0
      vertex -21.4818 10.8763 0
    endloop
  endfacet
  facet normal 0 0 -1
    outer loop
      vertex -22 -10 0
      vertex -21.6374 -10.7705 0
      vertex -21.729 -10.6845 0
    endloop
  endfacet
  facet normal 0 0 -1
    outer loop
      vertex -21.4818 10.8763 0
      vertex -22 10 0
      vertex -21.5878 10.809 0
    endloop
  endfacet
  facet normal 0 0 -1
    outer loop
      vertex -22 -10 0
      vertex -21.729 -10.6845 0
      vertex -21.809 -10.5878 0
    endloop
  endfacet
  facet normal 0 0 -1
    outer loop
      vertex -21.5878 10.809 0
      vertex -22 10 0
      vertex -21.6845 10.729 0
    endloop
  endfacet
  facet normal 0 0 -1
    outer loop
      vertex -22 -10 0
      vertex -21.809 -10.5878 0
      vertex -21.8763 -10.4818 0
    endloop
  endfacet
  facet normal 0 0 -1
    outer loop
      vertex -21.6845 10.729 0
      vertex -22 10 0
      vertex -21.7705 10.6374 0
    endloop
  endfacet
  facet normal 0 0 -1
    outer loop
      vertex -22 -10 0
      vertex -21.8763 -10.4818 0
      vertex -21.9298 -10.3681 0
    endloop
  endfacet
  facet normal 0 0 -1
    outer loop
      vertex -21.7705 10.6374 0
      vertex -22 10 0
      vertex -21.8443 10.5358 0
    endloop
  endfacet
  facet normal 0 0 -1
    outer loop
      vertex -22 -10 0
      vertex -21.9298 -10.3681 0
      vertex -21.9686 -10.2487 0
    endloop
  endfacet
  facet normal 0 0 -1
    outer loop
      vertex -21.8443 10.5358 0
      vertex -22 10 0
      vertex -21.9048 10.4258 0
    endloop
  endfacet
  facet normal 0 0 -1
    outer loop
      vertex -22 -10 0
      vertex -21.9686 -10.2487 0
      vertex -21.9921 -10.1253 0
    endloop
  endfacet
  facet normal 0 0 -1
    outer loop
      vertex -21.9048 10.4258 0
      vertex -22 10 0
      vertex -21.951 10.309 0
    endloop
  endfacet
  facet normal 0 0 -1
    outer loop
      vertex -21.951 10.309 0
      vertex -22 10 0
      vertex -21.9823 10.1874 0
    endloop
  endfacet
  facet normal -0.368057 -0.929803 0
    outer loop
      vertex -21.4258 -10.9048 0
      vertex -21.309 -10.951 3
      vertex -21.4258 -10.9048 3
    endloop
  endfacet
  facet normal -0.368057 -0.929803 -0
    outer loop
      vertex -21.309 -10.951 3
      vertex -21.4258 -10.9048 0
      vertex -21.309 -10.951 0
    endloop
  endfacet
  facet normal -0.0941242 -0.99556 0
    outer loop
      vertex -21.1874 -10.9823 0
      vertex -21 -11 3
      vertex -21.1874 -10.9823 3
    endloop
  endfacet
  facet normal -0.0941242 -0.99556 -0
    outer loop
      vertex -21 -11 3
      vertex -21.1874 -10.9823 0
      vertex -21 -11 0
    endloop
  endfacet
  facet normal 0 1 -0
    outer loop
      vertex 21 11 0
      vertex -21 11 3
      vertex 21 11 3
    endloop
  endfacet
  facet normal 0 1 0
    outer loop
      vertex -21 11 3
      vertex 21 11 0
      vertex -21 11 0
    endloop
  endfacet
  facet normal 0.368057 0.929803 -0
    outer loop
      vertex 21.4258 10.9048 0
      vertex 21.309 10.951 3
      vertex 21.4258 10.9048 3
    endloop
  endfacet
  facet normal 0.368057 0.929803 0
    outer loop
      vertex 21.309 10.951 3
      vertex 21.4258 10.9048 0
      vertex 21.309 10.951 0
    endloop
  endfacet
  facet normal 0.904841 0.42575 0
    outer loop
      vertex 21.9298 10.3681 3
      vertex 21.8763 10.4818 0
      vertex 21.8763 10.4818 3
    endloop
  endfacet
  facet normal 0.904841 0.42575 0
    outer loop
      vertex 21.8763 10.4818 0
      vertex 21.9298 10.3681 3
      vertex 21.9298 10.3681 0
    endloop
  endfacet
  facet normal 1 -0 0
    outer loop
      vertex 22 -10 3
      vertex 22 10 0
      vertex 22 10 3
    endloop
  endfacet
  facet normal 1 0 0
    outer loop
      vertex 22 10 0
      vertex 22 -10 3
      vertex 22 -10 0
    endloop
  endfacet
  facet normal -0.770497 -0.637443 0
    outer loop
      vertex -21.729 -10.6845 0
      vertex -21.809 -10.5878 3
      vertex -21.809 -10.5878 0
    endloop
  endfacet
  facet normal -0.770497 -0.637443 0
    outer loop
      vertex -21.809 -10.5878 3
      vertex -21.729 -10.6845 0
      vertex -21.729 -10.6845 3
    endloop
  endfacet
  facet normal -0.844326 -0.535829 0
    outer loop
      vertex -21.809 -10.5878 0
      vertex -21.8763 -10.4818 3
      vertex -21.8763 -10.4818 0
    endloop
  endfacet
  facet normal -0.844326 -0.535829 0
    outer loop
      vertex -21.8763 -10.4818 3
      vertex -21.809 -10.5878 0
      vertex -21.809 -10.5878 3
    endloop
  endfacet
  facet normal -0.951062 -0.309001 0
    outer loop
      vertex -21.9298 -10.3681 0
      vertex -21.9686 -10.2487 3
      vertex -21.9686 -10.2487 0
    endloop
  endfacet
  facet normal -0.951062 -0.309001 0
    outer loop
      vertex -21.9686 -10.2487 3
      vertex -21.9298 -10.3681 0
      vertex -21.9298 -10.3681 3
    endloop
  endfacet
  facet normal -0.998025 -0.062817 0
    outer loop
      vertex -21.9921 -10.1253 0
      vertex -22 -10 3
      vertex -22 -10 0
    endloop
  endfacet
  facet normal -0.998025 -0.062817 0
    outer loop
      vertex -22 -10 3
      vertex -21.9921 -10.1253 0
      vertex -21.9921 -10.1253 3
    endloop
  endfacet
  facet normal -0.248706 -0.968579 0
    outer loop
      vertex -21.309 -10.951 0
      vertex -21.1874 -10.9823 3
      vertex -21.309 -10.951 3
    endloop
  endfacet
  facet normal -0.248706 -0.968579 -0
    outer loop
      vertex -21.1874 -10.9823 3
      vertex -21.309 -10.951 0
      vertex -21.1874 -10.9823 0
    endloop
  endfacet
  facet normal 0.187369 -0.98229 0
    outer loop
      vertex 21.1253 -10.9921 0
      vertex 21.2487 -10.9686 3
      vertex 21.1253 -10.9921 3
    endloop
  endfacet
  facet normal 0.187369 -0.98229 0
    outer loop
      vertex 21.2487 -10.9686 3
      vertex 21.1253 -10.9921 0
      vertex 21.2487 -10.9686 0
    endloop
  endfacet
  facet normal 0.062817 -0.998025 0
    outer loop
      vertex 21 -11 0
      vertex 21.1253 -10.9921 3
      vertex 21 -11 3
    endloop
  endfacet
  facet normal 0.062817 -0.998025 0
    outer loop
      vertex 21.1253 -10.9921 3
      vertex 21 -11 0
      vertex 21.1253 -10.9921 0
    endloop
  endfacet
  facet normal -0.309001 0.951062 0
    outer loop
      vertex -21.2487 10.9686 0
      vertex -21.3681 10.9298 3
      vertex -21.2487 10.9686 3
    endloop
  endfacet
  facet normal -0.309001 0.951062 0
    outer loop
      vertex -21.3681 10.9298 3
      vertex -21.2487 10.9686 0
      vertex -21.3681 10.9298 0
    endloop
  endfacet
  facet normal -0.187369 0.98229 0
    outer loop
      vertex -21.1253 10.9921 0
      vertex -21.2487 10.9686 3
      vertex -21.1253 10.9921 3
    endloop
  endfacet
  facet normal -0.187369 0.98229 0
    outer loop
      vertex -21.2487 10.9686 3
      vertex -21.1253 10.9921 0
      vertex -21.2487 10.9686 0
    endloop
  endfacet
  facet normal -0.062817 0.998025 0
    outer loop
      vertex -21 11 0
      vertex -21.1253 10.9921 3
      vertex -21 11 3
    endloop
  endfacet
  facet normal -0.062817 0.998025 0
    outer loop
      vertex -21.1253 10.9921 3
      vertex -21 11 0
      vertex -21.1253 10.9921 0
    endloop
  endfacet
  facet normal 0.0941242 0.99556 -0
    outer loop
      vertex 21.1874 10.9823 0
      vertex 21 11 3
      vertex 21.1874 10.9823 3
    endloop
  endfacet
  facet normal 0.0941242 0.99556 0
    outer loop
      vertex 21 11 3
      vertex 21.1874 10.9823 0
      vertex 21 11 0
    endloop
  endfacet
  facet normal 0.98229 0.187369 0
    outer loop
      vertex 21.9921 10.1253 3
      vertex 21.9686 10.2487 0
      vertex 21.9686 10.2487 3
    endloop
  endfacet
  facet normal 0.98229 0.187369 0
    outer loop
      vertex 21.9686 10.2487 0
      vertex 21.9921 10.1253 3
      vertex 21.9921 10.1253 0
    endloop
  endfacet
  facet normal 0.998025 0.062817 0
    outer loop
      vertex 22 10 3
      vertex 21.9921 10.1253 0
      vertex 21.9921 10.1253 3
    endloop
  endfacet
  facet normal 0.998025 0.062817 0
    outer loop
      vertex 21.9921 10.1253 0
      vertex 22 10 3
      vertex 22 10 0
    endloop
  endfacet
  facet normal 0.929803 -0.368057 0
    outer loop
      vertex 21.9048 -10.4258 3
      vertex 21.951 -10.309 0
      vertex 21.951 -10.309 3
    endloop
  endfacet
  facet normal 0.929803 -0.368057 0
    outer loop
      vertex 21.951 -10.309 0
      vertex 21.9048 -10.4258 3
      vertex 21.9048 -10.4258 0
    endloop
  endfacet
  facet normal 0.99556 -0.0941242 0
    outer loop
      vertex 21.9823 -10.1874 3
      vertex 22 -10 0
      vertex 22 -10 3
    endloop
  endfacet
  facet normal 0.99556 -0.0941242 0
    outer loop
      vertex 22 -10 0
      vertex 21.9823 -10.1874 3
      vertex 21.9823 -10.1874 0
    endloop
  endfacet
  facet normal 0.728991 -0.684523 0
    outer loop
      vertex 21.6845 -10.729 3
      vertex 21.7705 -10.6374 0
      vertex 21.7705 -10.6374 3
    endloop
  endfacet
  facet normal 0.728991 -0.684523 0
    outer loop
      vertex 21.7705 -10.6374 0
      vertex 21.6845 -10.729 3
      vertex 21.6845 -10.729 0
    endloop
  endfacet
  facet normal -0.637443 0.770497 0
    outer loop
      vertex -21.5878 10.809 0
      vertex -21.6845 10.729 3
      vertex -21.5878 10.809 3
    endloop
  endfacet
  facet normal -0.637443 0.770497 0
    outer loop
      vertex -21.6845 10.729 3
      vertex -21.5878 10.809 0
      vertex -21.6845 10.729 0
    endloop
  endfacet
  facet normal -0.535829 0.844326 0
    outer loop
      vertex -21.4818 10.8763 0
      vertex -21.5878 10.809 3
      vertex -21.4818 10.8763 3
    endloop
  endfacet
  facet normal -0.535829 0.844326 0
    outer loop
      vertex -21.5878 10.809 3
      vertex -21.4818 10.8763 0
      vertex -21.5878 10.809 0
    endloop
  endfacet
  facet normal -0.808978 0.587839 0
    outer loop
      vertex -21.8443 10.5358 0
      vertex -21.7705 10.6374 3
      vertex -21.7705 10.6374 0
    endloop
  endfacet
  facet normal -0.808978 0.587839 0
    outer loop
      vertex -21.7705 10.6374 3
      vertex -21.8443 10.5358 0
      vertex -21.8443 10.5358 3
    endloop
  endfacet
  facet normal -0.728991 0.684523 0
    outer loop
      vertex -21.7705 10.6374 0
      vertex -21.6845 10.729 3
      vertex -21.6845 10.729 0
    endloop
  endfacet
  facet normal -0.728991 0.684523 0
    outer loop
      vertex -21.6845 10.729 3
      vertex -21.7705 10.6374 0
      vertex -21.7705 10.6374 3
    endloop
  endfacet
  facet normal -0.929803 0.368057 0
    outer loop
      vertex -21.951 10.309 0
      vertex -21.9048 10.4258 3
      vertex -21.9048 10.4258 0
    endloop
  endfacet
  facet normal -0.929803 0.368057 0
    outer loop
      vertex -21.9048 10.4258 3
      vertex -21.951 10.309 0
      vertex -21.951 10.309 3
    endloop
  endfacet
  facet normal -0.99556 0.0941242 0
    outer loop
      vertex -22 10 0
      vertex -21.9823 10.1874 3
      vertex -21.9823 10.1874 0
    endloop
  endfacet
  facet normal -0.99556 0.0941242 0
    outer loop
      vertex -21.9823 10.1874 3
      vertex -22 10 0
      vertex -22 10 3
    endloop
  endfacet
  facet normal -0.684523 -0.728991 0
    outer loop
      vertex -21.729 -10.6845 0
      vertex -21.6374 -10.7705 3
      vertex -21.729 -10.6845 3
    endloop
  endfacet
  facet normal -0.684523 -0.728991 -0
    outer loop
      vertex -21.6374 -10.7705 3
      vertex -21.729 -10.6845 0
      vertex -21.6374 -10.7705 0
    endloop
  endfacet
  facet normal -0.98229 -0.187369 0
    outer loop
      vertex -21.9686 -10.2487 0
      vertex -21.9921 -10.1253 3
      vertex -21.9921 -10.1253 0
    endloop
  endfacet
  facet normal -0.98229 -0.187369 0
    outer loop
      vertex -21.9921 -10.1253 3
      vertex -21.9686 -10.2487 0
      vertex -21.9686 -10.2487 3
    endloop
  endfacet
  facet normal 0.248706 0.968579 -0
    outer loop
      vertex 21.309 10.951 0
      vertex 21.1874 10.9823 3
      vertex 21.309 10.951 3
    endloop
  endfacet
  facet normal 0.248706 0.968579 0
    outer loop
      vertex 21.1874 10.9823 3
      vertex 21.309 10.951 0
      vertex 21.1874 10.9823 0
    endloop
  endfacet
  facet normal 0.951062 0.309001 0
    outer loop
      vertex 21.9686 10.2487 3
      vertex 21.9298 10.3681 0
      vertex 21.9298 10.3681 3
    endloop
  endfacet
  facet normal 0.951062 0.309001 0
    outer loop
      vertex 21.9298 10.3681 0
      vertex 21.9686 10.2487 3
      vertex 21.9686 10.2487 0
    endloop
  endfacet
  facet normal 0.770497 0.637443 0
    outer loop
      vertex 21.809 10.5878 3
      vertex 21.729 10.6845 0
      vertex 21.729 10.6845 3
    endloop
  endfacet
  facet normal 0.770497 0.637443 0
    outer loop
      vertex 21.729 10.6845 0
      vertex 21.809 10.5878 3
      vertex 21.809 10.5878 0
    endloop
  endfacet
  facet normal 0.844326 0.535829 0
    outer loop
      vertex 21.8763 10.4818 3
      vertex 21.809 10.5878 0
      vertex 21.809 10.5878 3
    endloop
  endfacet
  facet normal 0.844326 0.535829 0
    outer loop
      vertex 21.809 10.5878 0
      vertex 21.8763 10.4818 3
      vertex 21.8763 10.4818 0
    endloop
  endfacet
  facet normal 0.481769 0.876298 -0
    outer loop
      vertex 21.5358 10.8443 0
      vertex 21.4258 10.9048 3
      vertex 21.5358 10.8443 3
    endloop
  endfacet
  facet normal 0.481769 0.876298 0
    outer loop
      vertex 21.4258 10.9048 3
      vertex 21.5358 10.8443 0
      vertex 21.4258 10.9048 0
    endloop
  endfacet
  facet normal -0.968579 0.248706 0
    outer loop
      vertex -21.9823 10.1874 0
      vertex -21.951 10.309 3
      vertex -21.951 10.309 0
    endloop
  endfacet
  facet normal -0.968579 0.248706 0
    outer loop
      vertex -21.951 10.309 3
      vertex -21.9823 10.1874 0
      vertex -21.9823 10.1874 3
    endloop
  endfacet
  facet normal -0.587839 -0.808978 0
    outer loop
      vertex -21.6374 -10.7705 0
      vertex -21.5358 -10.8443 3
      vertex -21.6374 -10.7705 3
    endloop
  endfacet
  facet normal -0.587839 -0.808978 -0
    outer loop
      vertex -21.5358 -10.8443 3
      vertex -21.6374 -10.7705 0
      vertex -21.5358 -10.8443 0
    endloop
  endfacet
  facet normal 0.587839 0.808978 -0
    outer loop
      vertex 21.6374 10.7705 0
      vertex 21.5358 10.8443 3
      vertex 21.6374 10.7705 3
    endloop
  endfacet
  facet normal 0.587839 0.808978 0
    outer loop
      vertex 21.5358 10.8443 3
      vertex 21.6374 10.7705 0
      vertex 21.5358 10.8443 0
    endloop
  endfacet
  facet normal 0.684523 0.728991 -0
    outer loop
      vertex 21.729 10.6845 0
      vertex 21.6374 10.7705 3
      vertex 21.729 10.6845 3
    endloop
  endfacet
  facet normal 0.684523 0.728991 0
    outer loop
      vertex 21.6374 10.7705 3
      vertex 21.729 10.6845 0
      vertex 21.6374 10.7705 0
    endloop
  endfacet
  facet normal 0.968579 -0.248706 0
    outer loop
      vertex 21.951 -10.309 3
      vertex 21.9823 -10.1874 0
      vertex 21.9823 -10.1874 3
    endloop
  endfacet
  facet normal 0.968579 -0.248706 0
    outer loop
      vertex 21.9823 -10.1874 0
      vertex 21.951 -10.309 3
      vertex 21.951 -10.309 0
    endloop
  endfacet
  facet normal 0.876298 -0.481769 0
    outer loop
      vertex 21.8443 -10.5358 3
      vertex 21.9048 -10.4258 0
      vertex 21.9048 -10.4258 3
    endloop
  endfacet
  facet normal 0.876298 -0.481769 0
    outer loop
      vertex 21.9048 -10.4258 0
      vertex 21.8443 -10.5358 3
      vertex 21.8443 -10.5358 0
    endloop
  endfacet
  facet normal 0.808978 -0.587839 0
    outer loop
      vertex 21.7705 -10.6374 3
      vertex 21.8443 -10.5358 0
      vertex 21.8443 -10.5358 3
    endloop
  endfacet
  facet normal 0.808978 -0.587839 0
    outer loop
      vertex 21.8443 -10.5358 0
      vertex 21.7705 -10.6374 3
      vertex 21.7705 -10.6374 0
    endloop
  endfacet
  facet normal 0.707107 0.707107 0
    outer loop
      vertex 3 8.62132 17
      vertex 2.12132 9.5 3
      vertex 2.12132 9.5 17
    endloop
  endfacet
  facet normal 0.707107 0.707107 0
    outer loop
      vertex 2.12132 9.5 3
      vertex 3 8.62132 17
      vertex 3 8.62132 3
    endloop
  endfacet
  facet normal 0 1 -0
    outer loop
      vertex 2.12132 9.5 3
      vertex -2.12132 9.5 17
      vertex 2.12132 9.5 17
    endloop
  endfacet
  facet normal 0 1 0
    outer loop
      vertex -2.12132 9.5 17
      vertex 2.12132 9.5 3
      vertex -2.12132 9.5 3
    endloop
  endfacet
  facet normal 0.707107 -0.707107 0
    outer loop
      vertex 2.12132 -9.5 17
      vertex 3 -8.62132 3
      vertex 3 -8.62132 17
    endloop
  endfacet
  facet normal 0.707107 -0.707107 0
    outer loop
      vertex 3 -8.62132 3
      vertex 2.12132 -9.5 17
      vertex 2.12132 -9.5 3
    endloop
  endfacet
  facet normal 1 -0 0
    outer loop
      vertex 3 -8.62132 17
      vertex 3 8.62132 3
      vertex 3 8.62132 17
    endloop
  endfacet
  facet normal 1 0 0
    outer loop
      vertex 3 8.62132 3
      vertex 3 -8.62132 17
      vertex 3 -8.62132 3
    endloop
  endfacet
  facet normal -1 0 0
    outer loop
      vertex -3 -8.62132 3
      vertex -3 8.62132 17
      vertex -3 8.62132 3
    endloop
  endfacet
  facet normal -1 -0 0
    outer loop
      vertex -3 8.62132 17
      vertex -3 -8.62132 3
      vertex -3 -8.62132 17
    endloop
  endfacet
  facet normal -0.707107 -0.707107 0
    outer loop
      vertex -2.12132 -9.5 3
      vertex -3 -8.62132 17
      vertex -3 -8.62132 3
    endloop
  endfacet
  facet normal -0.707107 -0.707107 0
    outer loop
      vertex -3 -8.62132 17
      vertex -2.12132 -9.5 3
      vertex -2.12132 -9.5 17
    endloop
  endfacet
  facet normal 0 -1 0
    outer loop
      vertex -2.12132 -9.5 3
      vertex 2.12132 -9.5 17
      vertex -2.12132 -9.5 17
    endloop
  endfacet
  facet normal 0 -1 -0
    outer loop
      vertex 2.12132 -9.5 17
      vertex -2.12132 -9.5 3
      vertex 2.12132 -9.5 3
    endloop
  endfacet
  facet normal 0 0 1
    outer loop
      vertex -3 8.62132 17
      vertex 3 8.62132 17
      vertex 2.12132 9.5 17
    endloop
  endfacet
  facet normal 0 0 1
    outer loop
      vertex 3 8.62132 17
      vertex -3 8.62132 17
      vertex 3 -8.62132 17
    endloop
  endfacet
  facet normal 0 0 1
    outer loop
      vertex -3 8.62132 17
      vertex 2.12132 9.5 17
      vertex -2.12132 9.5 17
    endloop
  endfacet
  facet normal 0 0 1
    outer loop
      vertex -3 -8.62132 17
      vertex 3 -8.62132 17
      vertex -3 8.62132 17
    endloop
  endfacet
  facet normal 0 0 1
    outer loop
      vertex 3 -8.62132 17
      vertex -3 -8.62132 17
      vertex 2.12132 -9.5 17
    endloop
  endfacet
  facet normal 0 0 1
    outer loop
      vertex 2.12132 -9.5 17
      vertex -3 -8.62132 17
      vertex -2.12132 -9.5 17
    endloop
  endfacet
  facet normal -0.707107 0.707107 0
    outer loop
      vertex -3 8.62132 3
      vertex -2.12132 9.5 17
      vertex -2.12132 9.5 3
    endloop
  endfacet
  facet normal -0.707107 0.707107 0
    outer loop
      vertex -2.12132 9.5 17
      vertex -3 8.62132 3
      vertex -3 8.62132 17
    endloop
  endfacet
endsolid OpenSCAD_Model
